<svg width="130" height="157" viewBox="0 0 130 157" fill="none" xmlns="http://www.w3.org/2000/svg">
<path d="M103.023 1.3742L103.655 0.687181C104.221 0.0722998 104.366 0 105.038 0C105.579 0 105.908 0.102562 106.218 0.368045C106.684 0.767333 106.807 1.15812 107.292 3.76224C107.468 4.70689 107.762 6.14226 107.947 6.95196C108.574 9.70887 108.656 10.3622 108.472 11.1352C107.976 13.2215 107.765 14.0166 107.628 14.3129C107.545 14.4928 107.358 15.1553 107.213 15.785C107.067 16.4148 106.8 17.5189 106.62 18.2387C106.439 18.9584 106.186 20.0457 106.057 20.6549C105.928 21.264 105.774 21.8391 105.716 21.9327C105.658 22.0264 105.478 22.7058 105.315 23.4423C105.153 24.1791 104.827 25.5176 104.591 26.4171C104.107 28.2552 104.035 29.28 104.388 29.28C104.706 29.28 104.924 28.9773 105.212 28.1309C105.509 27.2628 106.378 23.9049 106.539 23.0031C106.601 22.6547 106.711 22.2499 106.783 22.1035C106.855 21.9571 107.111 20.9908 107.353 19.9562C107.594 18.9216 107.895 17.7071 108.02 17.2572C108.146 16.8074 108.442 15.5928 108.679 14.5582C108.917 13.5236 109.215 12.2723 109.341 11.7774C109.929 9.48788 110.903 5.23982 111.002 4.53988C111.156 3.44687 111.92 2.78079 113.019 2.78079C113.835 2.78079 114.531 3.12151 114.531 3.52047C114.531 3.91796 115.15 4.13519 115.72 3.93776C116.868 3.5401 117.753 3.7642 118.504 4.64228C118.927 5.13742 118.953 5.14462 119.663 4.95618C120.745 4.66845 121.725 4.93099 122.366 5.68065C122.862 6.26053 122.89 6.27067 123.41 6.05671C124.037 5.79859 124.918 5.80235 125.439 6.06538C125.641 6.16795 126.034 6.51276 126.312 6.83141L126.817 7.41079L127.581 7.12094C128.47 6.78348 128.947 6.862 129.588 7.45185C130.031 7.8603 130.047 7.92442 129.955 9.00517C129.903 9.62495 129.749 10.3736 129.613 10.6686C129.477 10.9637 129.284 11.5362 129.185 11.941C129.085 12.3459 128.939 12.8243 128.86 13.0043C128.782 13.1842 128.521 13.9939 128.28 14.8036C128.04 15.6133 127.745 16.5702 127.625 16.9301C127.505 17.2899 127.206 18.2469 126.961 19.0566C126.413 20.8714 126.002 22.1735 125.31 24.291C125.017 25.1906 124.623 26.442 124.435 27.0718C124.247 27.7015 123.788 29.2105 123.414 30.4251C122.34 33.9164 122.307 34.026 121.851 35.5777C121.613 36.3874 121.314 37.3811 121.185 37.786C121.057 38.1908 120.872 38.8466 120.774 39.2431C120.553 40.1346 119.874 40.8344 119.088 40.9809C118.17 41.1522 116.348 40.5489 115.879 39.9185C115.497 39.4049 114.919 39.266 114.577 39.6057C114.255 39.9252 112.626 39.6229 112.043 39.1356C111.618 38.7794 111.483 38.7416 111.222 38.9037C110.967 39.0617 110.91 39.0519 110.91 38.8505C110.91 38.658 110.693 38.6038 109.922 38.6038C109.158 38.6038 108.935 38.6588 108.935 38.8471C108.935 39.1376 109.939 39.5853 110.591 39.5853C111.547 39.5853 111.76 40.4858 111.328 42.6932C110.464 47.1018 107.842 50.6419 103.88 52.7504C103.079 53.1765 102.575 53.7418 102.056 54.7978C101.688 55.5473 100.659 57.3321 100.548 57.415C100.488 57.46 100.341 57.736 100.222 58.0285C100.103 58.3209 99.9405 58.5601 99.861 58.5601C99.7813 58.5601 99.7163 58.6456 99.7163 58.7501C99.7163 58.8548 99.4805 59.3148 99.1923 59.7725C98.4209 60.9977 94.9104 66.2792 94.6739 66.5704C94.5623 66.7081 93.7511 67.7408 92.8715 68.8653C90.1689 72.3205 88.3175 74.3219 85.395 76.947C81.0418 80.8569 78.1577 82.898 70.7666 87.2987C68.7957 88.472 67.7091 89.3774 67.4459 90.0649C67.1646 90.8003 67.2694 92.8027 67.6732 94.4062C67.8852 95.2481 68.2268 96.6732 68.4324 97.5729C68.638 98.4725 69.0505 100.239 69.3493 101.499C69.6479 102.758 69.9425 104.12 70.0039 104.525C70.0653 104.93 70.2224 105.583 70.3529 105.977C70.4835 106.371 70.6556 107.107 70.7358 107.613C70.9587 109.022 71.4038 111.256 71.5707 111.804C71.6529 112.074 71.8369 112.92 71.9796 113.685C72.1222 114.45 72.3788 115.812 72.55 116.711C72.7212 117.611 72.9778 118.973 73.1206 119.737C73.2631 120.502 73.4891 121.643 73.6228 122.273C74.0337 124.208 74.3514 125.769 74.8552 128.325C75.8039 133.137 76.318 134.949 77.1996 136.586C78.2171 138.475 78.9528 139.049 81.3948 139.859C83.2379 140.47 84.4124 141.198 85.5644 142.442C86.9452 143.933 87.4174 145.162 87.4309 147.3C87.4385 148.489 87.3679 149.092 87.172 149.508C87.0238 149.823 86.8576 150.238 86.8024 150.429C86.7473 150.621 86.5746 150.927 86.4189 151.11C86.2632 151.292 85.8921 151.738 85.5944 152.1C85.2966 152.462 84.5507 153.128 83.9369 153.58C79.9622 156.508 72.8631 157.72 66.8762 156.491C62.1004 155.512 59.1713 153.197 58.2411 149.668C58.1349 149.265 57.9772 148.705 57.8903 148.423C57.8036 148.141 57.6231 146.926 57.4895 145.724C57.2659 143.713 57.0182 141.811 56.3533 136.995C56.2167 136.005 55.9991 134.68 55.8697 134.05C55.7405 133.42 55.5095 132.206 55.3568 131.351C54.4155 126.087 53.1847 122.305 51.8859 120.685C51.4731 120.17 50.3944 119.574 49.8758 119.574C48.8103 119.574 47.6437 120.626 46.7464 122.398C46.2865 123.305 44.9004 127.198 44.9004 127.582C44.9004 127.664 44.8135 127.939 44.7072 128.192C44.601 128.445 44.3834 129.131 44.2236 129.715C43.6612 131.774 43.4212 132.581 43.2752 132.905C43.1942 133.085 42.9259 134.005 42.6792 134.95C42.4326 135.895 42.133 136.925 42.0136 137.24C41.8943 137.555 41.7514 138.033 41.6961 138.303C41.6408 138.573 41.4587 139.272 41.2915 139.857C41.1242 140.442 40.8722 141.362 40.7316 141.902C40.5909 142.442 40.3494 143.362 40.195 143.947C40.0404 144.531 39.8205 145.451 39.7063 145.991C39.42 147.342 39.0435 148.621 38.7375 149.281C38.5963 149.586 38.3545 150.106 38.2004 150.438C37.8099 151.278 36.5525 152.798 35.5877 153.595C33.0699 155.677 27.4809 157.2 23.1716 156.979C21.0124 156.868 17.9946 156.367 16.4226 155.859C14.9277 155.375 12.5466 154.186 11.5673 153.433C8.83855 151.335 7.94619 148.456 9.05716 145.337C9.48136 144.146 9.80482 143.657 10.9857 142.423C12.0235 141.339 13.9208 140.234 15.6398 139.714C16.8473 139.348 18.2295 138.537 18.9125 137.793C20.0574 136.545 21.7438 133.462 22.659 130.942C22.8551 130.402 23.08 129.814 23.1588 129.634C23.4614 128.944 24.3402 126.148 25.1643 123.254C25.8293 120.919 25.9617 120.437 26.3788 118.838C26.8805 116.913 27.2394 115.552 27.5426 114.421C27.7864 113.512 28.7877 109.554 29.2704 107.591C29.4421 106.893 29.7347 105.715 29.9211 104.974C30.1073 104.232 30.3629 103.147 30.4893 102.562C30.6156 101.977 30.941 100.615 31.2123 99.5358C31.8637 96.9444 32.1168 95.4711 31.9832 95.0523C31.6872 94.1258 29.7846 95.0652 26.9431 97.5406C23.8408 100.243 20.3535 101.556 18.8802 104.5C18.3732 105.513 19.0071 107.989 18.8802 109.535C18.4614 114.632 17.8815 116.195 16.2472 116.632C15.397 116.86 14.5396 116.484 13.9996 115.648C13.4263 114.76 13.3142 114.667 12.8255 114.667C11.7711 114.667 10.5431 116.96 10.242 119.492C10.0598 121.025 9.55543 121.741 8.29533 122.257C7.37416 122.634 6.37562 122.579 5.10728 122.081C3.08881 121.288 1.01684 118.759 0.306704 116.22C-0.0024375 115.116 -0.101204 112.406 0.118717 111.068C0.357569 109.615 1.41899 107.266 2.54658 105.696C2.967 105.111 4.02315 103.927 4.89362 103.065C6.03159 101.939 6.71867 101.085 7.33959 100.026C8.48249 98.078 8.38537 98.2324 10.115 95.6109C12.1064 92.5923 12.3119 92.3069 13.9409 90.2937C18.8274 84.255 23.5488 80.4393 30.6607 76.7812C31.9277 76.1296 33.0683 75.4407 33.1954 75.2505C33.5027 74.7905 33.239 74.2965 32.3279 73.6255C30.9853 72.6367 30.3049 71.8619 29.6328 70.5561C29.1411 69.6008 28.9201 68.4494 28.7742 66.0845C28.6085 63.3955 28.364 62.9323 25.6408 60.1456C24.5091 58.9875 23.5139 57.9179 23.4293 57.7684C23.3445 57.619 23.1789 57.4006 23.0612 57.283C22.6607 56.8829 21.7583 55.2099 21.3762 54.1591C20.7716 52.496 20.523 50.8521 20.3721 47.5187C20.2575 44.9885 20.1652 44.2286 19.8755 43.4311C19.4017 42.1266 19.3031 41.948 18.4611 40.8668C18.0642 40.3571 17.7395 39.7636 17.7395 39.548C17.7395 38.276 20.4264 37.5501 22.689 38.2104C24.7763 38.8198 26.1938 39.8966 28.1161 42.3339C29.1997 43.7076 29.7835 44.133 30.752 44.2547C32.1912 44.4355 33.1817 43.5419 33.3289 41.9295C33.5215 39.8187 32.6278 38.2279 29.5764 35.2492C27.0027 32.737 26.307 31.9136 25.5006 30.4251C24.8609 29.2442 24.6675 28.6804 24.2943 26.9082C24.0831 25.9051 24.2171 22.3508 24.4917 21.6738C24.6087 21.3849 24.6988 20.2744 24.7104 18.9748C24.7302 16.7804 24.7267 16.7595 24.174 15.6372C23.6237 14.5198 22.6765 13.4322 21.4832 12.5474C20.984 12.1772 20.8671 11.986 20.8671 11.5385C20.8671 10.8115 21.5407 10.3882 23.0943 10.1389C24.5225 9.90957 25.6973 10.0349 27.287 10.5858C30.3912 11.6616 32.6026 13.937 34.4584 17.9642C35.2665 19.7177 36.992 21.4786 38.7321 22.3255C40.3137 23.0951 41.5317 23.3346 44.9087 23.5392C46.4975 23.6355 48.1316 23.8143 48.54 23.9363C49.6594 24.2712 51.503 25.4051 52.2668 26.2284C53.5964 27.6618 54.16 29.2228 54.5273 32.4887C54.7874 34.8015 55.2057 35.8586 56.0941 36.4486C57.1902 37.1765 58.4554 36.5663 59.0574 35.0192L59.4019 34.1335L59.0497 32.9746C58.8561 32.3371 58.6041 31.705 58.4898 31.5701C58.1965 31.2235 57.7402 30.2551 57.7402 29.9793C57.7402 29.2445 58.9438 28.9472 60.2337 29.3633C61.3547 29.7248 62.038 30.1272 63.1847 31.1008C63.9864 31.7814 65.4751 33.6557 65.4779 33.9879C65.4786 34.0527 65.5798 34.2976 65.7031 34.5324C65.8264 34.7672 66.1031 35.4665 66.318 36.0864C66.6725 37.1088 66.7089 37.4868 66.7101 40.1578C66.7111 42.2151 66.6445 43.2903 66.4893 43.7265C66.3588 44.0933 66.257 45.1393 66.2424 46.262C66.2129 48.5363 66.4625 49.3375 67.8518 51.4314C69.3016 53.6163 69.8614 54.9727 70.0868 56.8463C70.347 59.0083 70.1804 61.2268 69.6388 62.813C69.1605 64.2139 68.2324 66.1241 67.7188 66.765C67.5269 67.0043 67.2589 67.3457 67.1231 67.5235C66.6152 68.1885 65.3441 69.4594 64.5597 70.0866C64.1136 70.4434 63.694 70.8114 63.6275 70.9045C63.4127 71.2051 63.4942 71.8172 63.7628 71.9196C64.1526 72.0681 67.6859 70.6154 69.44 69.5854C73.0442 67.4692 76.4697 64.4727 79.0662 61.165C79.6611 60.407 80.2366 59.6765 80.3449 59.5415C80.6649 59.1427 83.0244 55.5766 83.3212 55.0432C83.4714 54.7733 83.7384 54.3316 83.9145 54.0617C84.0905 53.7918 84.4977 53.0926 84.8194 52.5078C85.141 51.923 85.7277 50.8557 86.1229 50.1359C86.5182 49.4162 87.2339 48.0544 87.7136 47.1098C88.5465 45.4693 88.5913 45.3152 88.7101 43.6747C88.9482 40.3906 89.652 38.2693 91.2354 36.0645C92.232 34.6769 94.225 32.9569 95.0047 32.8115C95.7815 32.6667 95.7792 32.5748 94.9315 29.8526C94.4276 28.2341 93.49 24.9737 93.05 23.3095C92.9072 22.7697 92.7219 22.1809 92.6379 22.0009C92.554 21.821 92.3754 21.2689 92.2407 20.7741C92.0024 19.8977 91.6936 18.8562 91.0285 16.6847C87.7534 5.99227 87.7025 5.79892 87.9949 5.16147C88.1004 4.93131 88.429 4.59271 88.7251 4.40918C89.2589 4.07827 89.4298 4.07336 90.8088 4.34882C91.3105 4.44909 91.4178 4.39986 91.8788 3.85662C92.5081 3.1153 93.3629 2.87582 94.398 3.15096C95.0801 3.3322 95.1191 3.3214 95.6168 2.81563C96.2472 2.1749 97.143 1.91629 98.2341 2.06007C98.974 2.15756 99.1031 2.12599 99.4743 1.75713C100.081 1.15452 101.21 0.912425 102.218 1.16908L103.023 1.3742Z" fill="#FEF8DD"/>
</svg>
