<svg width="305" height="247" viewBox="0 0 305 247" fill="none" xmlns="http://www.w3.org/2000/svg">
<path fill-rule="evenodd" clip-rule="evenodd" d="M110.909 0.440413C109.999 1.15726 110.13 2.32814 111.473 5.4705L112.654 8.23475L112.638 12.4533C112.626 15.9922 112.525 16.9762 112.011 18.5605C111.025 21.6063 109.736 28.5551 109.735 30.8337C109.734 34.6295 111.083 40.0708 112.846 43.3807C114.406 46.3109 116.859 49.2851 120.846 53.0849C127.292 59.2269 129.845 63.6573 129.847 68.7008C129.847 72.3385 128.429 74.3221 125.824 74.3243C122.701 74.3271 119.973 72.2244 116.544 67.1693C115.287 65.3169 112.29 62.698 110.014 61.4621C108.124 60.4362 105.779 59.8825 103.114 59.8328C101.28 59.7987 101.022 59.8696 100.537 60.5415C99.847 61.4964 100.041 62.1967 101.508 64.0466C103.969 67.1484 105.29 71.6566 105.29 76.9504C105.29 81.7996 106.937 86.9444 109.498 90.0958C110.307 91.0908 112.505 93.0263 114.694 94.6697C119.12 97.9929 120.709 99.5876 121.466 101.466C122.486 103.999 121.683 105.757 118.404 108.166C112.268 112.675 107.779 115.228 103.739 116.505C101.12 117.334 99.5471 117.571 92.2299 118.238C81.8295 119.187 78.8813 119.63 75.6846 120.721C70.3078 122.556 66.2845 125.36 60.0819 131.592C53.3685 138.338 49.251 140.309 39.9901 141.208C35.9551 141.599 34.8233 141.923 31.7631 143.559C24.9403 147.208 22.0374 155.614 24.6088 164.276C25.4966 167.268 27.6768 168.483 28.7927 166.608C31.1924 162.576 34.414 161.661 41.2405 163.072C47.0891 164.28 54.0643 163.793 59.6325 161.787C65.3075 159.743 69.1863 157.301 76.6211 151.092C84.2603 144.713 89.5499 142.029 95.2974 141.617C97.843 141.434 97.9797 141.457 98.7561 142.208C99.5271 142.954 99.5494 143.046 99.2359 144.203C98.84 145.665 96.9015 148.417 93.3156 152.611C88.3061 158.469 87.7332 159.168 86.1485 161.353C83.2291 165.379 80.653 170.246 79.7371 173.465C79.1358 175.578 77.3321 180.072 76.5058 181.515C72.8178 187.955 65.5882 194.268 55.0374 200.263C49.8078 203.235 47.0491 204.504 42.4909 206.036C38.4304 207.4 35.5483 207.914 27.6156 208.686C20.0761 209.421 16.8367 210.23 13.1446 212.303C6.52433 216.017 1.86915 223.003 0.380314 231.455C-0.350767 235.607 -0.0473305 238.596 1.46012 242.087C2.85782 245.325 5.11247 246.8 8.68284 246.811C12.1523 246.822 15.3037 245.414 21.1476 241.242C26.7553 237.238 28.016 236.404 30.4035 235.119C37.7702 231.155 44.5008 230.217 57.5182 231.343C61.8489 231.717 65.6965 231.842 70.1392 231.753C77.5633 231.605 80.0511 231.097 84.3298 228.858C89.0964 226.363 90.4374 225.14 98.8989 215.571C110.941 201.951 117.235 196.69 124.514 194.161C126.737 193.388 127.231 193.331 130.766 193.432C134.524 193.54 134.643 193.565 136.356 194.609C138.48 195.901 139.321 196.968 139.878 199.079C140.448 201.238 140.411 203.95 139.759 207.819C138.705 214.075 138.581 215.87 139.039 218.316C139.6 221.316 140.406 223.14 141.968 224.943C145.555 229.085 153.086 230.849 160.815 229.359C169.202 227.742 177.09 223.452 182.57 217.525C185.659 214.185 187.262 210.941 187.262 208.03C187.262 205.868 186.844 204.794 185.474 203.442C183.503 201.496 181.172 201.405 175.503 203.053C170.426 204.529 167.874 204.224 166.668 202.001C165.654 200.132 166.178 197.305 168.641 191.352C170.564 186.703 170.776 186.109 171.142 184.366C171.341 183.419 171.437 181.71 171.363 180.427C171.123 176.207 169.22 173.329 165.512 171.579C162.85 170.322 160.143 169.948 153.647 169.939C149.254 169.934 148.334 169.848 147.376 169.359C144.516 167.898 143.955 165.116 145.752 161.307C149.146 154.113 155.819 148.982 163.403 147.735C166.54 147.219 175.933 147.544 182.121 148.384C188.514 149.251 195.984 149.14 200.739 148.107C206.83 146.785 213.354 143.733 219.012 139.561C223.387 136.335 223.397 136.328 224.928 135.705C226.019 135.261 227.203 135.141 230.658 135.125L235.013 135.104L235.15 135.885C236.044 140.988 236.849 144.651 237.243 145.415C238.54 147.931 240.674 148.305 246.137 146.972C247.913 146.539 250.492 145.912 251.867 145.578C253.243 145.245 256.431 144.471 258.953 143.859C261.475 143.247 264.976 142.399 266.733 141.973C268.491 141.548 272.492 140.556 275.625 139.768C278.758 138.98 282.76 138.003 284.517 137.597C286.275 137.191 289.213 136.491 291.047 136.042C292.881 135.593 295.87 134.879 297.689 134.455C301.772 133.504 303.106 132.859 304.137 131.335C304.863 130.261 304.936 129.934 304.893 127.938C304.866 126.724 304.585 124.675 304.267 123.386C303.95 122.097 303.37 119.214 302.981 116.98C302.591 114.746 302.034 111.863 301.743 110.574C301.453 109.285 300.901 106.473 300.518 104.324C300.135 102.176 299.319 97.7464 298.704 94.4809C296.5 82.7746 296.605 83.108 294.691 81.6846C293.036 80.4531 292.131 80.5622 281.738 83.2464C280.134 83.6611 278.196 84.1301 277.431 84.2889C275.973 84.5917 269.358 86.1682 266.039 87.0034C260.086 88.5015 257.412 89.1561 252.006 90.4386C248.72 91.2179 244.625 92.2004 242.906 92.6216C241.187 93.0425 238.31 93.7394 236.515 94.1697C234.719 94.6 232.657 95.1734 231.932 95.4437C230.287 96.058 228.896 97.6633 228.503 99.401C228.226 100.627 228.035 100.837 226.058 102.085C223.729 103.555 221.388 105.996 218.186 110.295C214.439 115.327 209.193 119.694 202.506 123.35C197.145 126.28 193.547 127.567 186.151 129.197C183.417 129.799 172.625 130.119 169.338 129.695C166.26 129.297 163.643 128.272 163.643 127.462C163.643 126.582 164.748 125.963 168.436 124.777C174.042 122.974 175.325 122.448 178.211 120.771C183.344 117.787 186.837 113.14 188.091 107.626C188.76 104.685 188.789 103.225 188.237 100.275C187.597 96.8524 186.208 94.215 183.719 91.697C182.401 90.3633 182.298 89.8292 183.068 88.3271C184.496 85.5416 186.641 78.7154 187.26 74.9862C187.682 72.4441 187.607 64.7188 187.135 62.237C185.64 54.3611 182.017 47.1883 176.64 41.4561C174.405 39.0746 173.382 38.4643 172.329 38.8865C171.142 39.3624 171.003 39.9524 171.517 42.3345C172.164 45.3315 172.102 46.9165 171.231 49.746C169.342 55.8779 164.918 57.9094 162.555 53.7296C161.587 52.0166 161.256 50.6322 161.016 47.2955C160.197 35.9132 155.6 30.8756 144.192 28.8585C138.86 27.9158 135.132 26.1621 132.324 23.2756C130.388 21.2864 129.129 19.1861 126.976 14.3548C124.926 9.75718 123.736 7.86883 121.363 5.44863C119.337 3.38341 116.906 1.76535 114.237 0.706027C112.026 -0.171747 111.717 -0.196433 110.909 0.440413ZM285.351 88.2459C284.51 88.4777 281.947 89.1058 279.654 89.6418C275.544 90.6026 272.032 91.4504 266.039 92.9288C261.432 94.065 257.051 95.114 252.423 96.1899C250.131 96.7227 246.879 97.4967 245.198 97.9101C243.517 98.3236 241.11 98.9013 239.849 99.1945C238.111 99.5985 237.557 99.8504 237.557 100.236C237.557 100.74 245.615 105.473 251.325 108.322C262.5 113.897 265.42 115.26 266.208 115.27C266.709 115.276 268.178 113.781 272.173 109.202C276.823 103.872 283.92 95.1009 285.502 92.7282C285.801 92.2798 286.577 91.1257 287.226 90.1636C287.876 89.2015 288.407 88.2674 288.407 88.0884C288.407 87.6622 287.251 87.7218 285.351 88.2459ZM291.269 93.8994C290.689 94.6965 289.776 95.938 289.241 96.6583C288.706 97.3786 287.768 98.6532 287.157 99.4907C285.053 102.373 283.918 103.857 283.454 104.331C282.128 105.687 279.515 109.089 279.515 109.46C279.515 109.914 282.243 111.903 288.546 116.045C290.686 117.451 293.635 119.397 295.101 120.369C296.566 121.341 297.91 122.136 298.088 122.136C298.677 122.136 298.701 122.298 296.044 108.387C295.117 103.535 293.131 92.7266 293.131 92.5366C293.131 92.4888 292.95 92.4498 292.728 92.4498C292.507 92.4498 291.85 93.1019 291.269 93.8994ZM234.783 106.746C234.786 107.047 235.045 108.558 235.36 110.105C236.077 113.627 236.99 118.205 236.996 118.308C236.999 118.351 237.318 118.386 237.705 118.386C238.571 118.386 240.274 119.164 240.98 119.882C241.909 120.828 242.559 122.657 242.559 124.333C242.559 126.131 241.227 130.135 240.323 131.055C239.713 131.675 239.63 132.922 240.077 134.733C240.468 136.316 241.026 136.161 242.274 134.124C242.812 133.245 243.781 131.699 244.427 130.69C245.072 129.68 245.956 128.292 246.391 127.604C246.826 126.917 248.642 124.079 250.427 121.298C252.213 118.517 253.673 116.122 253.673 115.975C253.673 115.829 252.017 114.88 249.992 113.866C247.966 112.853 243.92 110.713 240.998 109.112C238.076 107.51 235.482 106.199 235.232 106.199C234.982 106.199 234.78 106.445 234.783 106.746ZM272.483 117.19C271.136 118.733 269.608 120.196 269.087 120.441C267.458 121.207 265.018 121.011 262.766 119.933C261.671 119.409 260.267 118.902 259.646 118.806C258.519 118.632 258.516 118.635 257.122 120.775C254.942 124.121 253.572 126.255 253.118 127.009C252.584 127.897 248.932 133.611 246.448 137.448C244.435 140.555 244.185 141.198 244.99 141.197C245.471 141.196 252.97 139.495 256.452 138.597C262.708 136.983 270.172 135.163 272.013 134.801C272.548 134.695 274.298 134.275 275.903 133.866C279.14 133.042 284.99 131.569 288.824 130.611C290.2 130.268 292.481 129.753 293.895 129.467C295.685 129.104 296.466 128.813 296.466 128.511C296.466 128.046 295.581 127.396 289.241 123.192C287.025 121.723 283.134 119.127 280.595 117.422C278.056 115.718 275.742 114.337 275.454 114.354C275.166 114.371 273.829 115.647 272.483 117.19Z" fill="#F15C56"/>
</svg>
