<svg width="474" height="298" viewBox="0 0 474 298" fill="none" xmlns="http://www.w3.org/2000/svg">
<path d="M392.776 145.313C397.073 152.036 401.323 158.579 405.432 165.209C406.291 166.595 406.48 168.383 407.26 169.835C407.755 170.758 408.647 171.829 409.574 172.097C414.074 173.395 418.593 174.759 423.202 175.517C433.142 177.154 443.173 178.252 453.1 179.961C456.456 180.539 459.608 182.298 462.858 183.508C463.68 183.814 464.505 184.297 465.347 184.338C471.173 184.623 474.706 188.99 473.379 194.786C472.809 197.279 471.374 199.563 470.599 202.026C470.012 203.891 469.442 205.918 469.575 207.824C469.892 212.356 470.863 216.846 471.116 221.378C471.281 224.334 470.799 227.357 470.346 230.31C469.4 236.483 468.273 242.628 467.246 248.788C467.154 249.339 467.009 250.098 467.284 250.459C469.771 253.729 467.148 256.024 465.368 257.826C464.027 259.182 461.492 259.848 459.451 259.934C451.653 260.263 443.839 260.198 436.033 260.359C434.093 260.399 431.651 260.07 430.338 261.079C428.174 262.74 425.458 264.198 424.814 267.432C423.278 275.139 420.465 282.431 414.704 287.892C398.552 303.204 377.976 299.911 365.432 285.132C360.747 279.612 359.454 273.261 360.288 265.673C357.119 265.673 354.063 265.699 351.008 265.669C338.07 265.541 325.132 265.416 312.194 265.254C299.669 265.097 287.117 265.306 274.631 264.508C269.855 264.203 266.719 266.468 263.069 268.271C262.222 268.689 261.651 269.668 260.803 270.077C259.903 270.512 258.794 270.86 257.829 270.756C250.253 269.938 242.704 268.401 235.12 268.224C216.667 267.792 198.199 268.051 179.738 267.861C174.41 267.806 169.089 267.133 163.759 266.86C163.091 266.825 162.111 267.329 161.749 267.889C160.562 269.73 159.616 271.725 158.535 273.637C152.507 284.295 142.905 289.758 131.232 291.722C126.978 292.438 122.46 292.38 118.159 291.865C108.318 290.688 101.548 285.049 97.392 276.159C96.4284 274.099 95.3088 272.077 94.6469 269.919C94.1472 268.29 93.2387 267.919 91.8122 267.988C81.2636 268.503 70.7198 269.185 60.1651 269.481C52.2024 269.705 44.225 269.491 36.2561 269.354C33.5892 269.308 30.8685 269.172 28.2766 268.603C21.5652 267.13 16.6262 263.182 13.3726 257.126C10.0593 250.958 8.51574 244.224 7.14985 237.449C5.07801 227.173 3.10716 216.877 1.09136 206.589C-0.505154 198.441 0.0190872 190.233 0.380446 182.029C1.08484 166.035 4.15091 150.397 7.8326 134.891C10.6095 123.196 14.0686 111.664 17.0087 100.005C19.4106 90.4805 21.7494 80.9261 23.6485 71.2928C25.6281 61.2512 27.0844 51.1049 28.6875 40.9914C29.1188 38.2708 30.0703 36.213 32.6781 34.7634C35.7893 33.0339 38.4936 30.5787 41.5839 28.8027C43.3534 27.7858 45.5151 27.064 47.5422 26.9489C56.7048 26.4287 65.8817 26.1506 75.0555 25.8477C76.246 25.8084 76.9337 25.5896 77.3756 24.3236C79.1974 19.104 81.2597 13.9672 83.032 8.73175C84.988 2.95338 88.467 -0.163451 94.5135 0.00660999C108.899 0.411266 123.274 1.18765 137.654 1.78596C144.317 2.06318 150.982 2.29993 157.648 2.50926C163.014 2.67779 166.834 5.07736 169.365 9.88105C171.138 13.2471 173.135 16.5452 175.424 19.5768C178.105 23.1261 181.176 26.3865 184.174 29.6843C184.63 30.1852 185.603 30.4092 186.345 30.4266C201.713 30.7869 217.083 31.0991 232.452 31.4201C240.91 31.5967 249.367 31.8303 257.825 31.9339C269.048 32.0713 280.273 32.0841 291.496 32.1928C301.742 32.2919 311.987 32.4466 322.232 32.5784C333.53 32.7237 344.835 32.6969 356.122 33.1355C359.06 33.2497 362.134 34.4379 364.81 35.7947C371.302 39.0859 375.314 44.5609 378.408 51.1603C381.882 58.5689 386.198 65.594 390.332 72.6785C396.006 82.4017 399.625 92.8756 402.094 103.787C403.103 108.244 401.802 112.518 400.591 116.735C399.83 119.385 398.721 121.933 397.814 124.541C396.594 128.046 394.215 129.837 390.569 129.88C388.381 129.906 386.193 129.885 383.37 129.885C386.649 135.266 389.664 140.215 392.776 145.313ZM342.787 132.287C341.307 132.317 339.828 132.346 338.104 132.318C338.021 132.334 337.939 132.35 337.532 132.292C337.313 132.317 337.094 132.342 336.513 132.299C336.147 132.32 335.781 132.342 335.052 132.283C334.683 132.309 334.314 132.336 333.583 132.294C333.217 132.318 332.852 132.343 332.032 132.294C322.93 132.522 313.827 132.75 304.301 132.93C303.605 133.025 302.909 133.12 301.876 133.161C301.654 133.205 301.432 133.248 300.812 133.284C299.534 133.529 298.26 133.796 296.978 134.013C293.263 134.64 292.374 135.529 291.648 139.209C288.862 153.32 285.915 167.402 283.294 181.544C279.441 202.329 275.804 223.155 272.104 243.968C271.511 247.305 271.068 250.669 270.534 254.16C271.294 254.238 271.838 254.329 272.384 254.345C280.59 254.579 288.795 254.844 297.002 255.024C318.462 255.495 339.924 255.919 361.385 256.394C362.723 256.423 363.516 256.067 364.315 254.845C368.353 248.665 373.118 243.046 379.482 239.203C385.987 235.275 393.038 232.482 400.823 234.506C411.408 237.259 420.269 242.945 427.46 251.234C428.032 251.893 429.187 252.421 430.049 252.391C435.735 252.191 441.416 251.83 447.097 251.502C450.243 251.32 453.386 251.098 456.67 250.885C456.83 249.277 456.98 247.779 457.181 245.774C454.648 246.233 452.353 246.356 450.282 247.101C447.842 247.979 446.023 247.282 444.733 245.445C443.399 243.546 442.159 241.447 441.479 239.249C439.12 231.626 438.152 223.934 440.324 215.983C441.476 211.765 444.567 208.574 448.924 208.488C452.06 208.426 455.197 208.476 457.887 208.476C458.472 204.942 459.105 201.863 459.418 198.751C459.505 197.884 458.645 196.921 458.219 196.001C457.497 196.463 456.731 196.87 456.062 197.399C454.777 198.417 453.626 199.621 452.277 200.539C449.554 202.392 446.438 201.722 443.523 201.385C426.649 199.436 409.791 197.345 392.934 195.255C392.454 195.196 391.862 194.705 391.624 194.256C389.799 190.805 390.294 188.168 393.378 185.267C395.443 183.325 397.631 181.512 399.885 179.535C399.318 178.862 398.763 178.202 398.167 177.495C397.213 178.051 396.401 178.59 395.533 179.018C391.251 181.13 387.111 183.171 381.961 182.924C371.603 182.427 368.115 179.946 365.283 169.998C363.751 164.616 362.044 159.28 360.286 153.967C358.885 149.735 359.842 146.329 363.424 143.703C366.145 141.709 368.863 139.711 372.164 137.289C369.935 136.412 368.291 135.377 366.542 135.146C359.387 134.199 352.201 133.497 344.71 132.5C344.213 132.465 343.715 132.431 342.787 132.287ZM353.677 44.6198C345.398 44.2694 337.123 43.8102 328.841 43.6033C322.254 43.4387 315.658 43.5954 309.067 43.5868C293.378 43.5664 277.689 43.5248 262 43.5078C255.089 43.5003 248.173 43.7076 241.268 43.5091C226.48 43.0841 211.701 42.3413 196.913 41.9474C181.641 41.5406 166.356 41.5702 151.088 41.0815C136.222 40.6056 121.369 39.717 106.51 39.0063C93.8497 38.4007 81.1944 37.5611 68.5266 37.2786C62.1373 37.1362 55.73 38.1651 49.322 38.3372C46.2432 38.4199 44.2656 40.003 41.979 41.9498C42.6275 42.1305 42.9997 42.3006 43.383 42.3311C49.9445 42.8532 56.4998 43.5762 63.0721 43.8045C69.4804 44.027 75.918 43.4641 82.3224 43.7322C96.694 44.3337 111.051 45.2679 125.418 46.001C130.857 46.2786 136.314 46.2449 141.748 46.587C148.722 47.0261 155.673 47.8658 162.65 48.2262C169.144 48.5617 175.659 48.4589 182.163 48.6129C194.594 48.9072 207.023 49.2629 219.454 49.5554C222.295 49.6223 225.14 49.4891 227.981 49.5303C234.317 49.6223 240.651 49.8435 246.986 49.8631C251.533 49.8771 256.082 49.5162 260.627 49.5701C264.683 49.6183 268.734 50.1859 272.789 50.2108C286.602 50.2953 300.417 50.3743 314.228 50.2016C327.152 50.0399 340.071 49.5554 353.446 49.2771C356.033 49.2771 358.62 49.2771 361.539 49.2771C359.362 46.5517 356.96 45.2159 353.677 44.6198ZM319 61.0661C310.63 61.1489 302.26 61.3363 293.891 61.2842C285.927 61.2347 277.965 60.9547 270.003 60.7388C264.641 60.5934 259.281 60.2783 253.918 60.2329C248.964 60.1909 244.006 60.5429 239.053 60.4767C232.073 60.3834 225.097 60.0382 218.118 59.8572C215.843 59.7982 213.557 60.0436 211.287 59.9287C204.468 59.5837 197.658 59.0205 190.837 58.7416C177.675 58.2036 164.507 57.8217 151.343 57.3389C136.957 56.8113 122.568 56.3307 108.188 55.6641C96.9053 55.141 85.6395 54.2607 74.3571 53.7395C66.824 53.3915 59.2683 53.5328 51.7347 53.19C47.2236 52.9847 42.7357 52.2684 38.2286 51.7809C38.0892 52.1313 37.9639 52.3413 37.9219 52.5669C36.2248 61.6773 34.6536 70.8132 32.8134 79.8945C30.6985 90.3314 28.6386 100.794 26.0255 111.112C22.516 124.969 18.4079 138.673 14.7537 152.495C13.5824 156.925 13.0353 161.521 12.142 166.37C23.7456 166.642 34.7593 166.9 45.8369 167.159C45.9571 166.352 46.0505 165.88 46.0947 165.404C46.9511 156.179 47.8704 146.959 48.6315 137.726C49.219 130.599 49.346 123.425 50.1562 116.327C50.9741 109.162 52.0072 101.973 53.7181 94.9837C54.3852 92.2583 56.6747 89.243 59.0867 87.792C62.75 85.5883 66.8137 83.4733 71.3744 83.5188C77.3019 83.5779 83.249 83.5548 89.1489 84.0389C96.4241 84.6359 103.7 85.4777 110.897 86.6783C115.459 87.4391 118.197 90.666 118.501 95.3491C119.108 104.674 119.947 114.018 119.84 123.345C119.694 136.018 118.76 148.682 118.145 161.349C117.994 164.458 117.77 167.564 117.576 170.738C118.603 170.812 119.163 170.887 119.723 170.888C131.434 170.901 143.146 170.84 154.857 170.928C171.534 171.053 188.212 171.255 204.889 171.485C216.275 171.642 227.664 171.773 239.044 172.156C249.765 172.516 260.476 173.161 271.187 173.756C273.075 173.861 274.128 173.578 274.456 171.369C275.124 166.87 276.155 162.426 276.994 157.951C278.552 149.639 279.99 141.303 281.644 133.01C283.231 125.056 288.052 121.153 295.615 120.735C307.711 120.068 319.83 119.731 331.943 119.444C349.673 119.025 367.407 118.816 385.138 118.421C389.018 118.334 389.697 117.329 389.45 112.859C345.647 114.611 301.837 116.362 257.699 118.127C257.699 123.833 257.739 129.273 257.69 134.713C257.623 142.024 257.611 149.339 257.342 156.644C257.115 162.811 254.251 166.173 248.107 166.453C239.025 166.866 229.909 166.697 220.811 166.555C212.577 166.426 211.02 162.881 211.45 155.479C211.813 149.234 212.1 142.953 211.85 136.71C211.359 124.511 210.967 112.33 212.299 100.165C212.643 97.0225 213.775 94.1695 217.1 93.169C219.487 92.4508 222.036 91.8428 224.499 91.8867C232.298 92.0257 240.098 92.3788 247.884 92.8701C254.538 93.29 257.552 96.8395 257.501 103.569C257.484 105.724 257.681 107.881 257.789 110.213C258.86 110.213 259.664 110.228 260.468 110.211C274.294 109.925 288.129 109.873 301.941 109.284C317.452 108.623 332.94 107.419 348.443 106.556C361.188 105.847 373.941 105.302 386.689 104.658C390.901 104.446 391.298 103.82 390.029 99.7283C389.957 99.4962 389.838 99.2794 389.755 99.0502C384.854 85.4997 377.144 73.4279 369.753 61.1939C369.437 60.671 368.439 60.3115 367.754 60.3049C365.236 60.2806 362.716 60.4826 360.196 60.5183C346.622 60.711 333.048 60.8793 319 61.0661ZM105.621 218.459C106.327 209.142 106.998 199.823 107.75 190.511C108.312 183.549 108.933 176.591 109.614 169.64C110.257 163.087 111.305 156.56 111.654 149.995C112.267 138.465 112.634 126.916 112.792 115.37C112.861 110.274 112.178 105.167 111.812 100.067C111.66 97.9562 110.185 96.8297 108.398 96.3981C105.404 95.6743 102.35 94.9538 99.2905 94.7791C88.2645 94.1498 77.2359 93.3401 66.2545 95.6766C61.5356 96.6806 58.9319 98.7032 58.2494 103.145C57.9285 105.233 57.6493 107.333 57.484 109.438C56.4021 123.217 55.2913 136.994 54.3196 150.781C53.5369 161.885 52.7158 172.994 52.3307 184.115C52.061 191.9 52.5917 199.711 52.5942 207.51C52.5973 217.187 52.3839 226.863 52.3496 236.541C52.3379 239.85 52.6414 243.16 52.6972 246.472C52.7546 249.875 52.6829 253.28 52.6727 256.684C52.6675 258.4 53.2826 259.352 55.2474 259.345C67.2768 259.304 79.3067 259.305 91.3356 259.399C93.2295 259.413 93.8288 258.632 94.1368 256.948C95.6133 248.874 98.9191 241.627 104.12 235.246C104.586 234.675 104.847 233.799 104.893 233.045C105.186 228.339 105.39 223.627 105.621 218.459ZM192.442 241.022C199.755 241.265 207.068 241.508 214.382 241.753C229.005 242.241 243.627 242.763 258.253 243.198C262.037 243.311 262.085 243.194 262.664 239.493C264.149 230.011 265.585 220.522 267.051 211.037C267.754 206.486 268.479 201.939 269.25 197.039C218.091 197.286 167.251 197.869 115.984 195.913C115.304 206.015 114.622 216.131 113.937 226.312C118.769 224.579 122.995 222.911 127.322 221.574C129.545 220.887 131.938 220.663 134.275 220.453C141.373 219.813 147.519 222.613 153.307 226.217C157.855 229.05 162.507 232.011 164.687 237.231C165.78 239.85 166.894 240.815 170.039 240.682C177.331 240.375 184.658 240.856 192.442 241.022ZM44.6325 220.809C44.6325 211.495 44.6325 202.181 44.6325 192.621C33.3058 192.621 22.2308 192.621 10.9937 192.621C11.0577 193.731 11.0499 194.703 11.1781 195.657C13.1945 210.663 17.5847 225.123 21.4159 239.708C21.5784 240.327 22.6573 241.055 23.3643 241.118C25.946 241.349 28.5508 241.359 31.1474 241.38C35.2595 241.414 39.3721 241.389 43.6887 241.389C43.9801 234.694 44.2724 227.978 44.6325 220.809ZM199.858 188.047C213.352 188.328 226.847 188.562 240.34 188.907C249.199 189.133 258.053 189.525 266.91 189.833C270.507 189.958 270.816 189.726 271.591 186.19C271.882 184.86 272.053 183.503 272.354 181.708C220.58 180.77 169.082 179.836 117.38 178.899C117.211 181.673 117.075 183.895 116.929 186.284C123.866 186.528 130.51 186.833 137.158 186.979C146.263 187.18 155.372 187.24 164.478 187.396C176.109 187.595 187.739 187.829 199.858 188.047ZM109.003 11.8723C104.29 11.7542 99.5763 11.5409 94.8649 11.5883C93.7588 11.5994 91.9949 12.2218 91.6716 13.0225C89.9522 17.2801 88.595 21.6839 86.9801 26.4254C114.407 27.3864 141.4 28.3323 168.223 29.2722C165.777 25.4144 163.044 21.3983 160.635 17.197C159.157 14.6194 157.103 13.5565 154.307 13.4508C150.085 13.2911 145.863 13.0804 141.64 12.9357C130.925 12.5686 120.209 12.2261 109.003 11.8723ZM166.398 254.933C166.218 255.777 166.031 256.451 167.392 256.509C170.866 256.654 174.329 257.099 177.804 257.205C191.776 257.63 205.751 257.963 219.724 258.349C227.93 258.576 236.134 258.889 244.341 259.064C249.273 259.169 254.209 259.083 259.375 259.083C259.611 257.617 259.927 255.65 260.266 253.544C255.371 253.219 250.688 252.83 245.997 252.611C233.826 252.043 221.651 251.549 209.477 251.024C201.928 250.699 194.383 250.226 186.831 250.091C181.394 249.994 175.95 250.41 170.508 250.475C166.082 250.528 167.034 250.33 166.454 254.044C166.429 254.204 166.44 254.369 166.398 254.933ZM139.703 247.74C138.332 246.732 137.013 245.64 135.579 244.731C128.187 240.046 117.521 244.163 117.079 253.944C117.013 255.397 117.049 256.871 117.21 258.315C117.802 263.632 120.547 266.934 125.094 267.928C132.207 269.484 136.837 268.214 139.487 263.25C142.574 257.466 143.607 251.792 139.703 247.74ZM10.902 183.554C11.1072 183.67 11.31 183.883 11.5179 183.888C19.559 184.086 27.6002 184.282 35.6422 184.436C38.6241 184.493 41.608 184.445 44.6475 184.445C44.8959 181.167 45.1197 178.214 45.3491 175.185C33.9039 174.929 22.7499 174.68 11.4367 174.428C11.1988 177.506 10.9805 180.331 10.902 183.554ZM388.205 261.957C390.891 266.981 394.895 270.055 400.755 270.116C404.386 270.154 406.247 267.541 407.609 264.711C408.785 262.266 407.249 260.23 405.645 258.633C402.081 255.081 397.522 254.039 392.669 254.384C387.832 254.728 386.475 257.009 388.205 261.957ZM38.1789 252.17C34.0052 251.931 29.8315 251.692 25.3633 251.436C26.38 254.537 27.8322 257.185 30.4639 257.761C34.6691 258.681 39.0747 258.685 43.5089 259.087C43.5089 256.464 43.5089 254.404 43.5089 252.178C41.7188 252.178 40.1858 252.178 38.1789 252.17ZM459.036 232.567C458.868 232.172 458.679 231.426 458.536 231.435C456.289 231.575 454.039 231.755 451.81 232.067C451.237 232.147 450.733 232.714 450.197 233.058C450.289 233.393 450.381 233.729 450.473 234.064C453.268 233.667 456.062 233.271 459.036 232.567ZM457.369 222.056C455.322 222.536 453.274 223.016 451.227 223.496C453.818 223.921 456.29 223.94 458.762 223.915C460.525 223.896 460.589 222.985 459.783 221.544C459.123 221.673 458.427 221.809 457.369 222.056Z" fill="#FEF8DD"/>
<path d="M189.461 90.1963C195.664 91.793 195.574 96.8 195.553 101.361C195.49 114.443 195.183 127.526 194.845 140.605C194.728 145.14 194.29 149.67 193.898 154.193C193.575 157.912 189.466 162.548 185.73 162.729C177.309 163.137 168.869 163.162 160.436 163.299C158.081 163.337 155.721 163.261 153.366 163.169C147.812 162.952 144.815 159.352 145.185 153.865C145.621 147.393 145.893 140.905 146.02 134.419C146.203 125.076 146.58 115.709 146.117 106.39C145.844 100.876 147.706 96.4562 150.282 91.9859C152.134 88.7719 155.152 88.1724 158.41 88.1908C165.453 88.2308 172.503 88.2288 179.536 88.5514C182.805 88.7013 186.041 89.5684 189.461 90.1963Z" fill="#FEF8DD"/>
<path d="M309.491 73.0623C323.709 72.9293 337.699 72.85 351.688 72.6503C358.327 72.5555 363.105 75.3128 365.959 81.3202C367.878 85.3586 369.811 89.3915 371.63 93.4752C372.656 95.7786 372.101 97.7467 370.007 98.9318C368.698 99.673 367.157 100.291 365.678 100.398C358.141 100.943 350.594 101.403 343.043 101.707C328.909 102.278 314.77 102.731 300.632 103.208C298.365 103.284 296.092 103.2 293.823 103.238C289.629 103.308 287.18 100.541 284.902 97.6364C284.309 96.8802 284.019 95.6612 284.057 94.6731C284.251 89.7238 284.438 84.7641 284.942 79.8403C285.386 75.5054 287.042 73.7832 291.469 73.3792C295.99 72.9667 300.563 73.1148 305.113 73.0371C306.496 73.0135 307.88 73.0549 309.491 73.0623Z" fill="#FEF8DD"/>
<path d="M333.474 137.3C333.811 137.359 334.148 137.417 334.657 137.478C337.651 138.176 340.498 138.784 343.289 139.587C348.132 140.98 351 144.628 353.036 148.9C357.507 158.28 359.949 168.325 362.198 178.407C362.861 181.38 360.485 184.506 356.35 185.239C352.883 185.854 349.244 185.62 345.684 185.566C340.807 185.494 335.932 185.28 331.06 185.049C322.219 184.629 313.38 184.174 304.544 183.673C303.26 183.6 301.97 183.28 300.728 182.922C298.699 182.336 297.502 181.048 297.017 178.862C295.609 172.518 296.505 166.226 297.237 159.937C297.801 155.095 298.524 150.268 299.315 145.457C300.05 140.976 302.738 138.467 307.501 137.527C315.927 137.372 324.22 137.331 332.864 137.314C333.301 137.326 333.388 137.313 333.474 137.3Z" fill="#FEF8DD"/>
<path d="M317.44 192.315C319.464 192.759 322.186 192.404 322.18 194.97C322.176 197.313 319.689 198.047 317.686 198.321C312.226 199.07 306.739 199.622 301.257 200.196C300.067 200.321 298.852 200.214 297.397 200.214C297.598 198.394 297.633 196.625 298.02 194.938C298.501 192.84 300.892 191.368 303.597 191.484C308.144 191.679 312.684 192.021 317.44 192.315Z" fill="#FEF8DD"/>
<path d="M95.7756 170.917C88.3191 171.076 81.0812 171.271 73.842 171.357C70.36 171.399 67.0722 170.492 65.1891 167.347C64.1595 165.628 63.5154 163.459 63.3936 161.451C62.5648 147.79 63.0587 134.138 64.1311 120.507C64.43 116.708 64.7274 112.884 65.4268 109.147C66.2724 104.629 69.6292 102.002 74.0255 101.977C80.2763 101.942 86.5274 101.939 92.7782 101.967C102.08 102.01 106.582 107.126 105.995 116.474C105.281 127.836 104.885 139.218 104.233 150.585C103.977 155.045 103.775 159.567 102.847 163.912C102.111 167.357 100.107 170.374 95.7756 170.917Z" fill="#FEF8DD"/>
<path d="M62.9327 191.145C62.8438 192.073 62.9876 192.942 62.6334 193.485C62.2436 194.084 61.42 194.665 60.7397 194.724C60.2125 194.77 59.2886 194.113 59.1007 193.574C57.7305 189.641 56.9646 185.637 58.1776 181.478C58.9002 179.001 60.2472 178.32 64.0462 178.829C65.9803 179.087 66.4299 180.527 66.4884 182.21C66.528 183.349 66.6956 184.489 66.6516 185.623C66.5707 187.71 66.4272 189.808 63.5734 190.027C63.3422 190.045 63.1541 190.623 62.9327 191.145Z" fill="#FEF8DD"/>
</svg>
