<svg width="1196" height="550" viewBox="0 0 1196 550" fill="none" xmlns="http://www.w3.org/2000/svg">
<path d="M86.7494 501.397C87.4077 500.727 88.066 500.056 89.1266 498.929C124.424 459.912 160.206 422.211 199.216 386.472C196.784 386.013 195.509 385.655 194.212 385.544C167.353 383.26 141.323 385.367 117.643 399.994C114.957 401.654 112.155 403.143 109.338 404.574C83.0792 417.905 56.8055 431.207 30.5363 444.517C29.4588 444.962 28.3814 445.406 27.0508 446.096C20.7993 449.206 14.8135 452.099 8.79442 454.92C7.14812 455.692 5.431 456.641 3.69113 456.772C2.48432 456.862 0.507045 455.968 0.110862 455.005C-0.297833 454.011 0.495861 452.171 1.3109 451.129C2.06471 450.166 3.52325 449.731 4.70512 449.129C15.6869 443.541 26.6749 437.964 37.6638 432.39C40.5468 430.927 43.4389 429.482 46.9424 427.736C49.9875 426.158 52.417 424.873 54.8464 423.588C61.6545 420.334 68.4626 417.081 75.8631 413.555C77.4191 412.72 78.3827 412.157 79.3463 411.594C80.0325 411.326 80.7188 411.058 81.9404 410.549C83.4592 409.746 84.4426 409.185 85.426 408.623C87.4029 407.724 89.3797 406.824 91.9503 405.648C96.3262 403.467 100.109 401.561 103.891 399.656C106.682 398.385 109.472 397.115 112.887 395.561C119.319 392.521 125.206 389.914 130.892 386.925C132.798 385.923 134.19 383.945 135.817 382.414C137.276 381.457 138.735 380.501 140.826 379.303C143.975 377.566 146.491 376.069 149.008 374.572C149.008 374.572 148.941 374.556 149.281 374.503C158.623 368.365 167.653 362.318 176.619 356.178C182.178 352.372 187.64 348.426 193.454 344.433C196.663 342.073 199.564 339.822 202.762 337.464C210.042 332.072 217.108 326.894 223.987 321.48C234.42 313.268 244.769 304.948 255.067 296.567C261.765 291.115 268.268 285.424 274.932 279.929C284.374 272.143 293.884 264.439 303.649 256.554C306.021 254.523 308.11 252.638 310.123 250.719C310.047 250.686 310.172 250.796 310.467 250.642C314.232 247.229 317.701 243.97 321.007 240.644C320.844 240.577 321.162 240.733 321.448 240.574C324.738 237.404 327.742 234.393 330.979 231.276C331.401 230.894 331.591 230.618 332.075 230.195C334.301 227.881 336.231 225.713 338.396 223.427C339.066 222.769 339.501 222.231 340.231 221.524C344.294 217.376 348.063 213.397 352.128 209.268C362.248 199.305 372.072 189.492 382.16 179.549C382.92 178.823 383.417 178.228 384.212 177.475C392.636 168.75 400.76 160.184 409.177 151.453C410.198 150.446 410.928 149.603 411.912 148.582C416.922 142.707 421.73 137.053 426.425 131.306C435.57 120.111 445.089 109.185 453.635 97.5467C461.936 86.2426 469.213 74.186 477.171 62.4173C477.403 62.3749 477.796 62.1161 478.166 62.1362C479.27 62.2479 480.004 62.3395 480.901 62.7506C482.954 66.0551 484.144 70.1967 486.85 71.8311C500.956 80.3525 515.447 88.2364 530.08 96.5443C531.594 97.2904 532.831 97.8342 534.297 98.5912C536.398 99.6526 538.271 100.501 540.326 101.508C541.254 101.954 541.999 102.241 542.987 102.774C555.087 108.118 566.944 113.215 579.096 118.514C580.06 118.932 580.731 119.148 581.672 119.551C590.952 123.074 599.894 126.616 609.005 129.647C612.678 130.868 617.963 134.069 618.234 125.826C618.269 124.763 619.715 123.701 620.594 122.717C625.113 117.663 629.66 112.633 634.434 107.442C635.082 106.675 635.493 106.061 636.194 105.281C638.514 101.879 640.543 98.6427 642.652 94.9948C642.976 92.9297 643.222 91.2763 643.644 89.35C644.856 86.9779 645.893 84.8787 647.209 82.5785C649.415 80.1025 651.341 77.8275 653.426 75.5362C653.796 75.4388 653.942 75.292 654.022 75.0796C680.214 60.7662 700.029 39.348 719.242 17.1302C724.464 11.0914 730.981 6.11876 737.205 1.02428C740.115 -1.35774 742.26 0.817186 744.048 3.44643C747.776 8.9294 751.702 14.2782 755.787 20.3197C757.756 22.3934 759.485 23.8297 761.214 25.2659C763.331 27.3223 765.447 29.3787 767.945 31.9552C768.662 32.7722 768.998 33.0693 769.333 33.3663C769.534 33.3175 769.687 33.3822 770.046 33.9657C770.657 34.7214 771.015 35.0719 771.373 35.4224C771.373 35.4224 771.653 35.3676 771.861 35.731C772.638 36.5336 773.207 36.9727 773.777 37.4118C774.376 37.886 774.976 38.3602 775.82 39.3682C776.654 40.4 777.244 40.8979 777.833 41.3959C781.013 44.5978 784.192 47.7998 787.54 51.6182C786.737 53.6614 785.783 56.2974 784.792 56.3114C779.823 56.3819 777.35 60.4697 773.396 62.2894C772.687 61.259 772.219 60.401 771.622 59.2463C771.081 58.4538 770.67 57.958 770.03 57.2466C760.901 44.7207 751.999 32.4105 742.951 19.9236C742.665 20.1004 742.524 20.4538 742.384 21.2041C743.703 27.6092 744.886 33.6509 746.362 39.6206C759.966 94.6653 773.495 149.729 787.319 204.719C793.365 228.769 800.167 252.612 813.243 274.079C813.668 274.777 813.422 275.884 813.534 276.801C813.578 276.802 813.617 276.881 813.393 276.607C811.648 275.592 810.128 274.851 808.608 274.11C808.292 274.643 807.977 275.175 807.661 275.707C814.365 279.964 821.07 284.22 827.976 288.744C830.24 292.359 832.251 295.74 834.4 299.031C835.01 299.965 836.023 300.635 836.836 301.409C836.82 301.392 836.793 301.355 836.438 301.58C842.073 311.705 848.987 320.769 859.204 326.725C871.411 333.84 883.848 340.581 895.858 348.013C909.401 356.393 922.58 365.36 935.776 374.439C933.69 377.337 931.746 379.87 929.435 382.558C918.576 384.583 908.019 386.15 897.605 388.39C881.974 391.752 866.42 395.494 850.899 399.338C849.004 399.807 846.109 401.888 846.094 403.248C846.051 407.391 846.336 411.945 848.047 415.614C851.485 422.985 856.027 429.835 859.963 436.983C861.886 440.477 863.644 444.089 865.099 447.796C865.513 448.851 864.599 450.426 864.293 451.763C862.952 451.4 861.104 451.463 860.372 450.589C858.69 448.583 857.467 446.166 856.208 443.834C852.692 437.324 849.253 430.771 845.783 424.236C844.401 428.631 844.184 432.73 843.872 436.823C843.558 440.939 844.493 445.472 839.873 448.617C847.371 459.157 854.867 469.693 861.347 478.803C871.846 477.834 881.033 476.542 890.254 476.219C916.733 475.294 943.224 474.72 969.713 474.102C977.197 473.927 984.688 474.075 992.175 474.075C992.164 473.659 992.152 473.242 992.141 472.826C984.184 471.847 976.587 470.004 968.196 470.111C945.944 470.396 923.65 468.284 901.392 466.831C889.962 466.085 878.573 464.712 866.764 463.583C867.828 466.422 869.009 468.804 869.533 471.322C869.767 472.45 868.996 474.237 868.079 474.989C867.498 475.465 865.336 474.98 864.702 474.232C863.135 472.381 861.409 470.273 860.898 468.009C860.093 464.435 858.728 462.229 855.056 460.886C852.608 459.99 850.757 457.463 848.638 455.665C850.687 454.487 851.992 454.387 853.276 454.502C869.528 455.953 885.768 457.536 902.028 458.885C921.944 460.537 941.876 461.999 962.172 463.696C972.785 464.328 983.031 464.746 993.27 465.299C1020.11 466.749 1046.96 468.257 1074.03 470.01C1077.13 470.275 1079.99 470.274 1083.27 470.253C1085.05 470.37 1086.43 470.506 1088.01 470.913C1089.57 471.769 1091.34 472.023 1092.12 473.042C1092.74 473.845 1092.11 476.751 1092.05 476.75C1087.17 476.716 1082.28 476.626 1077.42 476.185C1076.02 476.059 1074.73 474.878 1073.38 474.18C1073.19 475.885 1073 477.591 1072.8 479.296C1064.05 479.917 1055.31 480.801 1046.55 481.078C1039.13 481.313 1031.68 480.624 1024.24 480.738C1011.05 480.941 997.854 481.442 983.793 481.87C980.552 482.104 978.177 482.286 975.802 482.468C971.726 482.523 967.65 482.578 962.718 482.661C956.174 482.935 950.488 483.181 944.802 483.427C943.408 483.418 942.014 483.409 939.757 483.425C934.813 483.66 930.733 483.871 926.256 483.983C924.507 484.005 923.155 484.125 921.342 484.155C909.563 484.33 898.247 484.634 886.929 484.845C879.301 484.987 871.513 486.942 863.508 482.094C874.453 498.169 884.744 513.284 895.131 528.722C898.413 534.832 901.599 540.62 904.784 546.408C901.733 551.267 899.814 550.979 894.854 544.355C892.71 540.955 890.817 538.158 888.843 535.055C888.127 533.923 887.491 533.097 886.793 531.995C886.381 531.285 886.032 530.85 885.58 530.098C883.922 527.65 882.365 525.518 880.711 523.061C878.683 519.955 876.754 517.176 874.758 514.094C874.073 512.98 873.454 512.169 872.816 511.377C872.796 511.396 872.847 511.379 872.778 511.076C872.082 509.962 871.455 509.151 870.797 508.121C870.669 507.602 870.476 507.388 870.076 506.927C868.267 504.471 866.57 502.348 864.773 499.895C861.506 494.201 858.339 488.837 855.962 484.813C846.816 485.487 838.827 486.076 830.255 486.707C830.985 488.86 831.734 490.839 832.327 492.863C834.098 498.911 836.079 504.92 837.363 511.073C837.709 512.732 835.87 514.848 835.033 516.754C833.636 515.423 831.596 514.346 830.952 512.718C828.266 505.919 825.999 498.954 823.527 491.664C822.809 489.452 822.143 487.626 821.888 486.927C812.807 486.927 804.439 486.927 795.658 486.836C787.765 486.786 780.285 486.827 772.472 486.792C771.687 486.766 771.236 486.816 770.326 486.786C764.846 486.698 759.825 486.69 754.35 486.601C750.197 486.52 746.499 486.52 742.341 486.444C737.522 486.412 733.162 486.456 728.432 486.416C727.308 486.375 726.555 486.417 725.339 486.375C707.854 486.093 690.832 485.895 673.385 485.621C671.238 485.599 669.517 485.652 667.467 485.634C666.695 485.605 666.251 485.646 665.349 485.609C660.524 485.57 656.159 485.611 651.333 485.568C635.85 485.278 620.829 485.072 605.386 484.781C603.245 484.702 601.526 484.709 599.384 484.636C597.24 484.571 595.519 484.585 593.336 484.525C580.852 484.263 568.831 484.075 556.48 483.808C555.702 483.77 555.254 483.812 554.345 483.763C548.19 483.609 542.497 483.547 536.409 483.394C534.943 483.348 533.872 483.392 532.347 483.348C522.197 483.035 512.501 482.81 502.354 482.496C495.084 481.637 487.651 483.41 481.641 477.958C484.402 473.843 488.241 474.379 491.798 474.432C536.242 475.105 580.685 475.876 625.13 476.51C638.411 476.699 651.698 476.539 663.7 476.539C665.158 473.334 666.217 470.041 668.017 467.221C675.161 456.025 682.537 444.977 690.387 433.022C679.9 421.132 669.244 409.131 658.751 396.989C657.969 396.085 658.026 392.969 658.242 392.91C662.081 391.874 665.98 390.964 669.921 390.437C672.104 390.144 674.388 390.61 676.627 390.725C679.159 390.856 681.694 391.121 684.223 391.067C688.272 390.981 692.397 389.414 696.288 391.869C696.417 391.951 696.833 391.436 697.13 391.414C699.105 391.266 701.084 391.105 703.062 391.083C707.527 391.034 712.009 391.269 716.446 390.915C717.562 390.826 718.74 389.076 719.516 387.853C720.296 386.623 720.545 385.069 721.142 383.707C727.533 369.131 733.947 354.564 740.479 339.712C737.373 336.891 734.107 333.926 730.814 330.936C720.641 340.855 709.628 347.81 695.568 345.164C688.412 343.818 681.709 340.071 674.676 337.266C674.411 337.263 674.27 337.405 674.129 337.547C674.327 337.564 674.525 337.581 674.56 337.939C678.604 346.408 682.972 354.459 686.968 362.69C690.161 369.267 692.985 376.03 695.759 382.798C696.219 383.918 695.585 385.486 695.456 386.847C693.904 386.689 691.891 387.09 690.891 386.264C688.373 384.185 685.876 381.826 684.166 379.083C681.176 374.29 678.665 369.183 676.162 364.104C668.877 349.322 661.301 334.666 654.6 319.621C649.256 307.621 645.034 295.12 640.285 282.854C640.085 282.337 639.586 281.936 638.864 281.021C638.429 333.556 640.801 385.443 637.305 436.324C649.506 436.969 661.589 437.517 673.655 438.333C675.705 438.471 677.677 439.757 679.686 440.512C679.695 441.147 679.705 441.782 679.715 442.418C676.885 443.387 674.074 445.126 671.223 445.195C658.403 445.505 645.57 445.4 632.743 445.306C629.662 445.283 628.527 443.558 628.904 440.312C629.499 435.19 629.839 430.013 629.879 424.857C630.253 377.532 630.503 330.206 630.894 282.881C630.943 276.896 630.775 270.705 632.234 265.001C633.409 260.411 632.425 256.653 631.405 252.532C630.598 249.273 630.113 245.934 629.486 242.63C630.128 242.275 630.77 241.919 631.412 241.564C633.324 243.783 635.746 245.741 637.039 248.275C639.605 253.305 641.586 258.637 643.74 263.872C649.571 278.04 655.099 292.34 661.251 306.366C667.443 320.485 678.17 330.023 692.8 335.022C694.653 335.656 696.708 336.301 698.596 336.13C708.304 335.25 717.346 332.281 725.742 326.792C677.408 281.182 629.241 235.729 581.091 190.293C578.9 193.998 576.88 198.022 574.312 201.659C553.031 231.789 529.221 259.836 504.198 286.904C501.185 290.163 499.597 294.738 497.349 298.704C498.02 299.154 498.692 299.604 499.364 300.055C524.363 269.846 549.362 239.637 574.36 209.428C574.775 209.722 575.19 210.015 575.605 210.309C571.305 216.679 567.312 223.285 562.645 229.374C551.193 244.317 539.62 259.177 527.732 273.774C518.266 285.398 508.296 296.612 498.479 307.947C495.096 311.854 491.502 315.578 488.165 319.21C493.288 323.532 497.434 327.062 501.617 330.55C507.116 335.134 513.1 337.371 519.983 333.754C524.841 331.2 529.835 328.786 534.325 325.67C549.343 315.249 560.277 301.249 567.612 284.676C577.184 263.054 586.094 241.139 595.33 219.367C596.384 216.884 597.705 214.514 598.903 212.091C599.428 212.142 599.953 212.192 600.478 212.242C601.015 213.795 602.112 215.397 601.984 216.894C601.603 221.34 601.506 226.04 599.935 230.115C593.054 247.965 585.954 265.742 578.392 283.312C574.651 292.005 569.663 300.156 565.4 308.634C564.296 310.829 562.418 314.256 563.27 315.53C566.729 320.7 563.659 324.939 561.798 328.87C547.337 359.418 532.729 389.9 517.707 420.174C514.624 426.386 509.606 431.636 506.123 436.442C503.929 434.814 502.258 433.574 500.862 432.538C519.994 394.27 539.042 356.169 558.09 318.068C557.667 317.818 557.244 317.568 556.821 317.319C556.311 317.867 555.844 318.464 555.285 318.955C547.558 325.753 540.328 333.261 531.961 339.152C519.535 347.9 504.452 345.742 493.786 334.903C491.013 332.084 488.431 329.078 484.671 324.967C483.504 329.539 482.043 333.161 481.753 336.875C481.273 343.007 481.436 349.199 481.535 355.363C481.665 363.511 482.014 371.655 482.228 379.802C482.298 382.483 482.239 385.167 482.239 388.311C489.361 388.835 496.804 389.278 504.216 390.026C505.549 390.161 506.754 391.557 508.018 392.371C506.921 393.417 505.989 394.967 504.688 395.397C502.527 396.11 500.135 396.255 497.827 396.365C494.719 396.513 491.598 396.402 487.946 396.402C488.981 401.347 489.862 405.558 490.855 410.094C491.551 412.406 492.135 414.392 492.831 416.75C493.505 419.204 494.057 421.287 494.63 423.364C498.506 437.42 502.397 451.472 506.257 465.532C507.076 468.517 507.562 471.442 503.515 472.704C501.634 470.494 499.852 468.401 498.14 466.082C498.211 465.857 498.009 465.43 498.031 465.025C497.255 461.546 496.456 458.473 495.676 455.008C490.788 435.695 485.882 416.775 480.816 397.237C480.816 415.864 480.816 433.956 480.774 452.412C481.025 453.099 481.318 453.422 481.252 453.862C480.837 454.463 480.781 454.946 480.622 455.887C480.405 468.035 480.291 479.726 480.093 491.879C479.589 499.831 479.168 507.322 478.564 514.944C478.161 515.457 477.941 515.839 477.444 516.302C476.713 516.725 476.258 517.066 475.459 517.371C474.008 517.04 472.9 516.746 471.613 516.068C471.128 512.06 470.645 508.438 470.554 504.807C470.333 496.008 470.295 487.205 470.262 477.94C470.468 476.153 470.697 474.831 470.71 473.508C470.93 452.183 471.131 430.859 471.314 409.534C471.358 404.3 471.32 399.065 471.32 394.582C465.93 394.97 460.736 395.344 455.68 395.708C452.889 404.216 450.749 413.012 447.134 421.153C443.249 429.9 448.833 436.633 449.296 444.025C454.205 443.658 458.153 443.082 462.078 443.207C463.648 443.257 465.168 444.851 466.711 445.742C465.2 446.753 463.701 448.587 462.174 448.612C458.272 448.675 454.356 447.932 450.023 447.465C451.797 454.374 453.548 461.188 455.304 468.027C448.281 469.341 447.468 468.821 445.801 461.677C443.416 451.459 441.178 441.208 438.828 430.982C437.958 427.196 436.951 423.442 435.854 419.07C430.88 428.838 426.33 437.771 421.641 446.978C423.491 447.124 424.583 447.21 425.675 447.297C423.284 449.478 419.742 450.161 418.393 452.256C414.389 458.475 411.248 465.25 407.525 472.272C409.164 472.346 410.257 472.407 411.35 472.443C427.936 472.996 444.532 473.374 461.099 474.272C463.672 474.412 466.117 476.925 468.281 478.474C466.286 479.244 464.652 480.365 462.975 480.433C455.921 480.719 448.853 480.69 441.329 480.692C429.464 479.983 418.062 479.297 406.652 478.823C405.525 478.776 403.819 479.732 403.27 480.718C398.919 488.525 394.784 496.453 390.325 504.555C388.544 507.598 387.02 510.429 385.238 513.445C383.525 513.74 381.673 514.425 380.739 513.781C379.968 513.248 379.973 511.093 380.192 509.748C380.476 507.995 381.311 506.332 382.159 504.383C387.04 495.233 391.67 486.33 396.202 477.618C391.912 478.01 387.727 478.392 383.381 478.716C383.221 478.659 382.897 478.767 382.518 478.684C380.026 478.569 377.914 478.538 375.434 478.41C374.312 478.34 373.557 478.368 372.383 478.31C367.619 478.117 363.274 478.01 358.531 477.825C357.327 477.781 356.52 477.814 355.511 477.777C355.31 477.707 354.894 477.803 354.427 477.714C345.236 477.44 336.512 477.254 327.342 476.921C321.297 476.673 315.699 476.573 309.771 476.379C306.562 476.077 303.682 475.869 300.409 475.575C298.944 475.48 297.873 475.471 296.42 475.328C293.344 474.77 290.649 474.345 287.639 473.757C286.15 473.498 284.977 473.403 283.524 473.138C281.961 472.731 280.677 472.493 279.255 472.012C279.051 470.757 278.985 469.746 279.353 468.615C292.77 468.315 305.757 468.304 318.731 467.884C325.183 467.676 331.618 466.777 338.042 466.034C339.057 465.917 340.047 465.062 340.926 464.388C344.727 461.474 348.332 458.274 352.311 455.635C354.646 454.086 355.796 452.689 355.629 449.695C354.807 434.921 354.257 420.131 353.571 405.349C353.527 404.413 353.429 402.976 352.856 402.649C348.925 400.406 345.073 397.431 340.8 396.495C328.105 393.713 317.614 401.617 306.464 405.389C298.163 408.198 291.071 414.527 283.368 419.167C254.853 436.343 226.349 453.539 197.681 470.458C195.79 471.575 191.554 471.469 190.197 470.126C187.91 467.862 190.487 465.719 192.764 464.405C221.611 447.763 250.559 431.292 279.275 414.427C290.574 407.791 303.694 404.099 312.479 393.227C316.452 388.311 321.836 384.536 326.58 380.244C326.376 379.836 326.171 379.427 325.967 379.019C322.453 380.235 318.963 381.524 315.417 382.638C313.567 383.218 311.099 384.43 309.815 383.72C306.087 381.658 303.129 383.266 299.897 384.516C289.649 388.479 279.452 392.593 269.09 396.237C262.26 398.638 255.433 398.635 248.17 396.445C237.199 393.136 225.727 391.518 214.675 388.438C206.207 386.078 200.174 387.792 196.382 395.951C196.366 395.954 196.373 395.987 196.092 396.166C192.753 400.011 189.695 403.677 186.344 407.508C184.351 409.591 182.651 411.509 180.692 413.559C177.34 417.304 174.382 421.044 171.13 424.507C152.037 444.835 132.875 465.098 113.445 485.529C111.278 487.732 109.404 489.789 107.241 492.035C103.68 495.689 100.409 499.154 96.8812 502.812C95.3504 504.472 94.0768 505.938 92.5072 507.563C88.5343 509.991 87.6116 515.997 81.6365 515.104C81.5856 512.586 81.1491 510.11 81.9755 508.173C83.0357 505.688 85.1113 503.636 86.7494 501.397ZM689.157 62.3814C688.854 62.5557 688.647 62.8084 687.916 63.4112C677.96 72.2351 664.435 76.2461 655.287 86.8952C656.95 87.7977 657.995 88.3646 659.814 89.3521C655.227 95.5811 650.929 101.416 646.201 107.5C646.539 107.609 646.877 107.718 647.813 107.527C663.11 94.3287 677.234 80.0037 689.989 63.7003C690.24 63.4849 690.418 63.2203 690.69 62.446C690.337 62.3733 689.984 62.3005 689.157 62.3814ZM448.233 397.229C448.146 396.933 448.058 396.637 447.971 396.341C447.939 396.725 447.906 397.109 447.43 397.31C447.384 397.565 447.338 397.82 447.292 398.074C447.462 397.85 447.632 397.626 448.233 397.229ZM461.758 327.263C462.105 328.648 462.452 330.034 461.881 331.623C451.66 331.194 441.438 330.765 430.819 330.318C430.888 331.43 430.984 332.969 431.085 334.572C443.557 335.507 455.591 336.41 468.335 337.13C469.735 335.444 472.227 333.829 472.343 332.059C472.843 324.457 472.644 316.809 472.558 308.383C472.667 289.563 472.638 270.741 472.913 251.923C473.589 205.615 474.474 159.31 475.088 113.001C475.181 105.987 474.273 98.9607 473.758 90.8346C472.479 92.409 471.945 92.979 471.509 93.616C451.677 122.576 428.929 149.172 404.433 174.186C382.294 196.793 359.153 218.417 336.51 240.532C287.035 288.855 233.366 332.034 176.441 371.23C175.411 371.939 174.463 372.767 173.349 373.64C173.86 373.924 173.994 374.065 174.128 374.064C203.415 374.004 231.764 379.098 259.201 389.369C260.538 389.87 262.418 389.642 263.819 389.132C271.799 386.226 279.606 382.812 287.668 380.166C304.363 374.687 320.023 367.625 333.824 356.307C361.64 333.495 389.804 311.099 418.063 288.833C434.003 276.274 450.407 264.304 466.642 252.12C467.692 251.332 469.081 250.995 470.312 250.448C470.649 250.805 470.985 251.162 471.321 251.518C470.601 252.792 470.138 254.338 469.122 255.296C459.801 264.081 450.732 273.18 440.931 281.402C409.542 307.733 377.901 333.763 346.281 359.817C341.487 363.768 336.29 367.23 331.097 371.054C339.429 375.258 339.795 376.124 336.207 383.54C336.567 383.767 336.927 383.994 338.045 384.123C356.16 377.792 374.439 372.219 393.605 369.838C397.831 369.313 401.923 366.98 405.853 365.028C409.568 363.182 412.918 360.614 416.576 358.636C417.823 357.961 419.519 358.115 421.009 357.891C420.527 359.309 420.44 361.109 419.499 362.086C410.898 371.014 401.229 377.667 388.303 379.289C378.491 380.52 368.89 383.435 359.349 385.566C360.23 389.778 361.24 393.122 361.581 396.534C362.409 404.812 363.317 413.114 363.473 421.42C363.692 433.195 366.425 445.386 358.606 456.658C360.412 456.457 361.709 456.425 362.954 456.158C372.555 454.099 382.12 451.867 391.749 449.954C397.119 448.887 403.444 449.745 407.773 447.137C412.076 444.543 414.416 438.694 417.622 434.277C417.916 433.873 418.296 433.528 418.561 433.108C423.435 425.399 428.39 417.739 433.075 409.916C433.9 408.539 433.991 406.412 433.729 404.74C429.895 380.242 425.827 355.78 422.103 331.265C421.182 325.204 421.038 318.986 421.078 312.843C421.089 311.136 423.039 309.441 424.099 307.74C425.64 308.903 427.215 310.025 428.702 311.253C429.15 311.622 429.357 312.282 429.453 312.442C433.89 312.675 437.873 312.883 441.873 313.938C441.678 317.389 443.641 318.216 446.7 318.443C448.764 318.596 450.76 319.672 451.888 320.442C444.651 319.992 437.414 319.542 429.976 319.079C429.976 321.055 429.976 322.933 429.976 324.783C440.929 325.457 451.52 326.109 461.758 327.263ZM804.837 410.019C804.633 409.894 804.43 409.769 804.226 409.643C804.343 409.974 804.46 410.305 804.496 411.427C808.72 424.494 812.945 437.562 816.859 449.669C823.093 450.813 828.246 451.759 833.798 452.779C826.597 442.108 819.577 431.66 812.503 421.248C810.011 417.581 807.388 414.003 804.837 410.019ZM850.72 479.059C850.801 478.792 850.883 478.525 850.848 477.575C846.169 470.733 841.49 463.891 837.713 458.368C831.284 458.368 826.074 458.368 819.931 458.368C822.383 465.261 824.448 471.351 826.809 477.324C827.091 478.035 828.978 478.392 830.136 478.429C836.886 478.646 843.642 478.719 850.72 479.059ZM440.037 388.84C443.827 388.611 445.682 386.361 447.244 383.027C451.194 374.594 455.509 366.328 459.822 358.07C462.322 353.283 465.102 348.641 467.866 343.737C455.489 342.931 443.796 342.169 431.587 341.373C432.622 347.079 433.688 352.115 434.424 357.199C435.92 367.536 437.236 377.898 438.29 388.502C438.626 388.669 438.963 388.837 440.037 388.84ZM837.918 444.804C838.093 444.738 838.268 444.673 838.443 444.607C838.2 444.573 837.957 444.538 837.885 443.566C838.172 434.443 838.043 425.284 838.863 416.21C839.663 407.366 837.281 400.399 829.79 395.409C827.439 393.842 825.142 392.188 822.74 390.704C813.386 384.926 803.229 381.33 791.233 379.013C797.086 384.671 798.755 391.472 804.043 396.554C810.334 402.602 813.956 411.364 819.073 418.714C825.125 427.407 831.539 435.849 837.918 444.804ZM801.867 271.139C802.03 270.729 802.193 270.32 802.033 269.308C797.365 259.594 792.012 250.14 788.219 240.096C784.292 229.695 781.686 218.774 778.836 207.992C764.412 153.415 750.869 98.6322 740.689 43.0698C739.059 34.1749 737.062 25.3473 734.996 15.3287C732.702 18.8346 731.151 21.361 729.449 23.7814C718.917 38.7563 708.819 54.0656 697.69 68.5837C680.27 91.3074 659.927 111.19 636.342 127.579C632.663 130.135 629.221 133.823 623.775 131.79C622.941 131.478 621.457 132.904 619.644 133.859C623.666 137.2 626.882 140.083 630.309 142.686C670.358 173.11 710.353 203.604 750.55 233.831C767.305 246.43 784.507 258.435 801.867 271.139ZM523.894 203.997C536.246 192.478 548.599 180.959 560.789 169.591C535.462 143.09 510.264 116.724 484.29 89.5464C483.517 166.956 482.752 243.438 481.988 319.919C482.337 320.002 482.686 320.085 483.036 320.167C487.899 311.887 492.763 303.606 497.626 295.325C497.251 295.029 496.875 294.732 496.5 294.435C492.597 297.768 488.694 301.102 484.791 304.435C484.185 303.969 483.58 303.503 482.974 303.037C484.649 299.829 485.912 296.3 488.097 293.489C491.356 289.298 495.39 285.72 498.878 281.693C512.401 266.083 525.675 250.254 539.354 234.784C552.926 219.435 562.949 201.086 578.55 188.312C573.921 183.541 569.228 178.704 564.763 174.101C553.637 184.868 542.62 195.966 531.12 206.537C519.229 217.467 506.935 227.962 494.657 238.46C492.372 240.415 489.329 241.482 486.635 242.958C486.177 242.307 485.718 241.655 485.259 241.003C495.992 226.857 510.946 216.933 523.894 203.997ZM782.301 477.495C794.401 477.495 806.501 477.495 818.898 477.495C817.435 472.843 815.565 467.555 814.153 462.147C813.386 459.206 812.139 457.66 809.007 457.027C806.684 456.558 804.604 454.883 802.416 453.745C802.523 453.289 802.631 452.832 802.738 452.376C805.002 451.538 807.267 450.7 810.167 449.626C804.681 433.054 799.246 416.635 793.556 399.446C792.549 400.808 792.204 401.06 792.225 401.276C793.975 419.276 795.772 437.271 797.514 455.272C797.821 458.453 795.605 460.16 792.95 459.059C789.532 457.641 786.087 456.282 782.613 455.009C764.1 448.228 745.068 444.69 725.306 446.45C721.464 446.792 719.348 445.219 717.739 442.195C716.879 440.578 716.255 438.8 715.198 437.329C712.447 433.5 713.573 430.616 717.642 427.621C719.092 430.564 720.206 433.492 721.915 436.016C722.789 437.307 724.8 438.752 726.177 438.641C745.853 437.058 765.127 438.352 783.678 445.745C784.962 446.257 786.317 446.593 787.644 447.012C785.923 425.335 784.233 404.051 782.543 382.766C783.267 382.448 783.99 382.13 784.714 381.812C785.217 382.869 785.72 383.926 786.223 384.983C785.995 380.376 760.484 355.824 752.061 351.241C738.943 380.402 728.052 410.765 706.082 435.356C716.549 448.522 726.859 461.49 737.28 474.597C735.528 475.424 734.546 475.887 733.565 476.35C733.633 476.732 733.701 477.113 733.769 477.494C749.613 477.494 765.457 477.494 782.301 477.495ZM687.177 461.292C683.921 466.434 680.665 471.576 677.018 477.334C693.502 477.334 709.277 477.334 725.301 477.334C716.342 466.343 707.605 455.624 698.406 444.337C694.512 450.222 691.049 455.458 687.177 461.292ZM403.064 456.486C387.029 459.16 370.98 461.761 354.968 464.57C351.655 465.151 348.478 466.509 345.238 467.509C345.36 468.034 345.481 468.559 345.603 469.084C347.346 469.251 349.086 469.466 350.832 469.577C366.087 470.543 381.34 471.533 396.602 472.367C397.839 472.434 399.738 471.749 400.305 470.801C403.334 465.736 406.036 460.475 409.392 454.286C406.823 455.206 405.318 455.745 403.064 456.486ZM452.583 387.259C458.8 387.667 465.018 388.074 471.72 388.513C471.72 375.694 471.72 362.867 471.72 348.483C464.836 362.031 458.619 374.269 452.583 387.259ZM704.453 412.586C706.305 409.734 708.156 406.882 710.191 403.747C700.525 403.747 691.504 403.747 682.2 403.747C687.482 410.551 692.404 416.89 697.647 423.642C699.929 419.92 701.992 416.557 704.453 412.586ZM446.557 401.08C446.552 400.761 446.569 400.44 446.532 400.125C446.517 400.002 446.315 399.791 446.312 399.793C443.382 401.714 440.755 409.171 442.131 412.283C443.561 408.629 444.91 405.18 446.557 401.08Z" fill="#FEF8DD"/>
<path d="M773.637 62.4614C777.351 60.4693 779.823 56.3815 784.792 56.3111C785.784 56.297 786.737 53.6611 787.755 51.8848C795.769 55.5211 800.563 61.7855 802.12 70.6668C802.548 73.1085 803.558 75.8518 805.203 77.6166C835.518 110.146 865.487 143.018 896.516 174.856C934.533 213.864 972.787 252.757 1015 287.302C1048.24 314.508 1082.58 340.381 1116.6 367.148C1116.77 367.449 1116.71 367.52 1116.37 367.469C1112.18 365.932 1110.67 369.37 1108.91 371.35C1108.19 372.161 1109.68 374.77 1109.87 376.592C1110.13 379.092 1110.12 381.621 1109.89 384.021C1105.31 381.466 1101.32 377.784 1096.75 376.811C1078.88 373.002 1060.84 369.966 1042.83 366.816C1035.17 365.477 1027.43 364.567 1019.8 363.36C1019.86 363.258 1019.52 363.204 1019.52 363.204C1019.52 363.204 1019.85 363.368 1019.87 363.709C1024.73 368.617 1029.57 373.185 1034.42 377.753C1034.03 378.521 1033.64 379.288 1033.25 380.056C1031.27 379.682 1028.83 379.912 1027.38 378.824C1022.66 375.278 1018.3 371.252 1013.71 367.181C1013.43 366.663 1013.16 366.477 1012.7 366.131C1011.99 365.358 1011.41 364.849 1010.99 364.051C1012.13 363.322 1013.11 362.884 1015.27 361.91C1012.01 361.238 1009.97 360.773 1007.92 360.406C1001.04 359.176 994.017 358.483 987.289 356.685C957.065 348.612 926.799 340.649 896.793 331.816C875.026 325.409 854.046 316.911 836.794 301.355C836.794 301.355 836.821 301.392 836.837 301.024C836.859 299.123 833.379 296.837 838.052 296.502C848.802 302.476 858.846 309.361 869.887 313.726C908.686 329.066 949.012 339.416 989.711 348.335C991.056 348.63 992.48 348.558 993.867 348.657C994.283 348.101 994.698 347.544 995.113 346.988C993.934 346.395 992.49 346.062 991.614 345.171C975.392 328.684 958.288 312.944 943.277 295.414C915.664 263.166 889.567 229.625 862.33 197.049C827.62 155.535 795.79 112.21 773.637 62.4614ZM799.874 96.8304C812.719 115.858 824.664 135.577 838.616 153.755C860.313 182.025 883.098 209.478 905.938 236.847C928.449 263.822 951.402 290.436 974.575 316.846C983.458 326.97 993.519 336.057 1002.94 345.719C1003.99 346.801 1004.36 348.552 1005.53 351.001C1037.83 357.07 1071.62 363.417 1105.06 369.699C987.263 285.207 884.738 183.685 788.047 75.4763C791.874 82.3795 795.7 89.2827 799.874 96.8304ZM785.467 66.7809C784.962 66.5868 784.458 66.3927 783.953 66.1986C784.292 67.3506 784.63 68.5025 784.969 69.6544C785.285 69.5594 785.601 69.4644 785.917 69.3694C785.86 68.754 785.803 68.1386 785.467 66.7809ZM788.434 74.7877C788.241 73.8862 788.049 72.9848 787.856 72.0833C787.532 72.1746 787.208 72.2657 786.883 72.357C787.14 73.0416 787.397 73.7261 788.434 74.7877ZM995.195 348.741L995.042 348.967C995.042 348.967 995.326 348.953 995.195 348.741ZM786.296 70.4689C786.219 70.6848 786.143 70.9007 786.066 71.1167C786.281 71.0496 786.496 70.9825 786.296 70.4689Z" fill="#FEF8DD"/>
<path d="M1073.26 479.351C1073 477.59 1073.19 475.885 1073.38 474.18C1074.73 474.877 1076.02 476.059 1077.42 476.185C1082.28 476.625 1087.17 476.716 1092.05 476.75C1092.11 476.751 1092.74 473.844 1092.12 473.042C1091.34 472.023 1089.57 471.768 1088.47 470.853C1098.98 470.94 1109.24 471.358 1120.23 471.805C1118.41 470.513 1116.28 468.202 1115.51 468.589C1111.79 470.442 1111.35 467.283 1109.92 465.587C1108.45 463.85 1107.18 461.905 1105.52 460.38C1102.47 457.574 1098.96 455.246 1096.07 452.301C1085.96 442.023 1076.04 431.565 1065.96 420.942C1065.61 420.515 1065.35 420.322 1064.99 419.897C1064.71 419.371 1064.45 419.18 1064.01 418.863C1063.72 418.35 1063.45 418.167 1063.01 417.859C1062.72 417.35 1062.46 417.17 1062.02 416.867C1061.73 416.355 1061.46 416.172 1061.03 415.857C1060.67 415.423 1060.41 415.221 1060.01 414.721C1056.33 410.091 1052.8 405.759 1049.37 401.119C1049.55 400.61 1049.63 400.409 1050.03 400.366C1055.14 404.306 1060.4 407.625 1064.62 411.955C1078.4 426.093 1091.4 441.027 1107.64 452.865C1107.85 452.747 1107.93 452.475 1108.02 451.793C1105 433.732 1105.33 416.16 1108.58 398.29C1108.72 398.336 1108.11 398.004 1107.48 397.945C1085.62 395.898 1063.76 393.876 1041.51 391.754C1038.36 391.649 1035.59 391.64 1032.46 391.53C1031.32 391.46 1030.55 391.49 1029.4 391.428C1026.94 391.06 1024.87 390.785 1022.69 390.257C1021.65 390.119 1020.73 390.233 1019.35 390.416C1002.84 389.233 986.792 387.981 970.818 386.734C971.151 389.853 971.447 392.63 971.455 395.582C967.541 399.164 966.456 403.326 966.693 408.258C966.871 411.966 966.058 415.723 965.586 419.06C965.562 407.993 965.637 397.325 965.721 385.455C954.638 384.513 942.22 383.457 929.802 382.401C931.746 379.869 933.69 377.337 936.236 374.445C947.733 375.046 958.629 376.018 969.527 376.965C979.595 377.841 989.665 378.69 999.78 379.704C999.825 379.855 999.915 380.16 999.742 380.392C999.585 381.426 999.602 382.229 999.62 383.031C1000.68 382.135 1001.74 381.239 1003.15 380.262C1004.7 380.155 1005.91 380.129 1007.45 380.221C1008.77 380.334 1009.74 380.327 1011 380.423C1012.49 380.763 1013.68 381 1014.54 381.437C1011.8 382.154 1009.39 382.671 1006.98 383.189C1007.11 383.872 1007.24 384.556 1007.37 385.239C1011 384.436 1014.62 383.633 1018.25 382.83C1018.11 382.382 1017.96 381.934 1018.24 381.432C1021.4 381.645 1024.14 381.912 1026.67 382.44C1024.41 385.204 1025.36 386.892 1028.28 388.836C1028.88 386.278 1029.34 384.304 1030.25 382.223C1039.76 383.151 1048.82 384.187 1057.55 385.425C1054.62 385.606 1052 385.406 1049.42 385.648C1048.32 385.751 1047.31 386.775 1046.25 387.381C1046.79 388.268 1047.13 389.584 1047.91 389.961C1050.08 391.004 1059.02 387.754 1061.22 385.492C1068.7 386.422 1075.75 387.388 1082.89 388.556C1083.58 388.694 1084.19 388.628 1085.17 388.526C1086.95 388.776 1088.38 389.062 1089.89 389.552C1090.58 389.681 1091.19 389.607 1092.22 389.489C1104.28 391.222 1115.94 393 1128.63 394.936C1123.36 391.805 1119 389.219 1115.03 386.632C1118.79 387.109 1122.15 387.794 1125.54 387.98C1127.39 388.081 1130.62 387.772 1130.91 386.89C1131.69 384.485 1131.38 381.67 1131.22 379.034C1131.17 378.172 1130.25 377.363 1129.76 376.478C1129.79 376.426 1129.87 376.323 1129.87 376.323C1135.82 379.578 1141.82 382.749 1147.68 386.166C1148.7 386.76 1149.11 388.391 1149.81 389.542C1148.48 390.233 1147.14 391.528 1145.83 391.484C1143.27 391.399 1140.74 390.57 1138.06 390.457C1147.62 399.777 1159.3 405.497 1171.41 411.088C1172.5 411.605 1173.27 412.061 1174.55 412.818C1175.6 413.342 1176.13 413.564 1176.67 413.786C1179.07 415.201 1181.48 416.616 1184.45 418.351C1187.59 420.201 1190.48 421.391 1192.63 423.38C1194.14 424.773 1194.64 427.257 1195.59 429.254C1193.52 429.448 1191.43 429.889 1189.38 429.741C1188.15 429.652 1186.95 428.71 1185.81 428.033C1177.21 422.95 1168.65 417.8 1160.04 412.745C1153.97 409.186 1148.98 402.906 1140.64 404.943C1140.21 405.047 1139.68 404.698 1139.2 404.593C1131.13 402.859 1123.07 401.13 1114.58 399.31C1114.93 402.2 1115.75 404.561 1115.36 406.702C1114.39 412.072 1117.64 413.537 1121.6 415.669C1131.66 421.079 1141.34 427.194 1150.87 433.124C1149.95 433.765 1149.33 434.309 1148.71 434.854C1149.03 435.107 1149.35 435.36 1149.66 435.612C1150.18 434.762 1150.69 433.911 1151.56 433.108C1161.68 439.659 1171.46 446.162 1181.24 452.665C1181.09 454.655 1180.94 456.645 1180.43 458.916C1180.08 459.197 1179.8 459.419 1179.43 459.364C1175.34 457.323 1171.64 455.338 1167.74 453.102C1166.64 452.369 1165.72 451.887 1164.57 451.166C1160.89 448.723 1157.44 446.518 1153.84 444.093C1153.37 443.724 1153.05 443.575 1152.63 443.261C1152.35 442.888 1152.13 442.775 1151.59 442.517C1148.15 440.101 1144.98 437.924 1141.61 435.534C1140.27 434.559 1139.12 433.797 1137.78 432.775C1130.42 426.722 1123.26 420.929 1115.77 414.873C1115.43 416.248 1115.16 417.328 1114.51 418.37C1112.4 417.968 1110.67 417.603 1108.06 417.057C1108.06 423.039 1107.91 428.577 1108.21 434.092C1108.26 434.979 1110.23 436.272 1111.42 436.392C1112.1 436.46 1113.49 434.62 1113.67 433.496C1114.32 429.469 1114.59 425.381 1115.14 421.71C1115.46 430.206 1115.66 438.306 1115.51 446.464C1113.44 447.874 1111.71 449.227 1108.88 451.445C1112.3 452.406 1114.08 452.906 1115.96 453.816C1115.36 458.883 1117.47 461.952 1121.32 464.382C1124.75 466.544 1127.9 469.167 1131.39 471.869C1136.77 475.898 1142.22 479.328 1147.01 483.509C1150.14 486.244 1152.32 490.068 1154.7 493.71C1152.18 496.901 1149.86 495.744 1147.61 493.999C1140 488.086 1132.41 482.14 1125.15 476.464C1122.71 477.479 1120.75 478.292 1118.79 479.106C1115.1 479.124 1111.4 479.142 1106.82 479.165C1103.89 479.234 1101.85 479.299 1099.8 479.364C1099.05 479.346 1098.29 479.328 1096.72 479.319C1092.53 479.376 1089.17 479.425 1085.8 479.473C1081.78 479.451 1077.75 479.429 1073.26 479.351ZM966.478 378.965C965.922 379.117 965.365 379.269 964.808 379.421C965.003 379.814 965.199 380.207 965.395 380.601C965.858 380.165 966.321 379.729 966.478 378.965ZM946.029 378.677C946.24 378.178 946.451 377.679 946.661 377.18C946.084 377.178 945.508 377.176 944.93 377.173C945.14 377.673 945.35 378.173 946.029 378.677ZM1147.84 401.442C1147.66 401.064 1147.48 400.686 1147.3 400.307C1147.02 400.578 1146.73 400.849 1146.44 401.12C1146.81 401.316 1147.19 401.512 1147.84 401.442ZM1131.67 396.428C1131.58 396.679 1131.5 396.93 1131.42 397.181C1131.67 397.192 1131.92 397.203 1132.17 397.214C1132.1 396.956 1132.03 396.699 1131.67 396.428ZM976.302 379.947C976.143 380.15 975.983 380.353 975.824 380.555C976.078 380.634 976.332 380.712 976.586 380.791C976.587 380.538 976.588 380.285 976.302 379.947ZM1120.75 475.202C1120.8 475.205 1120.86 475.208 1120.75 475.202V475.202ZM1137.98 394.518C1137.85 394.491 1137.71 394.465 1137.58 394.439C1137.67 394.501 1137.76 394.564 1137.98 394.518Z" fill="#FEF8DD"/>
<path d="M1116.8 367.414C1121.04 370.185 1125.25 372.99 1129.67 376.06C1129.87 376.324 1129.79 376.426 1129.43 376.517C1124.69 379.155 1121.14 378.403 1119.27 374.366C1118.25 372.16 1117.55 369.807 1116.71 367.521C1116.71 367.521 1116.77 367.449 1116.8 367.414Z" fill="#FEF8DD"/>
<path d="M761.049 24.9696C759.485 23.8298 757.756 22.3935 755.938 20.6152C757.528 21.7399 759.207 23.2066 761.049 24.9696Z" fill="#FEF8DD"/>
<path d="M777.714 41.1276C777.244 40.898 776.655 40.4001 775.943 39.6313C776.412 39.8601 777.003 40.3597 777.714 41.1276Z" fill="#FEF8DD"/>
<path d="M773.648 37.171C773.208 36.9724 772.639 36.5332 771.939 35.8506C772.379 36.0482 772.949 36.4893 773.648 37.171Z" fill="#FEF8DD"/>
<path d="M769.151 33.0757C768.998 33.069 768.662 32.772 768.102 32.2261C768.24 32.2466 768.604 32.516 769.151 33.0757Z" fill="#FEF8DD"/>
<path d="M771.201 35.0743C771.015 35.0717 770.658 34.7213 770.041 34.0981C770.197 34.1258 770.613 34.4261 771.201 35.0743Z" fill="#FEF8DD"/>
<path d="M441.865 313.515C449.801 313.092 457.747 313.092 466.29 313.092C467.022 311.379 466.71 306.433 472.406 309.306C472.644 316.809 472.843 324.457 472.344 332.059C472.227 333.83 469.735 335.444 468.131 336.837C467.843 334.716 467.761 332.889 467.675 331.005C465.626 331.179 464.212 331.299 462.799 331.419C462.452 330.034 462.105 328.648 462.362 326.988C464.213 326.866 465.46 327.017 467.231 327.233C467.006 324.708 466.825 322.686 466.614 320.335C461.665 320.335 457.226 320.335 452.787 320.335C450.761 319.672 448.764 318.597 446.7 318.443C443.641 318.216 441.678 317.389 441.865 313.515Z" fill="#FEF8DD"/>
<path d="M490.855 410.094C491.825 408.311 492.928 406.871 493.981 405.394C495.544 403.202 497.071 400.984 498.613 398.777C501.89 401.566 499.83 404.678 498.645 407.261C497.246 410.311 494.917 412.933 492.855 416.059C492.135 414.392 491.551 412.406 490.855 410.094Z" fill="#FEF8DD"/>
<path d="M1074.03 470.009C1076.57 469.833 1079.33 469.923 1082.48 470.143C1079.99 470.273 1077.13 470.275 1074.03 470.009Z" fill="#FEF8DD"/>
<path d="M771.623 59.2461C771.34 59.05 770.93 58.5572 770.389 57.7632C770.67 57.9578 771.082 58.4536 771.623 59.2461Z" fill="#FEF8DD"/>
<path d="M1116.37 367.469C1117.55 369.807 1118.25 372.161 1119.27 374.366C1121.14 378.403 1124.69 379.155 1129.39 376.569C1130.25 377.363 1131.17 378.172 1131.22 379.034C1131.38 381.67 1131.69 384.486 1130.91 386.89C1130.62 387.772 1127.39 388.082 1125.54 387.98C1122.15 387.794 1118.79 387.11 1115.03 386.632C1114.64 386.632 1114.69 386.589 1114.56 386.282C1113.06 385.368 1111.68 384.762 1110.3 384.155C1110.3 384.155 1110.25 384.189 1110.23 384.163C1110.12 381.621 1110.13 379.092 1109.87 376.592C1109.68 374.77 1108.19 372.162 1108.91 371.35C1110.67 369.371 1112.18 365.932 1116.37 367.469ZM1119.3 382.947C1119.14 383.15 1118.98 383.353 1118.82 383.555C1119.08 383.634 1119.33 383.712 1119.59 383.791C1119.59 383.538 1119.59 383.285 1119.3 382.947Z" fill="#FEF8DD"/>
<path d="M971.455 395.582C972.166 402.099 972.589 408.791 972.674 416.116C972.163 422.48 971.867 428.213 971.899 433.944C971.907 435.434 972.937 436.919 973.497 438.406C973.497 442.453 973.496 446.5 973.236 451.041C972.829 451.83 972.824 452.13 972.963 452.434C973.001 452.876 973.038 453.318 972.608 454.057C967.704 453.756 968.237 450.209 967.803 447.165C967.243 443.236 966.546 439.326 965.908 435.408C965.837 434.339 965.766 433.269 966.054 431.672C968.94 429.209 968.982 427.598 965.796 426.407C965.712 424.378 965.627 422.348 965.614 419.888C966.058 415.723 966.871 411.966 966.693 408.258C966.456 403.326 967.541 399.164 971.455 395.582Z" fill="#FEF8DD"/>
<path d="M1114.51 418.37C1114.98 419.136 1115.07 419.864 1115.09 420.954C1114.59 425.381 1114.32 429.469 1113.67 433.496C1113.49 434.62 1112.1 436.46 1111.42 436.392C1110.23 436.272 1108.26 434.979 1108.21 434.092C1107.91 428.577 1108.06 423.039 1108.06 417.057C1110.67 417.604 1112.41 417.968 1114.51 418.37Z" fill="#FEF8DD"/>
<path d="M1057.55 385.425C1058.62 385.247 1059.36 385.272 1060.45 385.412C1059.02 387.754 1050.08 391.004 1047.91 389.961C1047.13 389.584 1046.79 388.268 1046.25 387.381C1047.31 386.775 1048.32 385.751 1049.42 385.648C1052 385.406 1054.62 385.606 1057.55 385.425Z" fill="#FEF8DD"/>
<path d="M1115.51 446.464C1115.92 448.454 1115.98 450.5 1115.95 452.977C1114.08 452.906 1112.3 452.406 1108.88 451.445C1111.71 449.227 1113.44 447.874 1115.51 446.464Z" fill="#FEF8DD"/>
<path d="M1014.54 381.437C1015.62 381.248 1016.36 381.257 1017.46 381.377C1017.96 381.935 1018.11 382.382 1018.25 382.83C1014.63 383.633 1011 384.436 1007.37 385.239C1007.24 384.556 1007.11 383.872 1006.98 383.189C1009.39 382.671 1011.8 382.154 1014.54 381.437Z" fill="#FEF8DD"/>
<path d="M1026.67 382.44C1027.61 382.168 1028.35 382.157 1029.44 382.239C1029.34 384.305 1028.88 386.278 1028.28 388.836C1025.36 386.892 1024.41 385.205 1026.67 382.44Z" fill="#FEF8DD"/>
<path d="M999.741 380.392C1000.64 380.151 1001.37 380.142 1002.45 380.238C1001.74 381.239 1000.68 382.135 999.619 383.031C999.602 382.229 999.585 381.426 999.741 380.392Z" fill="#FEF8DD"/>
<path d="M966.631 379.129C966.321 379.729 965.858 380.165 965.395 380.601C965.199 380.207 965.003 379.814 964.808 379.421C965.365 379.269 965.922 379.117 966.631 379.129Z" fill="#FEF8DD"/>
<path d="M945.794 378.675C945.35 378.173 945.14 377.673 944.931 377.173C945.508 377.176 946.085 377.178 946.662 377.18C946.451 377.679 946.24 378.178 945.794 378.675Z" fill="#FEF8DD"/>
<path d="M1151.18 433.078C1150.69 433.912 1150.18 434.762 1149.66 435.612C1149.35 435.36 1149.03 435.107 1148.71 434.855C1149.33 434.31 1149.95 433.765 1150.87 433.124C1151.18 433.027 1151.14 433.094 1151.18 433.078Z" fill="#FEF8DD"/>
<path d="M1147.7 401.575C1147.19 401.512 1146.81 401.316 1146.44 401.12C1146.73 400.849 1147.02 400.578 1147.3 400.308C1147.48 400.686 1147.66 401.064 1147.7 401.575Z" fill="#FEF8DD"/>
<path d="M1022.69 390.258C1022.05 390.529 1021.29 390.548 1020.17 390.457C1020.73 390.233 1021.65 390.119 1022.69 390.258Z" fill="#FEF8DD"/>
<path d="M1131.82 396.435C1132.03 396.699 1132.1 396.956 1132.17 397.214C1131.92 397.203 1131.67 397.192 1131.42 397.181C1131.5 396.93 1131.58 396.679 1131.82 396.435Z" fill="#FEF8DD"/>
<path d="M976.446 379.99C976.588 380.285 976.587 380.538 976.586 380.791C976.332 380.712 976.078 380.634 975.824 380.555C975.983 380.352 976.143 380.15 976.446 379.99Z" fill="#FEF8DD"/>
<path d="M1120.83 475.207C1120.8 475.205 1120.86 475.208 1120.83 475.207V475.207Z" fill="#FEF8DD"/>
<path d="M1082.89 388.557C1083.25 388.349 1083.7 388.346 1084.48 388.452C1084.19 388.628 1083.58 388.694 1082.89 388.557Z" fill="#FEF8DD"/>
<path d="M1089.89 389.552C1090.25 389.34 1090.7 389.331 1091.48 389.428C1091.19 389.607 1090.58 389.681 1089.89 389.552Z" fill="#FEF8DD"/>
<path d="M1137.92 394.572C1137.76 394.564 1137.67 394.502 1137.58 394.439C1137.71 394.465 1137.85 394.491 1137.92 394.572Z" fill="#FEF8DD"/>
<path d="M968.301 389.903C968.296 389.885 968.307 389.92 968.301 389.903V389.903Z" fill="#FEF8DD"/>
<path d="M615.373 415.193C614.573 424.41 613.791 433.15 612.903 443.075C607.363 443.944 602.144 445.345 596.89 445.489C569.253 446.251 541.607 446.747 513.962 447.166C511.42 447.205 508.859 446.054 506.307 445.455C506.218 444.605 506.13 443.755 506.041 442.904C509.051 441.773 511.996 439.914 515.083 439.635C529.173 438.361 543.29 437.225 557.422 436.64C568.727 436.171 580.079 436.276 591.388 436.694C597.621 436.924 603.811 438.325 609.698 439.153C605.878 418.518 608.414 396.813 608.123 375.199C607.828 353.381 608.176 331.553 608.329 309.73C608.483 287.908 608.661 266.085 609.017 244.265C609.109 238.617 609.871 232.977 610.409 227.341C610.537 226.003 611.003 224.697 611.314 223.376C611.811 223.349 612.309 223.321 612.806 223.294C613.849 226.649 615.721 229.985 615.803 233.364C616.443 259.666 617.156 285.978 617.036 312.283C616.879 346.43 615.974 380.573 615.373 415.193Z" fill="#FEF8DD"/>
<path d="M484.979 452.787C486.31 449.399 487.595 446.418 489.303 442.454C492.413 446.687 493.026 450.341 492.318 454.746C492.036 455.408 491.882 455.744 491.62 455.903C489.933 456.929 488.223 457.917 486.52 458.918C485.991 457.009 485.462 455.101 484.979 452.787Z" fill="#FEF8DD"/>
<path d="M576.183 206.796C576.822 205.915 577.462 205.033 578.102 204.152C578.302 204.25 578.501 204.348 578.701 204.447C578.343 205.386 577.986 206.326 577.137 207.254C576.492 207.094 576.337 206.945 576.183 206.796Z" fill="#FEF8DD"/>
<path d="M576.879 207.466C576.52 208.551 575.929 209.413 575.338 210.274C575.09 210.15 574.842 210.026 574.594 209.903C574.946 209.054 575.298 208.206 575.917 207.076C576.338 206.945 576.493 207.094 576.879 207.466Z" fill="#FEF8DD"/>
<path d="M579.346 202.948C579.31 202.881 579.383 203.015 579.346 202.948V202.948Z" fill="#FEF8DD"/>
<path d="M813.534 276.801C813.49 276.8 813.839 276.739 813.839 276.739C813.839 276.739 813.516 276.645 813.567 276.763C813.617 276.881 813.578 276.802 813.534 276.801Z" fill="#FEF8DD"/>
<path d="M965.863 435.869C966.546 439.326 967.243 443.236 967.803 447.165C968.237 450.209 967.704 453.756 972.527 454.381C973.681 457.622 973.891 460.643 968.809 462.982C967.938 458.083 967.138 453.584 966.167 448.721C965.936 444.348 965.878 440.339 965.863 435.869Z" fill="#FEF8DD"/>
<path d="M965.721 426.82C968.982 427.598 968.94 429.21 966.13 431.276C965.78 430.015 965.714 428.624 965.721 426.82Z" fill="#FEF8DD"/>
<path d="M246.83 461.755C239.293 466.069 231.756 470.382 223.711 474.89C223.205 475.083 222.8 475.304 222.8 475.304C221.301 474.2 219.802 473.095 218.304 471.99C219.627 470.428 220.645 468.317 222.319 467.384C256.209 448.508 290.163 429.747 324.137 411.021C328.655 408.531 333.292 406.237 337.986 404.098C340.179 403.099 342.639 402.688 344.978 402.01C345.226 402.467 345.474 402.925 345.722 403.382C343.131 405.177 340.647 407.157 337.93 408.738C318.352 420.131 298.699 431.396 279.129 442.804C271.143 447.46 263.307 452.371 254.766 457.339C252.618 458.443 251.107 459.374 249.39 460.318C248.905 460.399 248.682 460.552 248.277 460.852C247.637 461.198 247.234 461.476 246.83 461.755Z" fill="#FEF8DD"/>
<path d="M1062.99 419.899C1063.33 420.321 1063.53 420.576 1063.98 420.925C1064.28 421.35 1064.44 421.601 1064.83 421.952C1070.65 430.96 1075.9 439.991 1076.8 450.818C1076.85 451.415 1077.28 452.004 1077.61 452.549C1079.7 455.977 1079.08 457.632 1075.1 457.934C1070.3 458.297 1065.46 458.424 1060.65 458.211C1041.06 457.344 1021.48 456.305 1001.9 455.335C995.557 455.021 995.721 455.034 995.919 448.715C996.089 443.273 995.311 437.766 995.861 432.381C997.077 420.482 1002.65 410.464 1012.87 404.443C1017.93 401.462 1024.83 401.591 1031.34 400.293C1033.19 400.678 1034.59 401.083 1036.35 401.568C1044.04 406.328 1051.38 411.007 1058.99 415.882C1059.41 416.352 1059.6 416.587 1060.02 416.909C1060.36 417.324 1060.55 417.572 1061.01 417.905C1061.36 418.323 1061.55 418.571 1062.01 418.906C1062.34 419.326 1062.54 419.573 1062.99 419.899ZM1061.85 427.948C1053.72 418.768 1044.79 410.678 1032.71 407.01C1024.15 404.413 1017.97 408.847 1012.12 413.323C1031.19 423.766 1049.98 434.06 1070.03 445.042C1067.13 438.912 1064.67 433.739 1061.85 427.948Z" fill="#FEF8DD"/>
<path d="M973.574 437.944C972.937 436.919 971.907 435.434 971.899 433.944C971.867 428.213 972.163 422.48 972.61 416.577C973.14 423.431 973.395 430.456 973.574 437.944Z" fill="#FEF8DD"/>
<path d="M973.074 452.155C972.824 452.13 972.829 451.83 973.07 451.406C973.17 451.476 973.177 451.676 973.074 452.155Z" fill="#FEF8DD"/>
<path d="M432.38 444.995C433.527 442.421 434.513 440.187 435.565 437.802C439.992 441.978 440.425 444.127 436.235 454.751C434.183 459.955 430.429 464.489 427.445 469.326C426.687 469.128 425.929 468.931 425.171 468.733C425.065 467.277 424.483 465.653 424.931 464.395C427.214 457.989 429.763 451.678 432.38 444.995Z" fill="#FEF8DD"/>
<path d="M1110.53 384.367C1111.68 384.762 1113.06 385.368 1114.55 386.307C1113.36 385.953 1112.06 385.266 1110.53 384.367Z" fill="#FEF8DD"/>
<path d="M1119.44 382.989C1119.59 383.285 1119.59 383.538 1119.59 383.791C1119.33 383.712 1119.08 383.633 1118.82 383.555C1118.98 383.352 1119.14 383.15 1119.44 382.989Z" fill="#FEF8DD"/>
</svg>
