<svg width="215" height="157" viewBox="0 0 215 157" fill="none" xmlns="http://www.w3.org/2000/svg">
<path d="M160.425 86.8147C157.101 86.578 149.098 88.0218 143.683 95.6905C138.269 103.359 134.124 105.593 132.997 106.342C130.86 107.762 123.785 111.667 118.036 111.667C114.474 111.667 109.866 103.637 118.389 99.5959C121.748 98.0035 129.361 94.6964 130.501 87.8797C131.641 81.063 139.768 78.3635 140.118 75.4535C140.461 72.6141 128.912 72.5069 123.376 75.4535C118.389 78.1078 113.763 83.8249 107.346 86.4598C101.958 88.6726 96.4988 87.9078 92.7422 89.6551C88.758 91.5082 86.5194 96.9646 86.6733 99.241C86.9321 103.071 94.1532 101.726 100.936 103.501C104.443 104.419 107.206 108.399 103.931 117.704C103.228 119.7 98.7662 121.963 99.8526 124.094C100.761 125.876 105.049 125.06 103.041 129.064C102.328 130.484 96.5042 136.662 88.81 131.55C85.9603 129.656 89.2965 124.8 89.1662 122.674C88.81 116.86 87.4772 116.688 82.042 117.704C76.3427 118.769 72.8458 117.936 69.5747 120.899C66.4282 123.748 60.3674 128.935 70.2825 133.325C73.4897 134.745 71.9446 136.52 72.7772 139.006C73.1839 140.22 75.2706 139.716 75.6268 141.846C75.9456 143.752 71.4948 144.899 69.215 140.071C68.4824 138.519 69.294 137.027 68.1464 135.81C66.9038 134.494 64.9601 135.983 63.5176 135.455C61.3917 134.678 62.3368 131.25 60.3117 132.26C58.1764 133.325 61.908 138.655 59.2433 140.426C57.4623 141.609 53.898 142.556 54.2542 143.976C54.8652 146.412 56.7495 145.729 56.7495 148.592C56.7495 151.077 54.3661 150.632 53.898 152.142C53.4036 153.737 55.2579 155.066 54.2542 156.402C53.1877 157.823 52.1191 156.402 51.7627 155.337C51.3119 153.99 50.6268 153.212 51.4045 151.432C51.995 150.081 52.7989 150.065 52.8312 148.592C52.8725 146.706 50.7095 147.137 49.9818 145.396C49.3881 143.976 49.0535 141.278 52.4731 140.426C55.8928 139.574 55.617 138.794 55.6797 138.296C56.0372 135.455 53.8993 134.39 55.3248 130.485C56.0137 128.597 54.239 127.757 52.83 128C49.3871 128.591 40.9151 132.876 41.0769 135.455C41.4331 141.136 38.2272 143.503 36.8023 144.331C35.6007 145.03 33.4913 144.248 32.1716 144.686C30.0343 145.396 30.1638 147.344 29.3219 149.302C28.779 150.564 26.9179 150.978 25.7598 151.787C24.6382 152.571 24.2201 153.768 23.6225 153.917C22.1974 154.272 21.9714 153.237 22.1977 152.142C22.6361 150.021 25.4795 149.453 26.4722 147.527C27.2454 146.026 27.1402 144.775 27.8971 143.266C28.2533 142.556 28.6656 141.433 32.884 140.781C37.1024 140.129 35.0213 136.52 35.7334 134.745C36.8387 131.99 40.7209 131.905 40.3644 129.42C40.2815 128.841 39.5812 127.912 38.9393 127.645C36.8692 126.784 35.3918 130.563 33.2402 131.195C29.8938 132.178 26.3808 128.015 24.5784 130.485C22.9773 132.679 20.4625 135.079 18.1666 135.455C16.3756 135.749 14.3973 134.825 11.8676 135.455C10.4428 135.81 9.0179 139.006 7.59306 141.491C6.45319 143.479 3.66454 143.743 1.1696 144.686C0.450587 144.958 -0.616175 143.976 0.452055 142.911C1.98827 141.379 4.71008 141.136 5.439 139.006C6.35005 136.343 7.91598 133.325 10.0697 132.26C12.1119 131.25 15.6241 131.987 16.8542 131.55C21.3725 129.943 23.5094 121.68 29.6613 126.224C31.2419 127.392 33.1545 127.232 34.6483 125.514C39.279 120.189 40.0268 122.633 43.1973 119.479C46.151 116.54 50.1095 114.948 49.6093 110.958C48.5408 102.436 54.4039 100.979 54.5962 94.2712C54.9524 81.845 59.2444 79.9675 66.7074 74.3887C69.5571 72.2585 65.2826 71.5484 65.2826 62.6725C65.2826 57.347 70.6257 49.5362 79.1748 49.5362C88.7391 49.5362 92.0793 56.6369 92.3546 62.6725C92.7108 70.4833 84.8356 75.212 89.5049 76.1639C94.7293 77.229 103.657 77.3857 114.083 69.4188C122.632 62.8861 133.575 63.7454 137.95 63.0281C140.118 62.6725 142.179 59.9153 144.361 58.0571C149.353 53.8058 156.971 52.8453 153.979 48.4711C150.417 43.2639 149.704 30.3642 159.322 28.9441C161.821 28.575 158.606 33.7529 160.391 33.9146C164.309 34.2696 165.734 30.0092 166.446 23.2635C167.441 13.8419 177.068 14.7341 181.051 10.1272C184.086 6.61693 183.545 5.86664 184.969 2.67137C185.727 0.97152 188.146 -0.963517 189.244 0.540882C189.898 1.43793 189.199 2.98292 189.244 4.09124C189.431 8.76477 193.588 9.84967 192.45 14.3873C190.669 21.488 183.544 22.1981 184.613 28.5887C185.132 31.6893 186.75 32.1386 189.956 31.784C194.023 31.3342 192.582 25.7484 200.643 25.7484C201.711 25.7484 198.149 28.5887 198.149 30.7189C198.149 32.2252 198.279 36.2545 197.081 39.2402C195.18 43.9733 184.425 46.1416 188.531 49.1808C190.35 50.5263 193.263 49.6128 195.299 50.6009C198.042 51.9321 198.567 54.3364 201.355 55.5714C204.561 56.9915 211.653 52.3858 214.535 56.6365C216.482 59.5086 212.041 64.8023 206.342 66.5775C199.542 68.6955 194.943 65.8664 188.175 63.7372C184.506 62.5829 180.992 66.5775 180.695 68.3527C180.339 70.4829 182.832 72.9681 182.832 79.0037C182.832 82.1654 183.976 79.4412 186.038 81.844C187.257 83.2642 187.819 84.6843 188.888 85.7494C190.147 87.0047 194.825 84.3293 195.299 87.1696C196.724 95.6904 180.933 102.203 177.489 98.5311C175.742 96.6691 177.025 94.0462 174.995 92.4955C172.886 90.884 170.766 92.5701 168.227 91.7854C164.774 90.7177 164.032 87.0715 160.425 86.8147Z" fill="#FDFDFD"/>
</svg>
