<svg width="284" height="207" viewBox="0 0 284 207" fill="none" xmlns="http://www.w3.org/2000/svg">
<path d="M211.911 114.463C207.519 114.151 196.948 116.054 189.796 126.165C182.644 136.276 177.168 139.221 175.68 140.208C172.857 142.081 163.511 147.23 155.917 147.23C151.212 147.23 145.126 136.643 156.384 131.314C160.82 129.215 170.877 124.855 172.382 115.867C173.888 106.879 184.623 103.32 185.087 99.4833C185.539 95.7396 170.284 95.5983 162.971 99.4833C156.384 102.983 150.273 110.521 141.797 113.995C134.679 116.912 127.468 115.904 122.506 118.208C117.243 120.651 114.286 127.845 114.489 130.846C114.831 135.896 124.37 134.123 133.33 136.464C137.962 137.674 141.612 142.921 137.285 155.189C136.357 157.821 130.463 160.805 131.898 163.615C133.098 165.964 138.763 164.887 136.11 170.167C135.169 172.039 127.475 180.186 117.312 173.445C113.548 170.948 117.954 164.546 117.782 161.742C117.312 154.077 115.551 153.85 108.372 155.189C100.843 156.593 96.2242 155.496 91.9032 159.402C87.7469 163.159 79.7411 169.997 92.8383 175.785C97.0747 177.658 95.0337 179.998 96.1335 183.275C96.6708 184.876 99.4272 184.211 99.8977 187.02C100.319 189.533 94.4396 191.046 91.4282 184.679C90.4604 182.633 91.5325 180.666 90.0166 179.062C88.3752 177.326 85.8077 179.29 83.9023 178.594C81.0942 177.569 82.3426 173.049 79.6676 174.381C76.847 175.785 81.7761 182.813 78.2563 185.147C75.9036 186.708 71.1955 187.956 71.666 189.829C72.473 193.04 74.9621 192.14 74.9621 195.914C74.9621 199.191 71.8138 198.603 71.1955 200.595C70.5424 202.698 72.9919 204.45 71.666 206.212C70.2573 208.085 68.8457 206.212 68.3749 204.808C67.7794 203.032 66.8745 202.005 67.9017 199.659C68.6818 197.877 69.7437 197.857 69.7863 195.914C69.8408 193.428 66.9837 193.996 66.0224 191.701C65.2382 189.829 64.7963 186.271 69.3133 185.147C73.8304 184.024 73.4661 182.996 73.5489 182.339C74.0212 178.594 71.1972 177.19 73.0802 172.041C73.9901 169.552 71.6459 168.445 69.7847 168.764C65.2369 169.544 54.046 175.193 54.2596 178.594C54.7302 186.084 50.4954 189.204 48.6133 190.297C47.0261 191.218 44.2396 190.187 42.4964 190.765C39.6732 191.701 39.8443 194.269 38.7322 196.85C38.0151 198.515 35.5567 199.06 34.0269 200.127C32.5453 201.16 31.9931 202.739 31.2037 202.935C29.3212 203.404 29.0227 202.039 29.3216 200.595C29.9007 197.798 33.6566 197.05 34.9679 194.51C35.9893 192.531 35.8503 190.881 36.8501 188.892C37.3206 187.956 37.8653 186.476 43.4375 185.616C49.0097 184.756 46.2606 179.998 47.2013 177.658C48.6613 174.025 53.7895 173.913 53.3186 170.636C53.209 169.874 52.284 168.648 51.4361 168.296C48.7017 167.161 46.75 172.143 43.908 172.977C39.4876 174.273 34.8472 168.784 32.4663 172.041C30.3514 174.933 27.0295 178.097 23.9968 178.594C21.631 178.981 19.0178 177.763 15.6762 178.594C13.7941 179.062 11.912 183.275 10.0299 186.552C8.52418 189.173 4.84057 189.522 1.54493 190.765C0.595168 191.123 -0.81395 189.828 0.597108 188.424C2.62635 186.405 6.22166 186.084 7.18452 183.275C8.38795 179.765 10.4564 175.785 13.3014 174.381C15.999 173.05 20.6383 174.022 22.2633 173.445C28.2315 171.326 31.0542 160.432 39.1805 166.423C41.2683 167.963 43.7947 167.752 45.7679 165.487C51.8848 158.466 52.8726 161.688 57.0606 157.529C60.9622 153.655 66.1912 151.555 65.5304 146.295C64.119 135.059 71.8638 133.138 72.1178 124.294C72.5883 107.91 78.2576 105.435 88.1158 98.0794C91.88 95.2707 86.2337 94.3345 86.2337 82.6319C86.2337 75.6103 93.2916 65.3121 104.584 65.3121C117.218 65.3121 121.63 74.6741 121.994 82.6319C122.464 92.9302 112.062 99.1648 118.23 100.42C125.131 101.824 136.924 102.031 150.696 91.5266C161.989 82.9135 176.443 84.0464 182.222 83.1008C185.087 82.6319 187.809 78.9966 190.691 76.5466C197.285 70.9414 207.348 69.675 203.395 63.9077C198.69 57.0422 197.749 40.0343 210.453 38.1619C213.755 37.6754 209.508 44.5022 211.865 44.7154C217.041 45.1835 218.923 39.5662 219.864 30.6722C221.178 18.2502 233.894 19.4265 239.156 13.3524C243.165 8.72422 242.449 7.73499 244.332 3.52212C245.333 1.28091 248.528 -1.27038 249.978 0.713128C250.843 1.89586 249.919 3.93289 249.978 5.39417C250.225 11.5561 255.716 12.9865 254.213 18.9692C251.86 28.3313 242.449 29.2675 243.861 37.6934C244.546 41.7815 246.684 42.3739 250.919 41.9063C256.29 41.3133 254.388 33.9485 265.035 33.9485C266.446 33.9485 261.741 37.6934 261.741 40.502C261.741 42.488 261.913 47.8005 260.33 51.737C257.819 57.9775 243.612 60.8363 249.037 64.8434C251.439 66.6174 255.288 65.413 257.977 66.7158C261.6 68.471 262.293 71.641 265.976 73.2693C270.211 75.1417 279.579 69.0692 283.386 74.6736C285.957 78.4604 280.092 85.44 272.563 87.7805C263.581 90.573 257.506 86.843 248.566 84.0357C243.72 82.5137 239.077 87.7805 238.685 90.121C238.215 92.9297 241.508 96.2064 241.508 104.164C241.508 108.333 243.02 104.741 245.743 107.909C247.353 109.781 248.096 111.654 249.507 113.058C251.171 114.713 257.35 111.186 257.977 114.931C259.859 126.165 239 134.751 234.45 129.91C232.143 127.455 233.838 123.997 231.157 121.953C228.37 119.828 225.57 122.051 222.217 121.016C217.654 119.609 216.675 114.801 211.911 114.463Z" fill="#FEF8DD"/>
</svg>
