<svg width="457" height="603" viewBox="0 0 457 603" fill="none" xmlns="http://www.w3.org/2000/svg">
<path fill-rule="evenodd" clip-rule="evenodd" d="M502.652 450.156C499.853 456.023 497.453 462.157 495.453 468.557C493.454 474.958 491.72 481.425 490.254 487.959C488.788 494.493 487.521 500.96 486.455 507.36C485.388 513.894 484.322 520.294 483.255 526.562C482.188 532.829 480.989 538.896 479.656 544.763C478.456 550.496 476.989 555.964 475.256 561.164C473.523 566.364 471.457 571.098 469.057 575.365C466.524 579.632 463.524 583.365 460.058 586.566C456.592 589.766 452.659 592.433 448.26 594.566C443.861 596.7 439.061 598.3 433.862 599.367C428.663 600.567 423.197 601.233 417.464 601.367C411.598 601.633 405.599 601.5 399.467 600.967C393.201 600.433 386.868 599.5 380.469 598.166C374.07 596.966 367.671 595.433 361.272 593.566C354.873 591.699 348.54 589.566 342.275 587.166C336.009 584.766 329.876 582.165 323.877 579.365C318.011 576.565 312.345 573.565 306.88 570.365C301.28 567.298 295.881 564.097 290.682 560.764C285.349 557.564 280.15 554.23 275.084 550.763C269.885 547.43 264.752 544.096 259.686 540.762C254.487 537.562 249.221 534.362 243.888 531.162C238.556 528.095 233.09 525.161 227.491 522.361C221.758 519.561 215.826 516.961 209.693 514.561C203.561 512.161 197.095 510.027 190.296 508.16C183.497 506.293 176.364 504.76 168.899 503.56C161.433 502.36 153.701 501.36 145.702 500.56C137.703 499.893 129.704 499.293 121.705 498.76C113.573 498.36 105.508 497.959 97.5088 497.559C89.5099 497.159 81.711 496.693 74.1121 496.159C66.6465 495.626 59.5141 494.959 52.7151 494.159C45.916 493.226 39.7169 492.092 34.1177 490.759C28.3851 489.426 23.3192 487.692 18.9198 485.559C14.6537 483.558 11.1875 481.025 8.52124 477.958C5.85495 475.025 3.98854 471.624 2.92202 467.757C1.85551 463.89 1.3889 459.623 1.52222 454.957C1.78885 450.29 2.52208 445.356 3.72191 440.155C4.92174 434.955 6.45486 429.488 8.32127 423.754C10.1877 418.021 12.2541 412.154 14.5204 406.153C16.9201 400.153 19.2531 394.019 21.5194 387.752C23.9191 381.485 26.2521 375.218 28.5185 368.951C30.6515 362.683 32.5179 356.483 34.1177 350.349C35.8508 344.082 37.2506 337.948 38.3171 331.948C39.3836 325.948 40.2501 320.08 40.9167 314.347C41.45 308.613 41.9166 302.946 42.3165 297.346C42.7165 291.879 43.0498 286.545 43.3164 281.344C43.7163 276.144 44.1163 271.077 44.5162 266.143C45.0495 261.21 45.7161 256.476 46.5159 251.942C47.3158 247.409 48.3823 243.075 49.7155 238.942C51.0486 234.808 52.7151 230.874 54.7148 227.141C56.7145 223.407 59.1808 219.874 62.1138 216.54C65.0467 213.34 68.3796 210.206 72.1124 207.139C75.8452 204.206 79.9113 201.339 84.3107 198.539C88.71 195.738 93.3094 192.938 98.1087 190.138C103.041 187.338 108.174 184.471 113.507 181.538C118.839 178.604 124.238 175.604 129.704 172.537C135.304 169.337 140.903 165.936 146.502 162.336C152.235 158.869 157.967 155.069 163.7 150.935C169.299 146.802 174.898 142.401 180.497 137.734C185.963 132.934 191.429 127.867 196.895 122.533C202.361 117.2 207.76 111.666 213.093 105.932C218.425 100.199 223.825 94.4648 229.29 88.7311C234.623 82.864 240.089 77.0636 245.688 71.3298C251.154 65.5961 256.753 59.9957 262.486 54.5287C268.218 49.195 274.018 44.0613 279.883 39.1276C285.883 34.1939 292.082 29.6603 298.481 25.5267C304.747 21.393 311.279 17.7928 318.078 14.7259C324.877 11.659 331.876 9.05886 339.075 6.92538C346.141 4.92524 353.406 3.52514 360.872 2.72509C368.204 1.79169 375.537 1.39166 382.869 1.525C390.201 1.79169 397.4 2.52507 404.466 3.72515C411.532 4.92524 418.397 6.72536 425.063 9.12553C431.729 11.3924 437.995 14.1925 443.86 17.5261C449.86 20.7263 455.326 24.5266 460.258 28.9269C465.324 33.1939 469.857 37.9942 473.856 43.3279C477.722 48.5283 480.989 54.262 483.655 60.5291C486.321 66.6629 488.454 73.1966 490.054 80.1305C491.654 87.0643 492.92 94.3315 493.854 101.932C494.787 109.399 495.453 117 495.853 124.734C496.386 132.601 496.853 140.468 497.253 148.335C497.653 156.336 498.12 164.203 498.653 171.937C499.319 179.804 500.186 187.538 501.252 195.138C502.319 202.606 503.852 209.873 505.852 216.94C507.852 224.007 510.318 230.674 513.251 236.941C516.317 243.342 519.85 249.342 523.849 254.943C527.982 260.543 532.381 265.81 537.047 270.744C541.58 275.677 546.313 280.411 551.245 284.945C556.045 289.345 560.844 293.545 565.644 297.546C570.31 301.546 574.709 305.346 578.842 308.946C583.108 312.68 586.841 316.214 590.04 319.547C593.373 323.014 596.039 326.348 598.039 329.548C599.905 332.748 601.039 335.948 601.438 339.148C601.705 342.349 601.105 345.549 599.639 348.749C598.172 351.949 595.973 355.216 593.04 358.55C590.107 361.883 586.641 365.284 582.641 368.751C578.775 372.217 574.442 375.818 569.643 379.551C564.977 383.152 560.111 387.018 555.045 391.152C550.112 395.152 545.113 399.353 540.047 403.753C534.981 408.153 530.182 412.754 525.649 417.554C520.983 422.488 516.717 427.688 512.851 433.155C508.985 438.489 505.585 444.156 502.652 450.156Z" stroke="#F15C56" stroke-width="3"/>
<path fill-rule="evenodd" clip-rule="evenodd" d="M485.89 436.768C483.323 442.146 481.124 447.769 479.291 453.636C477.457 459.503 475.869 465.431 474.525 471.421C473.18 477.41 472.019 483.338 471.042 489.205C470.064 495.194 469.086 501.062 468.109 506.806C467.131 512.551 466.031 518.113 464.809 523.491C463.709 528.747 462.365 533.758 460.776 538.525C459.188 543.292 457.294 547.631 455.094 551.543C452.772 555.454 450.022 558.877 446.845 561.81C443.668 564.744 440.063 567.188 436.03 569.144C431.997 571.1 427.598 572.566 422.832 573.544C418.066 574.644 413.055 575.256 407.8 575.378C402.423 575.622 396.924 575.5 391.303 575.011C385.559 574.522 379.754 573.667 373.889 572.444C368.023 571.344 362.157 569.939 356.291 568.227C350.425 566.516 344.62 564.56 338.877 562.36C333.133 560.16 327.512 557.777 322.012 555.21C316.635 552.643 311.442 549.893 306.431 546.959C301.299 544.148 296.349 541.214 291.583 538.159C286.695 535.225 281.929 532.169 277.285 528.991C272.519 525.935 267.814 522.88 263.171 519.824C258.405 516.89 253.578 513.957 248.689 511.023C243.801 508.212 238.791 505.523 233.658 502.956C228.403 500.389 222.965 498.006 217.344 495.806C211.722 493.605 205.795 491.65 199.563 489.939C193.33 488.227 186.792 486.822 179.949 485.722C173.105 484.621 166.018 483.705 158.685 482.971C151.353 482.36 144.021 481.81 136.688 481.321C129.234 480.955 121.84 480.588 114.508 480.221C107.176 479.854 100.027 479.427 93.0611 478.938C86.2176 478.449 79.6796 477.838 73.4472 477.104C67.2147 476.249 61.5321 475.21 56.3995 473.987C51.1447 472.765 46.5009 471.176 42.4681 469.22C38.5576 467.387 35.3802 465.065 32.9361 462.253C30.492 459.564 28.7812 456.447 27.8035 452.903C26.8259 449.358 26.3982 445.447 26.5204 441.168C26.7648 436.89 27.4369 432.368 28.5368 427.601C29.6366 422.834 31.042 417.822 32.7528 412.566C34.4637 407.311 36.3579 401.932 38.4354 396.432C40.6351 390.932 42.7737 385.309 44.8511 379.564C47.0508 373.819 49.1894 368.074 51.2669 362.33C53.2222 356.585 54.9331 350.901 56.3995 345.278C57.9882 339.534 59.2714 333.911 60.249 328.411C61.2266 322.91 62.021 317.532 62.632 312.276C63.1208 307.02 63.5485 301.825 63.9152 296.692C64.2818 291.68 64.5873 286.791 64.8317 282.024C65.1983 277.257 65.5649 272.612 65.9315 268.09C66.4204 263.567 67.0314 259.228 67.7646 255.072C68.4978 250.916 69.4755 246.944 70.6975 243.155C71.9196 239.366 73.4472 235.76 75.2802 232.337C77.1133 228.915 79.3741 225.676 82.0626 222.62C84.7511 219.686 87.8063 216.814 91.228 214.003C94.6498 211.314 98.377 208.686 102.41 206.119C106.443 203.552 110.659 200.985 115.058 198.418C119.58 195.851 124.285 193.223 129.173 190.534C134.061 187.845 139.01 185.095 144.021 182.284C149.153 179.35 154.286 176.233 159.418 172.933C164.673 169.755 169.928 166.272 175.183 162.482C180.316 158.693 185.448 154.66 190.581 150.382C195.591 145.981 200.602 141.337 205.612 136.447C210.622 131.558 215.572 126.485 220.46 121.23C225.348 115.974 230.297 110.718 235.308 105.462C240.196 100.084 245.207 94.7666 250.339 89.5107C255.35 84.2548 260.482 79.1211 265.737 74.1096C270.992 69.2204 276.308 64.5145 281.685 59.992C287.184 55.4694 292.867 51.3136 298.732 47.5244C304.476 43.7353 310.464 40.4351 316.697 37.6238C322.929 34.8125 329.345 32.429 335.944 30.4733C342.421 28.6398 349.081 27.3564 355.924 26.623C362.646 25.7674 369.367 25.4007 376.088 25.5229C382.81 25.7674 389.409 26.4396 395.885 27.5397C402.362 28.6398 408.656 30.2899 414.766 32.4901C420.876 34.568 426.62 37.1348 431.997 40.1906C437.496 43.1241 442.507 46.6077 447.028 50.6413C451.672 54.5527 455.827 58.953 459.493 63.8422C463.037 68.6092 466.031 73.8652 468.475 79.61C470.919 85.2326 472.875 91.2219 474.341 97.5779C475.808 103.934 476.969 110.595 477.824 117.563C478.679 124.408 479.291 131.375 479.657 138.464C480.146 145.676 480.574 152.887 480.94 160.099C481.307 167.433 481.735 174.644 482.223 181.734C482.834 188.945 483.629 196.035 484.606 203.002C485.584 209.847 486.989 216.508 488.823 222.987C490.656 229.465 492.916 235.576 495.605 241.321C498.416 247.188 501.654 252.689 505.32 257.822C509.109 262.956 513.141 267.784 517.419 272.307C521.573 276.829 525.912 281.168 530.433 285.324C534.833 289.358 539.232 293.208 543.632 296.875C547.909 300.542 551.942 304.026 555.73 307.326C559.64 310.748 563.062 313.987 565.995 317.043C569.05 320.221 571.494 323.277 573.327 326.21C575.038 329.144 576.077 332.078 576.444 335.011C576.688 337.945 576.138 340.878 574.794 343.812C573.45 346.745 571.433 349.74 568.745 352.796C566.056 355.851 562.879 358.968 559.213 362.146C555.669 365.324 551.697 368.625 547.298 372.047C543.021 375.347 538.56 378.892 533.916 382.681C529.395 386.348 524.812 390.198 520.168 394.232C515.524 398.265 511.125 402.482 506.97 406.883C502.693 411.405 498.782 416.172 495.238 421.184C491.694 426.073 488.578 431.268 485.89 436.768Z" stroke="#F15C56" stroke-width="3"/>
<path fill-rule="evenodd" clip-rule="evenodd" d="M469.127 419.38C466.794 424.269 464.794 429.381 463.128 434.715C461.461 440.048 460.017 445.438 458.795 450.882C457.573 456.327 456.518 461.716 455.629 467.05C454.74 472.495 453.851 477.829 452.962 483.051C452.074 488.274 451.074 493.33 449.963 498.219C448.963 502.997 447.741 507.553 446.297 511.887C444.853 516.22 443.131 520.165 441.131 523.721C439.02 527.277 436.52 530.388 433.632 533.055C430.743 535.722 427.466 537.944 423.8 539.722C420.134 541.5 416.134 542.833 411.802 543.722C407.469 544.722 402.914 545.278 398.137 545.389C393.249 545.611 388.249 545.5 383.139 545.056C377.917 544.611 372.64 543.833 367.308 542.722C361.975 541.722 356.643 540.444 351.31 538.888C345.977 537.333 340.7 535.555 335.479 533.555C330.257 531.555 325.147 529.388 320.148 527.054C315.259 524.721 310.538 522.221 305.983 519.554C301.317 516.998 296.818 514.331 292.485 511.553C288.041 508.886 283.708 506.108 279.487 503.219C275.154 500.441 270.877 497.663 266.655 494.885C262.322 492.219 257.934 489.552 253.49 486.885C249.047 484.329 244.492 481.885 239.826 479.551C235.048 477.218 230.105 475.051 224.994 473.051C219.884 471.05 214.496 469.273 208.83 467.717C203.164 466.161 197.22 464.883 190.999 463.883C184.778 462.883 178.334 462.05 171.668 461.383C165.003 460.827 158.337 460.327 151.671 459.883C144.894 459.55 138.173 459.216 131.507 458.883C124.842 458.55 118.343 458.161 112.01 457.716C105.789 457.272 99.8451 456.716 94.1792 456.049C88.5134 455.272 83.3474 454.327 78.6814 453.216C73.9043 452.105 69.6826 450.66 66.0165 448.882C62.4614 447.215 59.5729 445.104 57.351 442.548C55.1291 440.104 53.5738 437.27 52.685 434.048C51.7963 430.825 51.4074 427.27 51.5185 423.38C51.7407 419.491 52.3517 415.38 53.3516 411.046C54.3515 406.713 55.6291 402.157 57.1844 397.379C58.7397 392.601 60.4617 387.711 62.3503 382.711C64.3501 377.711 66.2942 372.599 68.1829 367.377C70.1826 362.154 72.1268 356.931 74.0154 351.709C75.7929 346.486 77.3482 341.319 78.6814 336.208C80.1256 330.985 81.2921 325.874 82.1809 320.873C83.0697 315.873 83.7918 310.984 84.3473 306.206C84.7916 301.428 85.1805 296.705 85.5138 292.038C85.8471 287.482 86.1248 283.037 86.347 278.704C86.6803 274.37 87.0136 270.148 87.3468 266.036C87.7912 261.925 88.3467 257.98 89.0133 254.202C89.6799 250.424 90.5686 246.813 91.6796 243.368C92.7905 239.923 94.1792 236.645 95.8457 233.534C97.5121 230.423 99.5674 227.478 102.011 224.7C104.456 222.033 107.233 219.422 110.344 216.866C113.454 214.421 116.843 212.032 120.509 209.699C124.175 207.365 128.008 205.032 132.007 202.698C136.118 200.365 140.395 197.976 144.839 195.531C149.283 193.087 153.782 190.586 158.337 188.031C163.003 185.364 167.669 182.53 172.335 179.53C177.112 176.641 181.889 173.474 186.666 170.029C191.332 166.585 195.998 162.918 200.664 159.029C205.219 155.028 209.774 150.806 214.329 146.361C218.884 141.916 223.383 137.305 227.827 132.527C232.271 127.749 236.77 122.971 241.325 118.193C245.769 113.303 250.324 108.47 254.99 103.692C259.545 98.9134 264.211 94.2464 268.988 89.6906C273.765 85.2458 278.598 80.9677 283.486 76.8563C288.485 72.7449 293.651 68.9669 298.984 65.5222C304.205 62.0775 309.649 59.0773 315.315 56.5216C320.981 53.9659 326.813 51.799 332.813 50.0211C338.701 48.3544 344.755 47.1876 350.977 46.5209C357.087 45.7431 363.197 45.4097 369.307 45.5208C375.418 45.7431 381.417 46.3542 387.305 47.3543C393.193 48.3544 398.914 49.8545 404.469 51.8546C410.024 53.7436 415.246 56.0771 420.134 58.8551C425.133 61.5219 429.688 64.6888 433.798 68.3558C438.02 71.9116 441.797 75.9118 445.13 80.3566C448.352 84.6902 451.074 89.4683 453.296 94.6909C455.518 99.8024 457.295 105.247 458.628 111.025C459.962 116.804 461.017 122.86 461.795 129.193C462.572 135.416 463.128 141.75 463.461 148.195C463.905 154.751 464.294 161.307 464.628 167.863C464.961 174.53 465.35 181.086 465.794 187.531C466.35 194.087 467.072 200.532 467.96 206.865C468.849 213.088 470.127 219.144 471.793 225.033C473.46 230.923 475.515 236.479 477.959 241.701C480.514 247.035 483.458 252.035 486.791 256.702C490.235 261.369 493.901 265.758 497.79 269.87C501.567 273.981 505.511 277.926 509.621 281.704C513.621 285.371 517.62 288.871 521.62 292.205C525.508 295.538 529.174 298.705 532.618 301.705C536.173 304.817 539.284 307.761 541.95 310.539C544.727 313.428 546.949 316.206 548.616 318.873C550.171 321.54 551.115 324.207 551.449 326.874C551.671 329.541 551.171 332.207 549.949 334.874C548.727 337.541 546.894 340.264 544.45 343.042C542.006 345.819 539.117 348.653 535.784 351.542C532.562 354.431 528.952 357.431 524.952 360.543C521.064 363.543 517.009 366.765 512.787 370.21C508.677 373.544 504.511 377.044 500.289 380.711C496.068 384.378 492.068 388.211 488.291 392.212C484.403 396.323 480.847 400.657 477.626 405.212C474.404 409.657 471.571 414.38 469.127 419.38Z" stroke="#F15C56" stroke-width="3"/>
<path fill-rule="evenodd" clip-rule="evenodd" d="M452.364 406.992C450.265 411.392 448.465 415.993 446.965 420.793C445.465 425.593 444.165 430.444 443.066 435.344C441.966 440.244 441.016 445.095 440.216 449.895C439.416 454.795 438.616 459.596 437.816 464.296C437.016 468.996 436.116 473.547 435.117 477.947C434.217 482.247 433.117 486.348 431.817 490.248C430.517 494.148 428.967 497.698 427.168 500.899C425.268 504.099 423.018 506.899 420.419 509.299C417.819 511.699 414.869 513.7 411.57 515.3C408.27 516.9 404.671 518.1 400.771 518.9C396.872 519.8 392.773 520.3 388.473 520.4C384.074 520.6 379.574 520.5 374.975 520.1C370.276 519.7 365.526 519 360.727 518C355.928 517.1 351.128 515.95 346.329 514.55C341.53 513.15 336.78 511.549 332.081 509.749C327.382 507.949 322.782 505.999 318.283 503.899C313.884 501.799 309.634 499.549 305.535 497.148C301.335 494.848 297.286 492.448 293.386 489.948C289.387 487.548 285.487 485.048 281.688 482.447C277.789 479.947 273.939 477.447 270.14 474.947C266.24 472.547 262.291 470.147 258.291 467.746C254.292 465.446 250.192 463.246 245.993 461.146C241.694 459.046 237.244 457.096 232.645 455.295C228.046 453.495 223.196 451.895 218.097 450.495C212.998 449.095 207.648 447.945 202.049 447.045C196.45 446.145 190.651 445.395 184.652 444.795C178.652 444.295 172.653 443.845 166.654 443.445C160.555 443.145 154.506 442.845 148.507 442.545C142.507 442.245 136.658 441.895 130.959 441.495C125.36 441.094 120.011 440.594 114.911 439.994C109.812 439.294 105.163 438.444 100.963 437.444C96.6639 436.444 92.8644 435.144 89.5648 433.544C86.3653 432.044 83.7657 430.144 81.7659 427.844C79.7662 425.643 78.3664 423.093 77.5665 420.193C76.7666 417.293 76.4167 414.093 76.5167 410.592C76.7166 407.092 77.2666 403.392 78.1664 399.492C79.0663 395.591 80.2161 391.491 81.616 387.191C83.0158 382.89 84.5655 378.49 86.2653 373.99C88.0651 369.49 89.8148 364.889 91.5146 360.189C93.3143 355.489 95.0641 350.788 96.7638 346.088C98.3636 341.388 99.7634 336.737 100.963 332.137C102.263 327.437 103.313 322.836 104.113 318.336C104.913 313.836 105.563 309.435 106.063 305.135C106.462 300.835 106.812 296.584 107.112 292.384C107.412 288.284 107.662 284.284 107.862 280.383C108.162 276.483 108.462 272.683 108.762 268.983C109.162 265.282 109.662 261.732 110.262 258.332C110.862 254.932 111.662 251.681 112.662 248.581C113.661 245.481 114.911 242.531 116.411 239.731C117.911 236.93 119.761 234.28 121.96 231.78C124.16 229.38 126.66 227.03 129.459 224.729C132.259 222.529 135.308 220.379 138.608 218.279C141.908 216.179 145.357 214.079 148.957 211.979C152.656 209.878 156.506 207.728 160.505 205.528C164.504 203.328 168.554 201.078 172.653 198.778C176.853 196.377 181.052 193.827 185.251 191.127C189.551 188.527 193.85 185.677 198.15 182.577C202.349 179.476 206.549 176.176 210.748 172.676C214.847 169.076 218.947 165.275 223.046 161.275C227.146 157.275 231.195 153.124 235.195 148.824C239.194 144.524 243.243 140.224 247.343 135.923C251.342 131.523 255.442 127.173 259.641 122.872C263.741 118.572 267.94 114.372 272.239 110.272C276.539 106.271 280.888 102.421 285.288 98.7207C289.787 95.0205 294.436 91.6202 299.236 88.52C303.935 85.4198 308.834 82.7196 313.934 80.4194C319.033 78.1193 324.282 76.1691 329.681 74.569C334.981 73.0689 340.43 72.0189 346.029 71.4188C351.528 70.7188 357.028 70.4187 362.527 70.5188C368.026 70.7188 373.425 71.2688 378.724 72.1689C384.024 73.0689 389.173 74.419 394.172 76.2191C399.172 77.9193 403.871 80.0194 408.27 82.5196C412.77 84.9198 416.869 87.7699 420.569 91.0702C424.368 94.2704 427.768 97.8707 430.767 101.871C433.667 105.771 436.116 110.071 438.116 114.772C440.116 119.372 441.716 124.272 442.916 129.473C444.115 134.673 445.065 140.124 445.765 145.824C446.465 151.424 446.965 157.125 447.265 162.925C447.665 168.826 448.015 174.726 448.315 180.626C448.615 186.627 448.965 192.527 449.365 198.328C449.865 204.228 450.514 210.028 451.314 215.729C452.114 221.329 453.264 226.78 454.764 232.08C456.264 237.38 458.113 242.381 460.313 247.081C462.613 251.881 465.262 256.382 468.262 260.582C471.362 264.782 474.661 268.733 478.161 272.433C481.56 276.133 485.11 279.683 488.809 283.084C492.409 286.384 496.008 289.534 499.608 292.534C503.107 295.534 506.407 298.385 509.506 301.085C512.706 303.885 515.505 306.535 517.905 309.035C520.405 311.635 522.404 314.136 523.904 316.536C525.304 318.936 526.154 321.336 526.454 323.736C526.654 326.137 526.204 328.537 525.104 330.937C524.004 333.337 522.354 335.787 520.155 338.287C517.955 340.788 515.355 343.338 512.356 345.938C509.456 348.538 506.207 351.238 502.607 354.038C499.108 356.739 495.458 359.639 491.659 362.739C487.959 365.739 484.21 368.889 480.41 372.19C476.611 375.49 473.011 378.94 469.612 382.54C466.112 386.241 462.913 390.141 460.013 394.241C457.114 398.242 454.564 402.492 452.364 406.992Z" stroke="#F15C56" stroke-width="3"/>
<path fill-rule="evenodd" clip-rule="evenodd" d="M435.602 394.604C433.735 398.516 432.135 402.605 430.802 406.872C429.469 411.139 428.314 415.45 427.336 419.806C426.358 424.162 425.514 428.473 424.803 432.74C424.092 437.096 423.381 441.363 422.67 445.541C421.959 449.719 421.159 453.764 420.27 457.675C419.47 461.498 418.493 465.142 417.337 468.609C416.182 472.076 414.804 475.232 413.205 478.077C411.516 480.921 409.516 483.41 407.205 485.544C404.895 487.677 402.273 489.455 399.34 490.877C396.407 492.3 393.207 493.367 389.741 494.078C386.275 494.878 382.631 495.322 378.809 495.411C374.899 495.589 370.899 495.5 366.811 495.144C362.634 494.789 358.412 494.167 354.146 493.278C349.88 492.478 345.614 491.455 341.348 490.211C337.082 488.966 332.86 487.544 328.683 485.944C324.506 484.344 320.418 482.61 316.418 480.743C312.508 478.877 308.73 476.877 305.086 474.743C301.354 472.698 297.754 470.565 294.288 468.343C290.733 466.209 287.267 463.987 283.889 461.675C280.423 459.453 277.001 457.231 273.624 455.008C270.158 452.875 266.647 450.741 263.092 448.608C259.537 446.563 255.893 444.608 252.16 442.741C248.339 440.874 244.384 439.141 240.295 437.54C236.207 435.94 231.897 434.518 227.364 433.273C222.831 432.029 218.076 431.007 213.099 430.207C208.122 429.407 202.967 428.74 197.635 428.206C192.302 427.762 186.97 427.362 181.637 427.006C176.215 426.74 170.838 426.473 165.506 426.206C160.173 425.94 154.974 425.628 149.908 425.273C144.931 424.917 140.176 424.473 135.643 423.939C131.111 423.317 126.978 422.562 123.245 421.673C119.423 420.784 116.046 419.628 113.113 418.206C110.269 416.872 107.958 415.183 106.181 413.139C104.403 411.183 103.159 408.916 102.448 406.338C101.737 403.76 101.426 400.916 101.515 397.804C101.693 394.693 102.181 391.404 102.981 387.937C103.781 384.47 104.803 380.825 106.048 377.003C107.292 373.18 108.669 369.269 110.18 365.269C111.78 361.268 113.335 357.179 114.846 353.001C116.446 348.823 118.001 344.645 119.512 340.467C120.934 336.289 122.179 332.155 123.245 328.066C124.401 323.888 125.334 319.799 126.045 315.799C126.756 311.798 127.333 307.887 127.778 304.065C128.133 300.242 128.444 296.464 128.711 292.73C128.978 289.086 129.2 285.53 129.378 282.063C129.644 278.596 129.911 275.218 130.177 271.929C130.533 268.64 130.977 265.484 131.511 262.462C132.044 259.439 132.755 256.55 133.644 253.794C134.532 251.039 135.643 248.416 136.977 245.927C138.31 243.438 139.954 241.082 141.909 238.86C143.864 236.726 146.086 234.637 148.575 232.593C151.063 230.637 153.774 228.726 156.707 226.859C159.64 224.992 162.706 223.126 165.906 221.259C169.194 219.392 172.616 217.481 176.171 215.525C179.726 213.569 183.326 211.569 186.97 209.525C190.702 207.391 194.435 205.124 198.168 202.724C201.99 200.413 205.811 197.879 209.633 195.124C213.366 192.368 217.099 189.434 220.831 186.323C224.475 183.123 228.119 179.745 231.763 176.189C235.407 172.633 239.007 168.944 242.562 165.122C246.117 161.299 249.716 157.477 253.36 153.654C256.915 149.743 260.559 145.876 264.292 142.053C267.936 138.231 271.669 134.497 275.491 130.852C279.312 127.297 283.178 123.874 287.089 120.585C291.088 117.296 295.221 114.274 299.487 111.518C303.664 108.762 308.019 106.362 312.552 104.317C317.085 102.273 321.751 100.539 326.55 99.1169C331.261 97.7835 336.104 96.8501 341.081 96.3167C345.97 95.6945 350.858 95.4278 355.746 95.5167C360.634 95.6945 365.434 96.1834 370.144 96.9834C374.854 97.7835 379.432 98.9836 383.875 100.584C388.319 102.095 392.496 103.962 396.407 106.184C400.406 108.318 404.05 110.851 407.339 113.785C410.716 116.629 413.738 119.829 416.404 123.385C418.982 126.852 421.159 130.675 422.937 134.853C424.714 138.942 426.136 143.298 427.203 147.92C428.269 152.543 429.114 157.388 429.736 162.455C430.358 167.433 430.802 172.5 431.069 177.656C431.424 182.901 431.735 188.145 432.002 193.39C432.269 198.724 432.58 203.969 432.935 209.125C433.38 214.369 433.957 219.525 434.668 224.592C435.379 229.57 436.401 234.415 437.735 239.127C439.068 243.838 440.712 248.283 442.667 252.461C444.711 256.728 447.067 260.728 449.733 264.462C452.488 268.195 455.421 271.707 458.532 274.996C461.553 278.285 464.709 281.441 467.997 284.463C471.197 287.397 474.396 290.197 477.596 292.864C480.706 295.531 483.639 298.064 486.394 300.464C489.238 302.953 491.727 305.309 493.86 307.531C496.082 309.843 497.859 312.065 499.193 314.199C500.437 316.332 501.192 318.465 501.459 320.599C501.637 322.732 501.237 324.866 500.259 326.999C499.282 329.133 497.815 331.311 495.86 333.533C493.904 335.756 491.594 338.022 488.927 340.334C486.35 342.645 483.462 345.045 480.262 347.534C477.151 349.934 473.907 352.512 470.53 355.268C467.242 357.935 463.909 360.735 460.531 363.669C457.154 366.602 453.955 369.669 450.933 372.869C447.822 376.158 444.978 379.625 442.401 383.27C439.823 386.826 437.557 390.604 435.602 394.604Z" stroke="#F15C56" stroke-width="3"/>
<path fill-rule="evenodd" clip-rule="evenodd" d="M418.839 382.216C417.206 385.639 415.806 389.217 414.639 392.95C413.473 396.684 412.462 400.456 411.607 404.268C410.751 408.079 410.012 411.851 409.39 415.585C408.768 419.396 408.146 423.13 407.524 426.786C406.902 430.442 406.202 433.981 405.424 437.403C404.724 440.748 403.869 443.937 402.858 446.971C401.847 450.004 400.641 452.765 399.242 455.255C397.764 457.744 396.014 459.922 393.992 461.788C391.97 463.655 389.676 465.211 387.11 466.455C384.544 467.7 381.744 468.633 378.711 469.255C375.678 469.956 372.49 470.344 369.146 470.422C365.724 470.578 362.225 470.5 358.647 470.189C354.992 469.878 351.298 469.333 347.565 468.555C343.833 467.855 340.1 466.961 336.367 465.872C332.634 464.783 328.94 463.538 325.285 462.138C321.63 460.738 318.053 459.221 314.553 457.588C311.132 455.955 307.827 454.204 304.638 452.338C301.372 450.549 298.222 448.682 295.189 446.737C292.079 444.87 289.046 442.926 286.091 440.903C283.058 438.959 280.064 437.014 277.109 435.07C274.076 433.203 271.004 431.336 267.893 429.469C264.783 427.68 261.594 425.969 258.328 424.336C254.984 422.702 251.523 421.185 247.946 419.785C244.369 418.385 240.597 417.141 236.631 416.052C232.665 414.963 228.504 414.068 224.149 413.368C219.794 412.668 215.284 412.085 210.618 411.618C205.952 411.229 201.286 410.879 196.62 410.568C191.876 410.335 187.171 410.101 182.505 409.868C177.839 409.635 173.29 409.362 168.857 409.051C164.502 408.74 160.342 408.351 156.375 407.885C152.409 407.34 148.793 406.679 145.527 405.901C142.183 405.123 139.228 404.112 136.662 402.868C134.173 401.701 132.151 400.223 130.596 398.434C129.04 396.723 127.952 394.739 127.33 392.483C126.707 390.228 126.435 387.739 126.513 385.016C126.668 382.294 127.096 379.416 127.796 376.382C128.496 373.349 129.39 370.16 130.479 366.815C131.568 363.47 132.773 360.048 134.095 356.548C135.495 353.047 136.856 349.469 138.178 345.814C139.578 342.158 140.939 338.502 142.261 334.846C143.505 331.19 144.594 327.573 145.527 323.995C146.538 320.34 147.354 316.762 147.977 313.261C148.599 309.761 149.104 306.339 149.493 302.994C149.804 299.649 150.076 296.343 150.31 293.077C150.543 289.887 150.737 286.776 150.893 283.743C151.126 280.709 151.359 277.753 151.593 274.875C151.904 271.997 152.293 269.236 152.759 266.591C153.226 263.947 153.848 261.419 154.626 259.008C155.403 256.596 156.375 254.302 157.542 252.124C158.708 249.946 160.147 247.885 161.858 245.94C163.569 244.073 165.513 242.245 167.691 240.456C169.868 238.745 172.24 237.073 174.806 235.439C177.373 233.806 180.055 232.172 182.855 230.539C185.732 228.905 188.727 227.233 191.837 225.522C194.948 223.811 198.097 222.061 201.286 220.272C204.552 218.405 207.818 216.421 211.084 214.321C214.428 212.299 217.772 210.082 221.116 207.671C224.383 205.259 227.649 202.693 230.915 199.97C234.104 197.17 237.292 194.214 240.48 191.103C243.669 187.991 246.818 184.763 249.929 181.419C253.04 178.074 256.189 174.729 259.378 171.385C262.488 167.962 265.677 164.579 268.943 161.234C272.132 157.889 275.398 154.623 278.742 151.433C282.086 148.322 285.469 145.327 288.89 142.449C292.39 139.571 296.006 136.927 299.739 134.516C303.394 132.104 307.204 130.004 311.171 128.215C315.137 126.426 319.219 124.909 323.419 123.665C327.54 122.498 331.779 121.681 336.134 121.215C340.411 120.67 344.688 120.437 348.965 120.515C353.242 120.67 357.442 121.098 361.563 121.798C365.685 122.498 369.69 123.548 373.578 124.948C377.467 126.271 381.122 127.904 384.544 129.849C388.043 131.715 391.232 133.932 394.109 136.499C397.064 138.988 399.708 141.788 402.041 144.9C404.296 147.933 406.202 151.278 407.757 154.934C409.312 158.512 410.557 162.323 411.49 166.368C412.423 170.412 413.162 174.652 413.706 179.085C414.251 183.441 414.639 187.875 414.873 192.386C415.184 196.975 415.456 201.565 415.689 206.154C415.923 210.821 416.195 215.41 416.506 219.921C416.895 224.511 417.4 229.022 418.022 233.456C418.644 237.812 419.539 242.051 420.705 246.173C421.872 250.296 423.31 254.185 425.021 257.841C426.81 261.574 428.871 265.075 431.204 268.342C433.615 271.608 436.181 274.681 438.903 277.559C441.547 280.437 444.307 283.198 447.185 285.843C449.984 288.41 452.784 290.86 455.584 293.193C458.306 295.527 460.872 297.744 463.283 299.844C465.771 302.022 467.949 304.083 469.815 306.027C471.759 308.05 473.315 309.994 474.481 311.861C475.57 313.728 476.231 315.595 476.464 317.462C476.62 319.328 476.27 321.195 475.414 323.062C474.559 324.929 473.276 326.834 471.565 328.779C469.854 330.724 467.832 332.707 465.499 334.729C463.244 336.752 460.716 338.852 457.917 341.03C455.195 343.13 452.356 345.386 449.401 347.797C446.524 350.131 443.608 352.581 440.652 355.148C437.697 357.714 434.898 360.398 432.254 363.198C429.532 366.076 427.043 369.11 424.788 372.299C422.533 375.41 420.55 378.716 418.839 382.216Z" stroke="#F15C56" stroke-width="3"/>
<path fill-rule="evenodd" clip-rule="evenodd" d="M402.076 369.828C400.676 372.762 399.477 375.829 398.477 379.029C397.477 382.229 396.61 385.463 395.877 388.729C395.144 391.996 394.511 395.23 393.977 398.43C393.444 401.697 392.911 404.897 392.378 408.031C391.844 411.164 391.244 414.198 390.578 417.131C389.978 419.998 389.245 422.732 388.378 425.332C387.512 427.932 386.478 430.299 385.278 432.432C384.012 434.566 382.512 436.433 380.779 438.033C379.046 439.633 377.08 440.966 374.88 442.033C372.68 443.1 370.281 443.9 367.681 444.433C365.081 445.033 362.348 445.367 359.482 445.433C356.549 445.567 353.55 445.5 350.483 445.233C347.35 444.967 344.184 444.5 340.985 443.833C337.785 443.233 334.586 442.466 331.386 441.533C328.186 440.6 325.02 439.533 321.887 438.333C318.754 437.133 315.688 435.833 312.689 434.433C309.756 433.032 306.923 431.532 304.19 429.932C301.39 428.399 298.691 426.799 296.091 425.132C293.425 423.532 290.825 421.865 288.292 420.132C285.692 418.465 283.126 416.798 280.593 415.131C277.993 413.531 275.36 411.931 272.694 410.331C270.028 408.797 267.295 407.331 264.495 405.931C261.629 404.531 258.663 403.23 255.597 402.03C252.53 400.83 249.297 399.764 245.898 398.83C242.498 397.897 238.932 397.13 235.199 396.53C231.467 395.93 227.6 395.43 223.601 395.03C219.602 394.696 215.602 394.396 211.603 394.13C207.537 393.93 203.504 393.73 199.504 393.53C195.505 393.33 191.606 393.096 187.806 392.83C184.073 392.563 180.507 392.23 177.108 391.83C173.708 391.363 170.608 390.796 167.809 390.13C164.943 389.463 162.41 388.596 160.21 387.529C158.077 386.529 156.344 385.262 155.011 383.729C153.677 382.262 152.744 380.562 152.211 378.629C151.678 376.695 151.444 374.562 151.511 372.228C151.644 369.895 152.011 367.428 152.611 364.828C153.211 362.228 153.977 359.494 154.911 356.627C155.844 353.76 156.877 350.827 158.01 347.827C159.21 344.826 160.377 341.759 161.51 338.626C162.71 335.492 163.876 332.359 165.009 329.225C166.076 326.092 167.009 322.992 167.809 319.925C168.675 316.791 169.375 313.724 169.909 310.724C170.442 307.724 170.875 304.79 171.208 301.923C171.475 299.057 171.708 296.223 171.908 293.423C172.108 290.689 172.275 288.022 172.408 285.422C172.608 282.822 172.808 280.289 173.008 277.822C173.275 275.355 173.608 272.988 174.008 270.721C174.408 268.454 174.941 266.288 175.608 264.221C176.274 262.154 177.108 260.187 178.107 258.32C179.107 256.454 180.34 254.687 181.807 253.02C183.273 251.42 184.94 249.853 186.806 248.32C188.673 246.853 190.706 245.419 192.905 244.019C195.105 242.619 197.405 241.219 199.804 239.819C202.271 238.419 204.837 236.986 207.503 235.519C210.17 234.052 212.869 232.552 215.602 231.018C218.402 229.418 221.201 227.718 224.001 225.918C226.867 224.185 229.734 222.285 232.6 220.218C235.399 218.151 238.199 215.951 240.999 213.617C243.732 211.217 246.465 208.684 249.197 206.017C251.93 203.35 254.63 200.583 257.296 197.716C259.963 194.849 262.662 191.982 265.395 189.116C268.062 186.182 270.794 183.282 273.594 180.415C276.327 177.548 279.127 174.748 281.993 172.014C284.859 169.347 287.759 166.781 290.692 164.314C293.691 161.847 296.791 159.58 299.99 157.513C303.123 155.447 306.389 153.646 309.789 152.113C313.189 150.58 316.688 149.279 320.288 148.213C323.82 147.213 327.453 146.513 331.186 146.113C334.852 145.646 338.518 145.446 342.184 145.513C345.851 145.646 349.45 146.013 352.983 146.613C356.516 147.213 359.949 148.113 363.282 149.313C366.614 150.446 369.747 151.846 372.68 153.513C375.68 155.113 378.413 157.013 380.879 159.213C383.412 161.347 385.678 163.747 387.678 166.414C389.611 169.014 391.244 171.881 392.577 175.015C393.911 178.081 394.977 181.348 395.777 184.815C396.577 188.282 397.21 191.916 397.677 195.716C398.143 199.45 398.477 203.25 398.677 207.117C398.943 211.05 399.177 214.984 399.377 218.918C399.576 222.918 399.81 226.851 400.076 230.718C400.41 234.652 400.843 238.519 401.376 242.319C401.91 246.053 402.676 249.686 403.676 253.22C404.676 256.754 405.909 260.087 407.375 263.221C408.909 266.421 410.675 269.421 412.675 272.221C414.741 275.022 416.941 277.655 419.274 280.122C421.54 282.589 423.906 284.956 426.373 287.222C428.772 289.422 431.172 291.523 433.572 293.523C435.905 295.523 438.104 297.423 440.171 299.223C442.304 301.09 444.17 302.857 445.77 304.524C447.436 306.257 448.77 307.924 449.769 309.524C450.703 311.124 451.269 312.724 451.469 314.324C451.603 315.924 451.303 317.524 450.569 319.125C449.836 320.725 448.736 322.358 447.27 324.025C445.803 325.692 444.07 327.392 442.071 329.125C440.138 330.859 437.971 332.659 435.571 334.526C433.238 336.326 430.805 338.259 428.272 340.326C425.806 342.326 423.306 344.426 420.774 346.626C418.241 348.827 415.841 351.127 413.575 353.527C411.242 355.994 409.108 358.594 407.175 361.327C405.242 363.994 403.543 366.828 402.076 369.828Z" stroke="#F15C56" stroke-width="3"/>
<path fill-rule="evenodd" clip-rule="evenodd" d="M385.313 354.962C384.147 357.309 383.147 359.763 382.314 362.323C381.481 364.883 380.759 367.47 380.148 370.084C379.536 372.697 379.009 375.284 378.564 377.844C378.12 380.458 377.676 383.018 377.231 385.525C376.787 388.031 376.287 390.458 375.731 392.805C375.232 395.099 374.62 397.285 373.898 399.366C373.176 401.446 372.315 403.339 371.315 405.046C370.26 406.753 369.01 408.246 367.566 409.526C366.122 410.806 364.483 411.873 362.65 412.726C360.817 413.58 358.817 414.22 356.651 414.647C354.484 415.127 352.207 415.393 349.818 415.447C347.374 415.553 344.875 415.5 342.319 415.287C339.709 415.073 337.07 414.7 334.404 414.167C331.738 413.687 329.071 413.073 326.405 412.326C323.739 411.58 321.1 410.726 318.489 409.766C315.879 408.806 313.323 407.766 310.824 406.646C308.38 405.526 306.019 404.326 303.741 403.046C301.408 401.819 299.159 400.539 296.992 399.206C294.771 397.925 292.604 396.592 290.493 395.205C288.327 393.872 286.188 392.538 284.078 391.205C281.911 389.925 279.717 388.645 277.495 387.365C275.273 386.138 272.996 384.965 270.663 383.844C268.274 382.724 265.802 381.684 263.247 380.724C260.692 379.764 257.998 378.911 255.165 378.164C252.332 377.417 249.36 376.804 246.25 376.324C243.139 375.844 239.917 375.444 236.584 375.124C233.251 374.857 229.918 374.617 226.586 374.404C223.197 374.244 219.837 374.084 216.504 373.924C213.171 373.764 209.921 373.577 206.755 373.364C203.644 373.15 200.673 372.884 197.84 372.564C195.007 372.19 192.424 371.737 190.091 371.204C187.702 370.67 185.591 369.977 183.758 369.123C181.981 368.323 180.536 367.31 179.426 366.083C178.315 364.91 177.537 363.55 177.093 362.003C176.648 360.456 176.454 358.749 176.509 356.883C176.62 355.016 176.926 353.042 177.426 350.962C177.926 348.882 178.565 346.695 179.342 344.402C180.12 342.108 180.981 339.761 181.925 337.361C182.925 334.961 183.897 332.508 184.841 330.001C185.841 327.494 186.813 324.987 187.758 322.48C188.646 319.973 189.424 317.493 190.091 315.04C190.813 312.533 191.396 310.079 191.84 307.679C192.285 305.279 192.646 302.932 192.924 300.639C193.146 298.345 193.34 296.078 193.507 293.838C193.674 291.651 193.812 289.518 193.923 287.438C194.09 285.358 194.257 283.331 194.423 281.357C194.646 279.384 194.923 277.49 195.257 275.677C195.59 273.863 196.034 272.13 196.59 270.477C197.145 268.823 197.84 267.25 198.673 265.756C199.506 264.263 200.534 262.849 201.756 261.516C202.978 260.236 204.366 258.982 205.922 257.756C207.477 256.582 209.171 255.436 211.004 254.315C212.838 253.195 214.754 252.075 216.754 250.955C218.809 249.835 220.948 248.688 223.169 247.515C225.391 246.342 227.641 245.142 229.918 243.915C232.251 242.635 234.584 241.275 236.917 239.834C239.306 238.448 241.695 236.928 244.083 235.274C246.416 233.621 248.749 231.861 251.082 229.994C253.36 228.074 255.637 226.047 257.915 223.913C260.192 221.78 262.442 219.566 264.664 217.273C266.886 214.979 269.135 212.686 271.413 210.392C273.635 208.046 275.912 205.725 278.245 203.432C280.523 201.138 282.856 198.898 285.244 196.711C287.633 194.578 290.049 192.525 292.493 190.551C294.993 188.578 297.576 186.764 300.242 185.111C302.853 183.457 305.575 182.017 308.408 180.79C311.24 179.564 314.157 178.524 317.156 177.67C320.1 176.87 323.128 176.31 326.238 175.99C329.293 175.617 332.349 175.457 335.404 175.51C338.459 175.617 341.458 175.91 344.402 176.39C347.347 176.87 350.207 177.59 352.985 178.55C355.762 179.457 358.373 180.577 360.817 181.91C363.317 183.191 365.594 184.711 367.649 186.471C369.76 188.178 371.649 190.098 373.315 192.231C374.926 194.311 376.287 196.605 377.398 199.112C378.509 201.565 379.398 204.179 380.064 206.952C380.731 209.726 381.258 212.633 381.647 215.673C382.036 218.66 382.314 221.7 382.481 224.793C382.703 227.94 382.897 231.087 383.064 234.234C383.23 237.434 383.425 240.581 383.647 243.675C383.925 246.822 384.286 249.915 384.73 252.955C385.175 255.942 385.813 258.849 386.647 261.676C387.48 264.503 388.507 267.17 389.729 269.677C391.007 272.237 392.479 274.637 394.146 276.877C395.868 279.117 397.701 281.224 399.645 283.197C401.533 285.171 403.505 287.064 405.561 288.878C407.56 290.638 409.56 292.318 411.56 293.918C413.504 295.518 415.337 297.038 417.059 298.479C418.837 299.972 420.392 301.385 421.725 302.719C423.114 304.106 424.225 305.439 425.058 306.719C425.836 307.999 426.308 309.279 426.474 310.559C426.585 311.839 426.335 313.12 425.724 314.4C425.113 315.68 424.197 316.986 422.975 318.32C421.753 319.653 420.309 321.013 418.642 322.4C417.031 323.787 415.226 325.227 413.226 326.72C411.282 328.161 409.255 329.707 407.144 331.361C405.088 332.961 403.005 334.641 400.895 336.401C398.784 338.161 396.784 340.001 394.895 341.922C392.951 343.895 391.174 345.975 389.563 348.162C387.952 350.295 386.535 352.562 385.313 354.962Z" stroke="#F15C56" stroke-width="3"/>
<path fill-rule="evenodd" clip-rule="evenodd" d="M368.551 345.052C367.618 347.008 366.818 349.052 366.151 351.186C365.485 353.319 364.907 355.475 364.418 357.653C363.929 359.831 363.507 361.987 363.152 364.12C362.796 366.298 362.441 368.431 362.085 370.521C361.729 372.61 361.33 374.632 360.885 376.588C360.485 378.499 359.996 380.321 359.419 382.055C358.841 383.788 358.152 385.366 357.352 386.788C356.508 388.211 355.508 389.455 354.353 390.522C353.197 391.589 351.886 392.478 350.42 393.189C348.954 393.9 347.354 394.433 345.621 394.789C343.888 395.189 342.066 395.411 340.155 395.456C338.199 395.544 336.2 395.5 334.156 395.322C332.067 395.144 329.956 394.833 327.823 394.389C325.69 393.989 323.557 393.478 321.424 392.855C319.291 392.233 317.18 391.522 315.092 390.722C313.003 389.922 310.959 389.055 308.959 388.122C307.004 387.188 305.115 386.188 303.293 385.122C301.427 384.099 299.627 383.032 297.894 381.921C296.116 380.855 294.383 379.743 292.695 378.588C290.962 377.477 289.251 376.365 287.562 375.254C285.829 374.187 284.074 373.121 282.296 372.054C280.519 371.032 278.697 370.054 276.83 369.12C274.919 368.187 272.942 367.32 270.898 366.52C268.854 365.72 266.698 365.009 264.432 364.387C262.166 363.764 259.788 363.253 257.3 362.853C254.811 362.453 252.234 362.12 249.567 361.853C246.901 361.631 244.235 361.431 241.568 361.253C238.858 361.12 236.169 360.986 233.503 360.853C230.837 360.72 228.237 360.564 225.704 360.386C223.215 360.209 220.838 359.986 218.572 359.72C216.305 359.409 214.239 359.031 212.373 358.586C210.462 358.142 208.773 357.564 207.307 356.853C205.885 356.186 204.729 355.342 203.84 354.319C202.952 353.342 202.33 352.208 201.974 350.919C201.619 349.63 201.463 348.208 201.507 346.652C201.596 345.097 201.841 343.452 202.241 341.718C202.641 339.985 203.152 338.163 203.774 336.251C204.396 334.34 205.085 332.385 205.84 330.384C206.64 328.384 207.418 326.34 208.173 324.251C208.973 322.162 209.751 320.073 210.506 317.984C211.217 315.894 211.839 313.828 212.373 311.783C212.95 309.694 213.417 307.649 213.772 305.649C214.128 303.649 214.417 301.693 214.639 299.782C214.817 297.871 214.972 295.982 215.106 294.115C215.239 292.293 215.35 290.515 215.439 288.781C215.572 287.048 215.705 285.359 215.839 283.714C216.016 282.07 216.239 280.492 216.505 278.981C216.772 277.47 217.127 276.025 217.572 274.647C218.016 273.269 218.572 271.958 219.238 270.714C219.905 269.469 220.727 268.291 221.705 267.18C222.682 266.113 223.793 265.069 225.037 264.046C226.282 263.069 227.637 262.113 229.104 261.18C230.57 260.246 232.103 259.313 233.703 258.379C235.347 257.446 237.058 256.49 238.836 255.513C240.613 254.535 242.413 253.535 244.235 252.512C246.101 251.446 247.968 250.312 249.834 249.112C251.745 247.956 253.656 246.69 255.567 245.312C257.433 243.934 259.299 242.467 261.166 240.911C262.988 239.311 264.81 237.622 266.632 235.844C268.454 234.067 270.253 232.222 272.031 230.311C273.808 228.4 275.608 226.488 277.43 224.577C279.208 222.621 281.03 220.688 282.896 218.777C284.718 216.865 286.584 214.999 288.495 213.176C290.406 211.398 292.339 209.687 294.294 208.043C296.294 206.398 298.361 204.887 300.494 203.509C302.582 202.131 304.76 200.931 307.026 199.909C309.292 198.886 311.625 198.02 314.025 197.308C316.38 196.642 318.802 196.175 321.291 195.908C323.735 195.597 326.179 195.464 328.623 195.508C331.067 195.597 333.467 195.842 335.822 196.242C338.177 196.642 340.466 197.242 342.688 198.042C344.91 198.797 346.998 199.731 348.953 200.842C350.953 201.909 352.775 203.176 354.419 204.642C356.108 206.065 357.619 207.665 358.952 209.443C360.241 211.176 361.33 213.087 362.218 215.176C363.107 217.221 363.818 219.399 364.351 221.71C364.885 224.021 365.307 226.444 365.618 228.977C365.929 231.466 366.151 234 366.284 236.578C366.462 239.2 366.618 241.823 366.751 244.445C366.884 247.112 367.04 249.734 367.218 252.312C367.44 254.935 367.729 257.513 368.084 260.046C368.44 262.535 368.951 264.958 369.617 267.313C370.284 269.669 371.106 271.891 372.084 273.98C373.106 276.114 374.283 278.114 375.616 279.981C376.994 281.848 378.46 283.603 380.016 285.248C381.527 286.892 383.104 288.47 384.748 289.982C386.348 291.448 387.948 292.848 389.548 294.182C391.103 295.515 392.57 296.782 393.947 297.982C395.369 299.227 396.614 300.405 397.68 301.516C398.791 302.671 399.68 303.783 400.346 304.849C400.968 305.916 401.346 306.983 401.479 308.049C401.568 309.116 401.368 310.183 400.88 311.25C400.391 312.316 399.658 313.405 398.68 314.517C397.702 315.628 396.547 316.761 395.214 317.917C393.925 319.072 392.481 320.273 390.881 321.517C389.326 322.717 387.704 324.006 386.015 325.384C384.371 326.717 382.704 328.118 381.016 329.584C379.327 331.051 377.727 332.585 376.216 334.185C374.661 335.829 373.239 337.563 371.95 339.385C370.662 341.163 369.528 343.052 368.551 345.052Z" stroke="#F15C56" stroke-width="3"/>
<path fill-rule="evenodd" clip-rule="evenodd" d="M351.788 332.664C351.088 334.131 350.488 335.664 349.988 337.264C349.488 338.864 349.055 340.481 348.689 342.115C348.322 343.748 348.005 345.365 347.739 346.965C347.472 348.598 347.205 350.199 346.939 351.765C346.672 353.332 346.372 354.849 346.039 356.316C345.739 357.749 345.372 359.116 344.939 360.416C344.506 361.716 343.989 362.899 343.389 363.966C342.756 365.033 342.006 365.966 341.14 366.766C340.273 367.566 339.29 368.233 338.19 368.767C337.09 369.3 335.89 369.7 334.59 369.967C333.291 370.267 331.924 370.433 330.491 370.467C329.025 370.533 327.525 370.5 325.992 370.367C324.425 370.233 322.842 370 321.242 369.667C319.643 369.367 318.043 368.983 316.443 368.517C314.843 368.05 313.26 367.516 311.694 366.916C310.127 366.316 308.594 365.666 307.094 364.966C305.628 364.266 304.211 363.516 302.845 362.716C301.445 361.949 300.095 361.149 298.795 360.316C297.462 359.516 296.163 358.683 294.896 357.816C293.596 356.982 292.313 356.149 291.047 355.316C289.747 354.516 288.43 353.716 287.097 352.915C285.764 352.149 284.397 351.415 282.998 350.715C281.565 350.015 280.081 349.365 278.548 348.765C277.015 348.165 275.399 347.632 273.699 347.165C271.999 346.698 270.216 346.315 268.35 346.015C266.483 345.715 264.55 345.465 262.551 345.265C260.551 345.098 258.551 344.948 256.551 344.815C254.518 344.715 252.502 344.615 250.502 344.515C248.502 344.415 246.553 344.298 244.653 344.165C242.787 344.032 241.004 343.865 239.304 343.665C237.604 343.431 236.054 343.148 234.654 342.815C233.221 342.481 231.955 342.048 230.855 341.515C229.788 341.015 228.922 340.381 228.255 339.615C227.589 338.881 227.122 338.031 226.856 337.064C226.589 336.098 226.472 335.031 226.506 333.864C226.572 332.697 226.756 331.464 227.055 330.164C227.355 328.864 227.739 327.497 228.205 326.064C228.672 324.63 229.189 323.163 229.755 321.663C230.355 320.163 230.938 318.63 231.505 317.063C232.105 315.496 232.688 313.929 233.255 312.363C233.788 310.796 234.254 309.246 234.654 307.712C235.088 306.146 235.438 304.612 235.704 303.112C235.971 301.612 236.188 300.145 236.354 298.712C236.487 297.278 236.604 295.861 236.704 294.461C236.804 293.095 236.887 291.761 236.954 290.461C237.054 289.161 237.154 287.894 237.254 286.661C237.387 285.427 237.554 284.244 237.754 283.111C237.954 281.977 238.221 280.894 238.554 279.86C238.887 278.827 239.304 277.844 239.804 276.91C240.304 275.977 240.92 275.093 241.653 274.26C242.387 273.46 243.22 272.677 244.153 271.91C245.086 271.176 246.103 270.46 247.203 269.76C248.303 269.06 249.452 268.36 250.652 267.66C251.885 266.959 253.169 266.243 254.502 265.509C255.835 264.776 257.185 264.026 258.551 263.259C259.951 262.459 261.351 261.609 262.75 260.709C264.184 259.842 265.617 258.892 267.05 257.859C268.45 256.825 269.85 255.725 271.249 254.559C272.616 253.359 273.982 252.092 275.349 250.758C276.715 249.425 278.065 248.041 279.398 246.608C280.731 245.175 282.081 243.741 283.448 242.308C284.781 240.841 286.147 239.391 287.547 237.957C288.914 236.524 290.313 235.124 291.746 233.757C293.18 232.424 294.629 231.14 296.096 229.907C297.596 228.673 299.145 227.54 300.745 226.507C302.312 225.473 303.945 224.573 305.645 223.806C307.344 223.04 309.094 222.39 310.894 221.856C312.66 221.356 314.477 221.006 316.343 220.806C318.176 220.573 320.009 220.473 321.842 220.506C323.675 220.573 325.475 220.756 327.241 221.056C329.008 221.356 330.724 221.806 332.391 222.406C334.057 222.973 335.624 223.673 337.09 224.507C338.59 225.307 339.956 226.257 341.19 227.357C342.456 228.423 343.589 229.624 344.589 230.957C345.556 232.257 346.372 233.691 347.039 235.257C347.705 236.791 348.239 238.424 348.639 240.158C349.038 241.891 349.355 243.708 349.588 245.608C349.822 247.475 349.988 249.375 350.088 251.308C350.222 253.275 350.338 255.242 350.438 257.209C350.538 259.209 350.655 261.176 350.788 263.109C350.955 265.076 351.171 267.009 351.438 268.91C351.705 270.776 352.088 272.593 352.588 274.36C353.088 276.127 353.704 277.794 354.438 279.36C355.204 280.96 356.087 282.461 357.087 283.861C358.121 285.261 359.22 286.578 360.387 287.811C361.52 289.044 362.703 290.228 363.936 291.361C365.136 292.461 366.336 293.511 367.536 294.511C368.702 295.511 369.802 296.462 370.835 297.362C371.902 298.295 372.835 299.178 373.635 300.012C374.468 300.879 375.135 301.712 375.635 302.512C376.101 303.312 376.385 304.112 376.485 304.912C376.551 305.712 376.401 306.512 376.035 307.312C375.668 308.112 375.118 308.929 374.385 309.762C373.652 310.596 372.785 311.446 371.785 312.313C370.819 313.179 369.736 314.079 368.536 315.013C367.369 315.913 366.153 316.88 364.886 317.913C363.653 318.913 362.403 319.963 361.137 321.063C359.87 322.163 358.67 323.313 357.537 324.513C356.371 325.747 355.304 327.047 354.338 328.414C353.371 329.747 352.521 331.164 351.788 332.664Z" stroke="#F15C56" stroke-width="3"/>
<path fill-rule="evenodd" clip-rule="evenodd" d="M335.025 320.276C334.559 321.254 334.159 322.276 333.826 323.343C333.492 324.41 333.203 325.488 332.959 326.576C332.715 327.665 332.504 328.743 332.326 329.81C332.148 330.899 331.97 331.966 331.793 333.01C331.615 334.055 331.415 335.066 331.193 336.044C330.993 336.999 330.748 337.911 330.459 338.777C330.171 339.644 329.826 340.433 329.426 341.144C329.004 341.855 328.504 342.478 327.926 343.011C327.349 343.544 326.693 343.989 325.96 344.344C325.227 344.7 324.427 344.967 323.56 345.144C322.694 345.344 321.783 345.456 320.827 345.478C319.85 345.522 318.85 345.5 317.828 345.411C316.783 345.322 315.728 345.167 314.662 344.944C313.595 344.744 312.529 344.489 311.462 344.178C310.395 343.867 309.34 343.511 308.296 343.111C307.251 342.711 306.229 342.278 305.23 341.811C304.252 341.344 303.308 340.844 302.397 340.311C301.463 339.8 300.564 339.266 299.697 338.711C298.808 338.177 297.942 337.622 297.097 337.044C296.231 336.488 295.375 335.933 294.531 335.377C293.664 334.844 292.787 334.31 291.898 333.777C291.009 333.266 290.098 332.777 289.165 332.31C288.21 331.844 287.221 331.41 286.199 331.01C285.177 330.61 284.099 330.255 282.966 329.943C281.833 329.632 280.644 329.377 279.4 329.177C278.156 328.977 276.867 328.81 275.534 328.677C274.201 328.565 272.867 328.465 271.534 328.377C270.179 328.31 268.835 328.243 267.501 328.177C266.168 328.11 264.869 328.032 263.602 327.943C262.358 327.854 261.169 327.743 260.036 327.61C258.903 327.454 257.869 327.265 256.936 327.043C255.981 326.821 255.137 326.532 254.403 326.176C253.692 325.843 253.115 325.421 252.67 324.91C252.226 324.421 251.915 323.854 251.737 323.21C251.559 322.565 251.481 321.854 251.504 321.076C251.548 320.298 251.67 319.476 251.87 318.609C252.07 317.743 252.326 316.831 252.637 315.876C252.948 314.92 253.292 313.942 253.67 312.942C254.07 311.942 254.459 310.92 254.837 309.875C255.237 308.831 255.625 307.786 256.003 306.742C256.359 305.697 256.67 304.664 256.936 303.642C257.225 302.597 257.458 301.575 257.636 300.575C257.814 299.575 257.958 298.597 258.069 297.641C258.158 296.686 258.236 295.741 258.303 294.808C258.369 293.896 258.425 293.007 258.469 292.141C258.536 291.274 258.603 290.43 258.669 289.607C258.758 288.785 258.869 287.996 259.003 287.24C259.136 286.485 259.314 285.763 259.536 285.074C259.758 284.385 260.036 283.729 260.369 283.107C260.702 282.485 261.113 281.896 261.602 281.34C262.091 280.807 262.647 280.284 263.269 279.773C263.891 279.284 264.569 278.806 265.302 278.34C266.035 277.873 266.802 277.406 267.601 276.94C268.424 276.473 269.279 275.995 270.168 275.506C271.057 275.017 271.956 274.517 272.867 274.006C273.801 273.473 274.734 272.906 275.667 272.306C276.622 271.728 277.578 271.095 278.533 270.406C279.466 269.717 280.4 268.984 281.333 268.206C282.244 267.406 283.155 266.561 284.066 265.672C284.977 264.783 285.877 263.861 286.765 262.905C287.654 261.95 288.554 260.994 289.465 260.039C290.354 259.061 291.265 258.094 292.198 257.138C293.109 256.183 294.042 255.249 294.998 254.338C295.953 253.449 296.92 252.594 297.897 251.771C298.897 250.949 299.93 250.193 300.997 249.504C302.041 248.816 303.13 248.215 304.263 247.704C305.396 247.193 306.563 246.76 307.763 246.404C308.94 246.071 310.151 245.838 311.395 245.704C312.617 245.549 313.839 245.482 315.061 245.504C316.284 245.549 317.483 245.671 318.661 245.871C319.839 246.071 320.983 246.371 322.094 246.771C323.205 247.149 324.249 247.615 325.227 248.171C326.227 248.704 327.138 249.338 327.96 250.071C328.804 250.782 329.559 251.582 330.226 252.471C330.87 253.338 331.415 254.294 331.859 255.338C332.304 256.36 332.659 257.449 332.926 258.605C333.192 259.761 333.403 260.972 333.559 262.239C333.714 263.483 333.826 264.75 333.892 266.039C333.981 267.35 334.059 268.661 334.126 269.973C334.192 271.306 334.27 272.617 334.359 273.906C334.47 275.217 334.614 276.506 334.792 277.773C334.97 279.018 335.225 280.229 335.559 281.407C335.892 282.585 336.303 283.696 336.792 284.74C337.303 285.807 337.892 286.807 338.558 287.74C339.247 288.674 339.98 289.552 340.758 290.374C341.513 291.196 342.302 291.985 343.124 292.741C343.924 293.474 344.724 294.174 345.524 294.841C346.302 295.508 347.035 296.141 347.724 296.741C348.435 297.363 349.057 297.952 349.59 298.508C350.145 299.086 350.59 299.641 350.923 300.175C351.234 300.708 351.423 301.241 351.49 301.775C351.534 302.308 351.434 302.841 351.19 303.375C350.945 303.908 350.579 304.453 350.09 305.008C349.601 305.564 349.023 306.131 348.357 306.708C347.713 307.286 346.99 307.886 346.19 308.509C345.413 309.109 344.602 309.753 343.757 310.442C342.935 311.109 342.102 311.809 341.258 312.542C340.414 313.276 339.614 314.042 338.858 314.842C338.081 315.665 337.369 316.531 336.725 317.442C336.081 318.331 335.514 319.276 335.025 320.276Z" stroke="#F15C56" stroke-width="3"/>
<path fill-rule="evenodd" clip-rule="evenodd" d="M318.263 307.888C318.029 308.377 317.829 308.888 317.663 309.421C317.496 309.955 317.352 310.494 317.23 311.038C317.107 311.583 317.002 312.122 316.913 312.655C316.824 313.199 316.735 313.733 316.646 314.255C316.557 314.777 316.457 315.283 316.346 315.772C316.246 316.25 316.124 316.705 315.98 317.139C315.835 317.572 315.663 317.966 315.463 318.322C315.252 318.678 315.002 318.989 314.713 319.255C314.424 319.522 314.097 319.744 313.73 319.922C313.363 320.1 312.963 320.233 312.53 320.322C312.097 320.422 311.641 320.478 311.164 320.489C310.675 320.511 310.175 320.5 309.664 320.456C309.142 320.411 308.614 320.333 308.081 320.222C307.548 320.122 307.014 319.994 306.481 319.839C305.948 319.683 305.42 319.505 304.898 319.305C304.376 319.105 303.865 318.889 303.365 318.655C302.876 318.422 302.404 318.172 301.948 317.905C301.482 317.65 301.032 317.383 300.598 317.105C300.154 316.839 299.721 316.561 299.299 316.272C298.865 315.994 298.438 315.716 298.016 315.439C297.582 315.172 297.143 314.905 296.699 314.638C296.255 314.383 295.799 314.138 295.333 313.905C294.855 313.672 294.36 313.455 293.849 313.255C293.338 313.055 292.8 312.877 292.233 312.722C291.666 312.566 291.072 312.438 290.45 312.338C289.828 312.238 289.183 312.155 288.517 312.088C287.85 312.033 287.184 311.983 286.517 311.938C285.839 311.905 285.167 311.872 284.501 311.838C283.834 311.805 283.184 311.766 282.551 311.722C281.929 311.677 281.335 311.622 280.768 311.555C280.201 311.477 279.685 311.383 279.218 311.272C278.74 311.16 278.318 311.016 277.952 310.838C277.596 310.672 277.307 310.46 277.085 310.205C276.863 309.96 276.707 309.677 276.619 309.355C276.53 309.033 276.491 308.677 276.502 308.288C276.524 307.899 276.585 307.488 276.685 307.055C276.785 306.621 276.913 306.166 277.068 305.688C277.224 305.21 277.396 304.721 277.585 304.221C277.785 303.721 277.979 303.21 278.168 302.688C278.368 302.165 278.563 301.643 278.752 301.121C278.929 300.599 279.085 300.082 279.218 299.571C279.363 299.049 279.479 298.537 279.568 298.037C279.657 297.537 279.729 297.048 279.785 296.571C279.829 296.093 279.868 295.62 279.901 295.154C279.935 294.698 279.962 294.254 279.985 293.82C280.018 293.387 280.051 292.965 280.085 292.554C280.129 292.142 280.185 291.748 280.251 291.37C280.318 290.992 280.407 290.631 280.518 290.287C280.629 289.942 280.768 289.615 280.935 289.303C281.101 288.992 281.307 288.698 281.551 288.42C281.796 288.153 282.073 287.892 282.384 287.637C282.695 287.392 283.034 287.153 283.401 286.92C283.768 286.687 284.151 286.453 284.551 286.22C284.962 285.986 285.39 285.748 285.834 285.503C286.278 285.259 286.728 285.009 287.184 284.753C287.65 284.486 288.117 284.203 288.583 283.903C289.061 283.614 289.539 283.297 290.017 282.953C290.483 282.608 290.95 282.242 291.416 281.853C291.872 281.453 292.327 281.031 292.783 280.586C293.238 280.142 293.688 279.68 294.133 279.203C294.577 278.725 295.027 278.247 295.483 277.769C295.927 277.28 296.382 276.797 296.849 276.319C297.305 275.841 297.771 275.375 298.249 274.919C298.727 274.475 299.21 274.047 299.699 273.636C300.199 273.224 300.715 272.847 301.248 272.502C301.771 272.158 302.315 271.858 302.882 271.602C303.448 271.347 304.031 271.13 304.631 270.952C305.22 270.785 305.826 270.669 306.448 270.602C307.059 270.524 307.67 270.491 308.281 270.502C308.892 270.524 309.492 270.585 310.08 270.685C310.669 270.785 311.241 270.935 311.797 271.135C312.352 271.324 312.875 271.558 313.363 271.836C313.863 272.102 314.319 272.419 314.73 272.786C315.152 273.141 315.53 273.541 315.863 273.986C316.185 274.419 316.457 274.897 316.68 275.419C316.902 275.93 317.08 276.475 317.213 277.053C317.346 277.63 317.452 278.236 317.529 278.869C317.607 279.492 317.663 280.125 317.696 280.769C317.741 281.425 317.779 282.081 317.813 282.736C317.846 283.403 317.885 284.059 317.929 284.703C317.985 285.359 318.057 286.003 318.146 286.637C318.235 287.259 318.363 287.864 318.529 288.453C318.696 289.042 318.901 289.598 319.146 290.12C319.401 290.653 319.696 291.154 320.029 291.62C320.374 292.087 320.74 292.526 321.129 292.937C321.507 293.348 321.901 293.743 322.312 294.12C322.712 294.487 323.112 294.837 323.512 295.17C323.901 295.504 324.267 295.821 324.612 296.121C324.967 296.432 325.278 296.726 325.545 297.004C325.823 297.293 326.045 297.571 326.212 297.837C326.367 298.104 326.462 298.371 326.495 298.637C326.517 298.904 326.467 299.171 326.345 299.437C326.223 299.704 326.039 299.976 325.795 300.254C325.551 300.532 325.262 300.815 324.928 301.104C324.606 301.393 324.245 301.693 323.845 302.004C323.456 302.304 323.051 302.627 322.629 302.971C322.218 303.304 321.801 303.654 321.379 304.021C320.957 304.388 320.557 304.771 320.179 305.171C319.79 305.582 319.435 306.016 319.113 306.471C318.79 306.916 318.507 307.388 318.263 307.888Z" stroke="#F15C56" stroke-width="3"/>
<path fill-rule="evenodd" clip-rule="evenodd" d="M306.029 298.716C305.959 298.863 305.899 299.016 305.849 299.176C305.799 299.336 305.756 299.498 305.719 299.661C305.682 299.825 305.651 299.986 305.624 300.147C305.597 300.31 305.571 300.47 305.544 300.627C305.517 300.783 305.487 300.935 305.454 301.082C305.424 301.225 305.387 301.362 305.344 301.492C305.301 301.622 305.249 301.74 305.189 301.847C305.126 301.953 305.051 302.047 304.964 302.127C304.877 302.207 304.779 302.273 304.669 302.327C304.559 302.38 304.439 302.42 304.309 302.447C304.179 302.477 304.042 302.493 303.899 302.497C303.752 302.503 303.602 302.5 303.449 302.487C303.293 302.473 303.134 302.45 302.974 302.417C302.814 302.387 302.654 302.348 302.494 302.302C302.334 302.255 302.176 302.202 302.019 302.142C301.863 302.082 301.709 302.017 301.559 301.947C301.413 301.877 301.271 301.802 301.134 301.722C300.995 301.645 300.86 301.565 300.73 301.482C300.596 301.402 300.466 301.318 300.34 301.232C300.21 301.148 300.081 301.065 299.955 300.982C299.825 300.902 299.693 300.822 299.56 300.742C299.426 300.665 299.29 300.592 299.15 300.522C299.006 300.452 298.858 300.387 298.705 300.327C298.552 300.267 298.39 300.213 298.22 300.167C298.05 300.12 297.872 300.081 297.685 300.051C297.498 300.021 297.305 299.996 297.105 299.976C296.905 299.96 296.705 299.945 296.505 299.931C296.302 299.921 296.1 299.911 295.9 299.901C295.7 299.891 295.505 299.88 295.315 299.866C295.129 299.853 294.95 299.836 294.78 299.816C294.61 299.793 294.455 299.765 294.315 299.731C294.172 299.698 294.045 299.655 293.935 299.601C293.829 299.551 293.742 299.488 293.676 299.411C293.609 299.338 293.562 299.253 293.536 299.156C293.509 299.06 293.497 298.953 293.501 298.836C293.507 298.72 293.526 298.596 293.556 298.466C293.586 298.336 293.624 298.2 293.671 298.056C293.717 297.913 293.769 297.766 293.826 297.616C293.886 297.466 293.944 297.313 294 297.156C294.06 297 294.119 296.843 294.175 296.686C294.229 296.53 294.275 296.375 294.315 296.221C294.359 296.065 294.394 295.911 294.42 295.761C294.447 295.611 294.469 295.465 294.485 295.321C294.499 295.178 294.51 295.036 294.52 294.896C294.53 294.759 294.539 294.626 294.545 294.496C294.555 294.366 294.565 294.239 294.575 294.116C294.589 293.993 294.605 293.874 294.625 293.761C294.645 293.648 294.672 293.539 294.705 293.436C294.739 293.333 294.78 293.234 294.83 293.141C294.88 293.048 294.942 292.959 295.015 292.876C295.089 292.796 295.172 292.718 295.265 292.641C295.359 292.568 295.46 292.496 295.57 292.426C295.68 292.356 295.795 292.286 295.915 292.216C296.039 292.146 296.167 292.074 296.3 292.001C296.433 291.928 296.568 291.853 296.705 291.776C296.845 291.696 296.985 291.611 297.125 291.521C297.268 291.434 297.412 291.339 297.555 291.236C297.695 291.133 297.835 291.023 297.975 290.906C298.112 290.786 298.248 290.659 298.385 290.526C298.522 290.392 298.657 290.254 298.79 290.111C298.923 289.967 299.058 289.824 299.195 289.681C299.328 289.534 299.465 289.389 299.605 289.246C299.741 289.102 299.881 288.962 300.025 288.826C300.168 288.692 300.313 288.564 300.46 288.441C300.61 288.317 300.765 288.204 300.925 288.101C301.081 287.997 301.244 287.907 301.414 287.831C301.584 287.754 301.759 287.689 301.939 287.636C302.116 287.586 302.298 287.551 302.484 287.531C302.668 287.507 302.851 287.497 303.034 287.501C303.218 287.507 303.398 287.526 303.574 287.556C303.751 287.586 303.922 287.631 304.089 287.691C304.256 287.747 304.412 287.817 304.559 287.901C304.709 287.981 304.846 288.076 304.969 288.186C305.096 288.292 305.209 288.412 305.309 288.546C305.406 288.676 305.487 288.819 305.554 288.976C305.621 289.129 305.674 289.292 305.714 289.466C305.754 289.639 305.786 289.821 305.809 290.011C305.832 290.197 305.849 290.387 305.859 290.581C305.872 290.778 305.884 290.974 305.894 291.171C305.904 291.371 305.915 291.568 305.929 291.761C305.945 291.958 305.967 292.151 305.994 292.341C306.02 292.528 306.059 292.709 306.109 292.886C306.159 293.063 306.22 293.229 306.294 293.386C306.37 293.546 306.459 293.696 306.559 293.836C306.662 293.976 306.772 294.108 306.889 294.231C307.002 294.354 307.12 294.473 307.244 294.586C307.364 294.696 307.484 294.801 307.604 294.901C307.72 295.001 307.83 295.096 307.934 295.186C308.04 295.279 308.134 295.368 308.214 295.451C308.297 295.538 308.363 295.621 308.413 295.701C308.46 295.781 308.488 295.861 308.498 295.941C308.505 296.021 308.49 296.101 308.453 296.181C308.417 296.261 308.362 296.343 308.288 296.426C308.215 296.51 308.129 296.595 308.029 296.681C307.932 296.768 307.824 296.858 307.704 296.951C307.587 297.041 307.465 297.138 307.339 297.241C307.215 297.341 307.09 297.446 306.964 297.556C306.837 297.666 306.717 297.781 306.604 297.901C306.487 298.025 306.38 298.155 306.284 298.291C306.187 298.425 306.102 298.566 306.029 298.716Z" stroke="#F15C56" stroke-width="3"/>
</svg>
