<svg width="402" height="221" viewBox="0 0 402 221" fill="none" xmlns="http://www.w3.org/2000/svg">
<path fill-rule="evenodd" clip-rule="evenodd" d="M162.271 1.04688C149.415 4.37258 139.603 15.1075 136.448 29.2992C135.41 33.9689 136.117 46.2437 137.504 47.6355C137.719 47.8513 137.901 48.3153 137.909 48.6668C137.917 49.0187 138.281 50.0487 138.719 50.9563C139.157 51.8638 139.521 52.7424 139.529 52.9083C139.537 53.0745 140.296 54.4424 141.217 55.9481C142.137 57.4534 142.81 58.8959 142.711 59.1538C142.612 59.4112 140.698 59.9351 138.458 60.3175C130.372 61.699 122.759 64.7714 115.468 69.5966C110.725 72.735 102.911 80.291 98.9098 85.6075C95.0557 90.7285 90.7014 98.3316 88.0427 104.583C87.5602 105.718 87.0026 107.017 86.8036 107.471C84.9856 111.62 82.3372 121.177 80.8027 129.128C79.8973 133.818 79.5079 152.148 80.2027 157.385C81.1228 164.325 81.155 165.018 80.5542 165.009C79.8429 164.999 77.0664 163.157 73.406 160.266C66.4264 154.755 56.9859 151.574 54.2329 153.806C53.4153 154.468 53.3399 154.789 53.5971 156.507C53.8307 158.066 54.5015 159.258 56.9459 162.458C58.6272 164.659 61.1177 167.659 62.4809 169.125C63.8436 170.59 64.9586 172.145 64.9586 172.581C64.9586 173.279 64.7559 173.34 63.2304 173.096C62.2798 172.944 57.5974 171.541 52.8257 169.978C42.9055 166.73 40.4039 166.102 34.6934 165.427C28.4226 164.685 24.1391 165.474 22.7269 167.632C22.1088 168.576 22.106 168.776 22.6948 169.915C23.4237 171.327 26.3235 173.885 28.6096 175.134C33.7729 177.954 36.1138 179.547 36.1138 180.24C36.1138 180.902 35.1409 181.121 27.7694 182.123C13.8069 184.02 4.95319 186.701 1.61255 190.046C-1.40751 193.069 -0.406182 194.032 6.50009 194.746C11.0394 195.214 15.4144 195.038 23.7518 194.05C36.2045 192.574 39.1013 192.286 44.1846 192.017C47.1507 191.86 49.9787 191.859 50.4686 192.015C51.5853 192.37 51.6278 193.34 50.5416 193.685C49.1929 194.113 42.2038 198.816 40.5435 200.412C38.4898 202.387 38.4692 203.656 40.4846 204.035C41.3018 204.188 43.03 204.203 44.3251 204.067C46.8016 203.808 47.873 203.554 56.5112 201.172C62.9584 199.394 69.3167 198.167 73.9211 197.811C76.914 197.58 77.3207 197.63 77.3207 198.231C77.3207 198.606 75.7911 200.388 73.9211 202.192C70.6345 205.363 70.5487 205.493 71.3457 206.108C72.5085 207.007 75.8999 206.565 81.5938 204.772C89.52 202.278 95.0194 201.249 101.696 201.011C110.521 200.697 111.503 201.162 107.822 203.913C105.574 205.593 104.298 207.229 104.712 207.9C105.08 208.497 107.244 208.438 109.681 207.766C110.807 207.456 112.841 206.894 114.201 206.518C120.866 204.673 122.746 204.435 130.478 204.453C138.475 204.472 140.115 204.725 150.229 207.493C153.617 208.42 154.696 208.507 155.609 207.93C156.117 207.608 155.976 207.288 154.785 206.057C153.994 205.24 152.466 204.006 151.39 203.315C150.314 202.623 149.433 201.809 149.433 201.507C149.433 200.724 152.491 200.321 158.086 200.366C163.389 200.408 168.546 201.107 178.99 203.197C186.648 204.73 189.235 204.928 190.407 204.07C191.841 203.02 189.886 201.007 184.149 197.623C180.98 195.754 180.474 194.906 182.258 194.458C184.376 193.926 202.245 194.671 209.801 195.606C219.715 196.834 236.741 196.954 240.894 195.826C243.384 195.15 245.033 194.198 245.033 193.435C245.033 192.843 242.964 191.018 241.406 190.235C235.95 187.493 226.065 185.429 214.54 184.625C208.048 184.173 206.298 183.92 206.298 183.436C206.298 182.921 208.097 181.385 211.585 178.923C216.716 175.299 218.656 172.744 217.862 170.654C217.025 168.45 213.049 168.113 207.361 169.763C203.609 170.851 200.826 172.158 192.085 176.939C189.14 178.55 186.498 179.867 186.213 179.867C185.345 179.867 185.631 178.624 186.863 177.039C187.505 176.212 188.155 175.257 188.308 174.917C188.461 174.577 188.978 173.649 189.457 172.854C191.788 168.987 192.708 161.111 191.233 157.654C190.278 155.415 189.022 153.104 188.241 152.147C186.745 150.315 182.641 147.672 180.049 146.871C174.621 145.192 165.899 146.091 160.786 148.857C158.147 150.285 153.965 154.154 153.965 155.17C153.965 155.604 154.867 157.115 155.968 158.528C158.978 162.391 159.889 164.034 161.317 168.177C162.379 171.258 162.619 172.6 162.619 175.448C162.619 178.132 162.468 179.067 161.966 179.484C160.77 180.477 159.982 179.42 159.454 176.11C158.417 169.602 157.427 166.802 154.665 162.566C151.792 158.158 144.722 152.727 139.572 150.972C136.519 149.931 135.882 149.116 137.792 148.694C141.242 147.933 143.309 147.153 145.597 145.749C153.292 141.029 156.686 135.457 157.145 126.788C157.344 123.041 157.265 122.345 156.415 120.291C155.891 119.025 155.311 117.99 155.126 117.99C154.941 117.99 154.79 117.719 154.79 117.389C154.79 117.058 153.868 115.805 152.741 114.604C150.837 112.575 150.198 111.39 151.007 111.39C151.193 111.39 153.319 112.134 155.731 113.044C158.143 113.954 162.117 115.203 164.561 115.819C168.492 116.81 169.792 116.941 175.805 116.949C181.021 116.956 183.372 116.778 185.901 116.187C193.277 114.461 199.743 111.598 205.062 107.701C209.071 104.765 210.157 104.222 211.397 104.533C212.576 104.83 212.849 105.796 211.861 106.176C211.032 106.495 211.081 107.082 212.117 109.225C213.085 111.226 213.029 113.164 211.934 115.559C210.669 118.329 210.007 120.167 210.007 120.913C210.007 123.889 221.455 130.147 233.689 133.859C241.877 136.344 245.469 136.259 246.81 133.55C247.171 132.819 248.059 130.591 248.783 128.597C250.055 125.091 250.222 124.859 253.85 121.548C259.089 116.766 275.036 103.552 275.567 103.552C275.808 103.552 277.056 104.166 278.341 104.916C283.113 107.701 286.19 108.327 288.867 107.055C294.126 104.557 292.044 92.5324 285.145 85.558C281.825 82.201 279.745 81.1218 277.088 81.3776C275.779 81.5034 274.747 81.8895 274.104 82.4939C272.897 83.6299 271.89 86.6021 271.55 90.033C271.407 91.4863 271.003 92.9594 270.629 93.3938C269.927 94.2085 261.801 98.1892 260.84 98.1892C260.169 98.1892 260.143 97.6658 260.713 95.611C261.059 94.3636 261.006 93.7778 260.44 92.5836C259.832 91.3019 259.802 90.7549 260.215 88.5137C260.821 85.2222 260.831 78.2771 260.233 76.3552C258.281 70.0834 253.785 66.4619 247.499 66.0976C241.414 65.7449 236.556 68.3104 232.908 73.8034C230.797 76.9823 230.519 77.1064 227.726 76.1197C225.187 75.2233 222.324 75.3573 218.813 76.5367C217.117 77.1068 214.432 77.7574 212.844 77.9826C209.26 78.4916 208.205 79.032 204.838 82.0871C201.473 85.1397 200.273 85.5428 195.232 85.3118C188.653 85.0102 182.417 82.0483 176.732 76.5244C174.01 73.8789 173.559 72.7585 175.084 72.4281C180.188 71.3217 182.326 70.6303 185.625 69.0182C189.915 66.9222 192.774 64.8514 195.695 61.7233C198.115 59.1323 200.958 54.9407 202.159 52.1938C202.655 51.0594 203.305 49.5743 203.604 48.8937C203.902 48.213 204.483 46.3567 204.896 44.7685C205.887 40.9573 205.891 30.8668 204.903 28.0617C204.544 27.0407 204.247 25.8621 204.244 25.4426C204.238 24.703 203.85 23.6931 202.08 19.8114C198.642 12.2743 190.79 4.97032 183.049 2.10911C176.634 -0.262438 168.868 -0.659282 162.271 1.04688ZM242.644 73.7147C239.747 75.1441 235.887 80.2217 236.494 81.805C236.761 82.5029 249.579 87.9011 251.619 88.1754C252.974 88.3574 253.115 88.2695 253.588 86.9602C254.287 85.0259 254.229 80.9251 253.472 78.7779C252.674 76.5136 251.092 74.4346 249.565 73.6442C247.998 72.8332 244.356 72.8703 242.644 73.7147ZM222.375 82.6168C222.389 83.9104 222.938 84.9888 223.584 84.9888C224.402 84.9888 225.483 83.2195 225.072 82.5529C224.683 81.9229 222.368 81.9778 222.375 82.6168ZM354.849 98.5527C354.169 98.978 353.02 99.9519 352.296 100.717C350.889 102.204 348.05 107.409 348.05 108.503C348.05 108.866 347.882 109.338 347.676 109.554C346.806 110.469 346.198 116.037 346.193 123.146C346.19 127.23 346.04 130.985 345.858 131.489C345.677 131.994 343.732 133.758 341.537 135.408C337.3 138.594 331.356 144.346 330.938 145.664C330.8 146.098 330.547 146.454 330.376 146.454C329.995 146.454 328.53 149.348 327.231 152.665C325.047 158.244 325.661 166.232 328.706 171.867C329.399 173.149 330.22 174.452 330.529 174.762C330.838 175.072 331.43 175.744 331.844 176.256C334.635 179.707 339.828 182.348 346.154 183.532C349.722 184.201 349.9 184.284 349.81 185.248C349.759 185.805 349.666 187.004 349.604 187.911L349.492 189.561L346.778 189.795C342.926 190.127 341.129 191.18 339.731 193.925C339.103 195.155 338.49 196.672 338.367 197.296C338.086 198.726 337.542 198.72 335.244 197.262C333.993 196.467 333.052 195.414 332.303 193.97C331.698 192.802 330.96 191.555 330.664 191.199C328.687 188.823 326.468 187.019 324.15 185.902C321.621 184.683 321.203 184.611 316.673 184.611C312.576 184.611 311.752 184.723 311.029 185.378C310.213 186.116 310.207 186.208 310.856 187.853C312.672 192.452 315.078 195.033 319.479 197.096C321.678 198.128 322.265 198.218 326.339 198.153C329.35 198.105 331.237 198.267 332.161 198.653C333.915 199.387 336.1 201.224 336.1 201.966C336.1 202.635 336.316 202.58 327.24 204.218C315.725 206.297 308.969 208.202 298.979 212.188C293.417 214.408 289.948 216.244 289.948 216.971C289.948 218.509 310.992 220.276 336.924 220.914C359.183 221.461 399.895 219.296 401.722 217.468C402.558 216.631 401.582 215.752 397.796 213.933C388.551 209.492 372.738 205.057 360.103 203.362C356.221 202.841 355.65 202.46 357.012 201.299C360.675 198.18 360.534 198.226 366.355 198.199C371.223 198.177 371.963 198.074 374.01 197.129C376.766 195.857 379.655 193.076 381.411 190.003C383.823 185.781 382.662 184.475 376.454 184.428C369.571 184.377 364.457 187.226 361.198 192.928C359.876 195.241 356.801 197.765 355.591 197.53C355.003 197.416 354.892 196.469 354.744 190.292L354.574 183.185L357.761 181.67C361.672 179.812 364.413 177.131 366.273 173.345C367.565 170.717 367.621 170.401 367.574 166.054C367.53 162.026 367.404 161.276 366.457 159.448C364.039 154.778 360.035 152.001 353.977 150.793C352.782 150.555 352.674 150.388 352.435 148.392C352.293 147.213 352.176 144.984 352.174 143.44L352.17 140.632L355.08 137.888C360.916 132.383 364.091 126.899 365.207 120.395C366.163 114.818 365.56 106.813 363.953 103.758C363.595 103.078 363.3 102.292 363.299 102.012C363.298 101.733 362.494 100.665 361.512 99.6405C359.924 97.9797 359.53 97.7767 357.907 97.7784C356.843 97.7792 355.571 98.1014 354.849 98.5527ZM302.116 101.471C301.982 101.688 302.35 103.033 302.934 104.462C303.517 105.89 304.147 107.43 304.333 107.883C306.441 113.035 307.519 114.088 310.636 114.041C314.056 113.989 315.356 111.916 314.295 108.21C314.087 107.485 313.577 106.542 313.162 106.114C311.737 104.649 308.477 102.677 306.154 101.877C303.577 100.99 302.48 100.88 302.116 101.471ZM355.648 108.895C354.482 110.07 354.087 110.627 353.438 112.008C351.767 115.564 351.313 117.557 351.069 122.425C350.832 127.129 350.866 127.478 351.564 127.478C353.023 127.478 358.52 120.8 359.375 117.99C359.547 117.423 359.875 116.726 360.102 116.441C360.33 116.156 360.539 114.553 360.567 112.878C360.608 110.416 360.467 109.666 359.833 108.961C358.829 107.847 356.721 107.813 355.648 108.895ZM293.887 114.793C293.667 115.828 293.366 118.458 292.99 122.632C292.577 127.222 293.758 128.785 298.073 129.358C300.881 129.731 301.634 128.825 301.813 124.863C301.942 122.009 301.891 121.824 300.292 119.407C297.004 114.436 294.367 112.537 293.887 114.793ZM281.973 123.456C281.236 124.193 279.901 125.725 279.006 126.859C278.112 127.993 277.262 129.014 277.117 129.128C276.542 129.579 275.526 132.606 275.526 133.866C275.526 137.587 281.007 139.475 283.931 136.762C285.213 135.573 285.707 132.079 285.054 128.824C284.8 127.554 284.591 125.525 284.591 124.315C284.591 121.657 283.975 121.455 281.973 123.456ZM308.761 125.725C308.652 126.121 308.593 129.151 308.63 132.457C308.703 138.966 308.836 139.378 311.165 140.264C313.719 141.236 317.158 140.132 317.932 138.092C318.404 136.85 317.771 132.996 316.962 132.187C316.609 131.833 316.318 131.418 316.314 131.264C316.31 131.11 315.733 130.334 315.031 129.54C314.329 128.746 313.452 127.719 313.08 127.257C311.421 125.191 309.13 124.378 308.761 125.725ZM297.837 134.22C296.756 135.373 296.684 136.553 297.695 136.553C298.703 136.553 299.426 135.754 299.426 134.639C299.426 133.297 298.847 133.145 297.837 134.22ZM295.614 138.503C295.251 138.905 294.063 140.998 292.976 143.153C291.158 146.756 290.998 147.316 290.988 150.086C290.979 152.819 291.074 153.173 292.008 153.892C293.224 154.829 295.317 155.306 296.692 154.961C298.447 154.52 299.41 153.357 299.807 151.197C300.187 149.132 300.069 148.262 298.716 143.153C297.325 137.899 296.829 137.157 295.614 138.503ZM344.341 145.907C342.241 147.551 338.055 151.504 336.512 153.299C335.378 154.618 333.915 157.699 333.189 160.295C332.478 162.836 333.29 168.625 334.692 171.02C337.376 175.604 342.315 178.732 346.976 178.8L349.492 178.836L349.358 173.68C349.218 168.306 348.592 161.297 348.219 160.924C347.739 160.443 345.728 162.052 344.89 163.587C343.261 166.567 344.008 170.604 346.5 172.295C347.653 173.078 348.249 174.03 347.841 174.439C347.354 174.926 342.991 173.05 341.637 171.772C338.341 168.66 337.569 163.099 339.817 158.661C341.208 155.915 342.865 154.193 345.7 152.548L347.638 151.424V147.908C347.638 143.761 347.324 143.571 344.341 145.907ZM353.593 166.151C353.908 173.622 354.429 176.98 355.276 176.98C356.226 176.98 358.747 174.498 359.607 172.718C360.69 170.474 360.699 166.367 359.626 164.278C358.361 161.818 355.611 159.654 353.749 159.654C353.458 159.654 353.408 161.752 353.593 166.151Z" fill="#FEF8DD"/>
</svg>
