<svg width="1440" height="203" viewBox="0 0 1440 203" fill="none" xmlns="http://www.w3.org/2000/svg">
<path opacity="0.8" d="M585.615 91.3721C577.028 75.286 562.337 65.6668 545.612 65.8265C514.098 64.9896 508.186 104.489 494.985 141.179C484.958 170.954 468.773 190.941 446.3 190.866C421.908 192.179 409.035 166.208 401.093 132.25C395.773 110.639 392.323 88.7624 386.5 68.9569C381.029 49.7659 371.105 29.6288 354.395 29.4662C332.652 28.2017 324.494 49.9308 320.446 60.2995C309.908 90.1877 312.203 94.4203 294.421 137.476C288.664 149.245 277.931 158.936 265.807 159.146C251.041 160.623 237.953 151.218 231.808 139.915C225.12 128.646 221.582 116.208 216.431 102.961C212.18 93.1411 204.923 70.6753 182.091 69.3507C137.589 66.3659 149.173 145.703 104.141 146.693C89.1863 148.194 76.5979 141.174 70.1272 134.481C56.4934 120.793 46.0471 100.532 25.8413 99.9976C0.034008 96.7682 -20.4548 113.19 -36.9896 118.451C-46.0356 121.692 -53.5718 122.816 -59.3349 123.286C-61.7325 123.473 -62.9177 123.406 -62.9215 123.287C-62.9215 123.287 -62.9215 123.287 -62.9215 123.287C-62.9219 123.126 -61.184 122.891 -58.0855 122.509C-42.3844 122.005 -23.3702 109 2.10095 99.3487C11.0997 96.6565 19.092 96.3265 26.0791 96.7607C41.7903 97.6907 51.3564 106.739 59.6817 117.286C68.115 126.902 77.4823 145.868 103.961 143.828C105.289 143.738 106.579 143.581 107.836 143.356C150.85 131.547 131.643 67.152 182.34 65.1608C208.776 65.5129 218.982 95.4304 228.105 120.558C235.459 142.113 249.254 156.173 265.521 153.859C284.881 152.301 292.105 131.664 298.498 110.663C301.74 99.6976 304.619 87.2722 308.945 72.8456C313.834 59.0377 317.463 39.9379 336.41 27.456C342.233 24.1302 348.756 23.0638 354.69 23.4444C431.798 77.2771 377.437 144.99 445.894 182.188C451.478 181.895 457.011 180.285 461.992 176.817C479.273 164.17 485.427 137.626 493.666 113.662C497.82 101.448 502.12 88.7821 509.781 77.2493C516.926 65.5897 531.642 56.3071 545.989 57.7599C575.415 57.2161 592.404 85.6888 601.194 104.903C610.45 125.784 627.101 138.127 645.247 136.082C656.807 135.768 665.134 128.682 670.288 121.18C681.51 104.83 686.48 81.7716 693.632 57.954C697.28 46.013 701.191 33.3772 708.434 21.461C715.125 9.53164 729.629 -1.30705 745.262 0.128133C766.068 0.820817 777.901 20.348 784.484 36.4216C791.385 53.2986 795.508 71.0408 799.504 88.8076C803.977 108.74 807.985 129.797 814.409 150.597C820.692 170.095 830.798 196.344 852.479 194.195C914.873 187.578 888.086 78.2562 963.406 72.3605C967.371 72.5518 971.199 72.9213 974.939 73.5076C1016.57 74.9823 1029.1 132.243 1073.54 123.038C1127.15 128.01 1127.67 41.7043 1181.5 51.9366C1212.84 52.3663 1227.47 80.3617 1234.92 96.1691C1249.2 131.132 1267.59 149.692 1291.78 147.223C1310.42 146.7 1331.11 140.68 1349.02 116.513C1358.93 102.962 1378.78 92.119 1399.62 94.3744C1425.92 95.3803 1452.75 102.838 1476.85 108.537C1487.81 110.545 1492.21 109.098 1490.95 109.693C1489.75 110.134 1482.6 111.161 1471.5 108.732C1441.67 101.349 1416.54 97.1544 1399.48 97.0473L1399.49 97.0478C1398.24 97.0269 1397.06 97.037 1395.96 97.0724C1379.3 97.5646 1368.33 102.744 1359.43 111.533C1350.17 119.799 1343.24 134.533 1322.53 144.197C1311.32 149.063 1300.98 150.204 1291.93 150.728C1266.87 152.535 1251.26 137.874 1242.54 122.142C1237.3 112.875 1235.15 107.171 1229.71 95.8713C1226.93 90.2979 1223.57 83.0488 1216.99 74.7174C1210.53 66.5456 1199.36 57.3302 1181.28 56.8024C1167.12 55.8129 1149.61 60.585 1138.47 78.1767C1129.83 90.6972 1123.38 104.837 1112.22 114.859C1101.2 125.117 1086.73 129.066 1073.82 129.588C1059.9 130.272 1046.21 128.664 1034.88 122.253C1023.57 115.935 1016.55 106.316 1009.48 99.3094C995.767 84.5161 978.354 80.8607 963.065 80.3164C951.344 79.7391 941.986 84.2035 935.506 90.9075C924.943 101.168 917.278 121.374 908.481 144.462C899.98 165.982 886.321 199.785 853.141 201.919C835.965 204.032 822.774 189.468 816.686 176.838C809.995 163.738 806.15 150.155 802.708 137.302C797.669 118.453 793.226 94.5687 786.644 69.143C779.785 45.4984 771.372 10.392 744.907 8.24662C716.113 6.48839 707.117 42.0012 700.129 64.5473C693.155 88.935 687.268 111.136 677.224 125.606C668.955 138.358 655.826 144.38 645.639 144.467C609.189 144.667 603.072 124.695 585.615 91.3721Z" fill="#F7F0CF"/>
</svg>
