<svg width="1440" height="247" viewBox="0 0 1440 247" fill="none" xmlns="http://www.w3.org/2000/svg">
<path d="M582.626 116.006C574.813 93.9406 562.022 72.3903 540.052 71.6001C524.359 69.8166 514.467 85.2332 508.699 101.621C502.651 118.347 498.836 137.544 493.451 158.919C482.31 199.755 474.409 229.818 441.058 235.068C415.947 237.15 404.183 208.576 396.63 176.867C381.423 119.907 385.837 43.9266 346.169 29.5121L346.182 29.5134C331.006 27.8459 322.888 41.1159 318.924 49.4493C305.74 83.3514 305.879 87.9026 295.28 140.031C292.308 154.051 289.147 166.631 284.08 177.882C279.25 188.71 270.786 200.271 257.724 200.742C235.144 202.529 223.486 179.746 217.788 160.082C214.621 150.13 211.379 135.359 206.637 118.324C201.657 102.538 195.501 77.8656 173.95 74.8165C148.583 70.447 139.754 100.784 132.982 119.825C126.663 140.069 114.034 161.124 96.0711 160.82C91.2097 161.162 86.7442 160.942 82.848 160.288C50.6732 155.844 44.3087 113.275 14.9775 110.991L14.9618 110.988C-8.19918 106.112 -26.3597 121.557 -41.1632 127.56C-51.394 132.11 -60.1425 133.771 -66.8297 134.4C-69.6366 134.657 -70.9938 134.59 -71.0015 134.473C-71.0015 134.473 -71.0016 134.473 -71.0016 134.473C-70.994 134.308 -68.997 134.075 -65.3805 133.58C-56.6426 132.439 -46.0177 129.179 -34.8861 123.06C-23.8067 117.288 -11.3649 108.129 4.99696 107.602C8.66415 107.453 12.1227 107.698 15.4081 108.168L15.3926 108.165C58.422 117.028 48.5014 158.782 95.8943 157.898C105.277 157.658 115.112 151.498 121.174 140.074C129.266 125.194 132.442 109.493 138.797 95.5115C144.065 81.5733 158.239 68.1136 174.376 71.082C218.4 84.1141 208.014 137.207 231.352 180.176C237.46 190.932 247.465 196.613 257.459 195.721C272.588 194.445 278.574 178.335 282.855 166.231C287.085 153.262 289.626 140.098 292.392 125.439C295.175 110.813 297.735 94.5935 302.592 75.4128C305.118 65.8628 308.103 55.3786 313.74 44.6453C318.878 34.4048 330.416 21.0942 346.762 23.311L346.776 23.3123C347.589 23.4005 348.392 23.5258 349.185 23.6882C425.713 113.461 369.373 178.755 440.311 226.716C449.923 225.975 458.743 219.499 465.118 208.996C478.05 187.284 482.88 158.849 489.957 131.163C493.506 117.227 497.162 103.016 503.681 89.3516C509.429 76.1911 523.345 60.7722 540.82 63.387C577.703 67.4022 586.26 106.177 595.378 129.441C603.548 154.589 617.549 178.942 639.68 174.967C654.056 173.785 662.217 160.35 667.056 150.02C676.963 128.219 681.664 101.211 688.596 72.6854C692.129 58.418 695.86 43.5654 702.757 28.8419C708.911 14.8115 723.17 -2.25177 742.735 0.245189C767.207 3.47354 775.44 28.0985 781.895 46.4686C788.156 66.2066 791.91 86.483 795.571 106.982C799.826 130.868 803.631 156.109 809.782 181.371C816.152 204.504 824.232 239.528 849.799 238.611C919.475 220.843 875.572 97.9013 958.18 78.0525C960.393 78.2535 962.484 78.5332 964.549 78.9019C1018.22 83.4483 1009.82 168.648 1065.46 161.952C1128.07 158.876 1107.74 50.9095 1173.5 57.639C1206.7 61.0558 1216.29 93.4431 1223.15 110.512C1238 155.68 1249.83 189.628 1283.66 186.118C1302.8 185.26 1323.39 174.148 1336.56 147.412C1342 137.949 1347.3 126.736 1356.81 117.735C1366.24 108.508 1380.54 104.731 1394.22 105.596L1394.24 105.597C1422.01 106.555 1449.63 115.06 1474.55 121.941C1487.24 124.735 1492.39 122.997 1490.9 123.65C1489.51 124.103 1481.14 125.128 1468.39 121.732C1439.06 113.202 1413.45 108.434 1394.11 108.046L1394.12 108.046C1389.12 107.91 1384.88 108.274 1381 109.051C1341.2 118.861 1353.69 153.05 1309.81 182.668C1300.9 187.202 1291.91 188.892 1283.95 189.567C1266.46 191.489 1252.52 182.454 1245.08 172.582C1237.31 162.653 1232.88 152.314 1228.75 141.232C1224.71 130.15 1222.91 123.453 1218.34 110.625C1215.97 104.261 1213.12 96.2007 1207.37 86.3287C1201.69 76.9149 1191.98 63.9408 1173.09 62.4223C1154.42 59.0618 1135.28 74.6047 1125.88 101.488C1114.65 131.569 1099.05 169.035 1065.74 168.446C1049.7 169.678 1033.02 163.552 1023.67 152.192C1014.09 141.182 1009.12 129.062 1003.27 118.897C992.581 97.7057 975.272 86.6667 957.505 85.9284C941.39 84.1788 931.44 96.5603 925.778 108.068C917.819 123.557 912.261 147.475 904.9 174.639C896.883 199.319 889.502 241.339 850.435 246.354C828.568 248.212 817.155 226.797 811.207 211.706C804.853 195.367 801.221 178.926 797.926 163.229C793.345 141.38 789.23 113.794 783.174 84.1647C780.067 69.3949 776.468 53.8953 770.783 39.3034C765.168 25.0808 756.334 9.41855 742.042 8.34135C726.214 6.29672 715.008 20.5217 708.896 34.9116C702.495 49.5361 698.747 65.0933 695.254 79.6596C688.492 108.869 683.016 134.974 674.687 153.103C667.4 170.331 654.068 182.728 640.462 183.326C620.739 185.365 608.333 173.931 601.663 162.777C594.478 151.175 590.283 137.246 582.626 116.006Z" fill="#FEF8DD"/>
</svg>
