<svg width="1440" height="164" viewBox="0 0 1440 164" fill="none" xmlns="http://www.w3.org/2000/svg">
<path opacity="0.55" d="M583.664 91.6934C570.867 75.2796 553.756 68.9072 534.823 68.9795C511.572 66.9908 498.294 87.2473 486.987 114.761C475.819 141.56 457.371 155.255 438.226 154.86C419.422 156.754 402.39 138.897 393.852 110.628C382.054 77.3637 376.947 31.437 346.306 29.5382C325.718 27.8002 315.495 45.032 310.945 54.5899C298.449 78.8154 303.873 85.3686 276.195 116.419C270.611 120.698 263.916 122.801 257.732 123.145C242.547 124.622 227.935 118.378 220.171 107.542C212.001 97.3286 207.276 85.0625 195.352 77.834C191.071 75.214 184.706 72.9339 176.686 72.4005C139.092 63.0591 143.658 136.874 98.7509 138.386C77.4296 141.042 61.6354 126.759 54.1513 118.555C45.1688 108.942 33.8974 100.768 20.4469 100.159C-5.7413 96.8671 -28.437 111.051 -45.5877 114.75C-53.6621 116.812 -60.2102 117.533 -65.185 117.861C-67.2764 117.993 -68.3032 117.924 -68.3082 117.803C-68.3082 117.803 -68.3082 117.803 -68.3082 117.803C-68.3157 117.646 -66.7845 117.409 -64.1122 117.12C-50.7348 116.391 -32.6334 108.852 -10.6812 100.442C1.96874 96.3569 12.0363 96.1712 20.6978 96.7428C30.9514 97.4587 40.0089 101.041 48.606 108.778C57.4941 115.753 64.5371 130.351 84.2786 134.706C89.1252 135.658 93.8911 135.743 98.563 135.394C141.889 133.642 124.523 69.2043 176.956 67.9345C189.134 68.2724 203.167 74.4835 211.52 86.5965C219.295 97.2645 224.364 106.994 232.249 112.198C239.944 117.498 248.827 118.343 257.422 117.715C271.774 116.996 281.632 105.359 288.881 88.7815C297.761 73.2879 298.134 46.1999 327.004 27.1145C333.55 23.9087 340.428 23.1499 346.615 23.5465C418.354 59.3897 374.193 125.254 437.805 146.256C443.422 145.927 449.115 144.676 454.426 141.716C469.19 133.675 475.922 114.289 484.714 95.9995C489.231 86.8047 494.586 77.0467 503.527 69.8143C512.45 62.4363 524.425 59.8177 535.219 60.5088C555.564 60.4994 577.381 71.1764 588.546 86.0797C599.97 100.404 616.167 103.71 631.767 102.8C649.91 102.548 660.948 89.1598 666.83 77.974C673.876 65.1603 678.52 49.3237 686.12 33.0214C692.677 17.1474 709.445 -2.21191 731.803 0.205855C753.754 0.659729 767.008 21.5852 773.968 39.1866C781.42 57.5867 785.914 77.0224 791.336 96.2303C798.715 119.783 806.968 157.63 836.31 155.539C888.259 157.546 880.815 67.9477 944.566 72.2586C960.495 73.0276 976.642 74.9967 991.372 81.0685C1009.56 90.4026 1029.46 93.5989 1051.97 92.3594C1093.74 98.3118 1115.86 41.2639 1159.96 51.7088C1205.54 51.0492 1216.21 99.0809 1237.31 107.639C1247.79 113.419 1258.39 114.048 1267.53 113.789C1285.32 113.083 1298.71 110.615 1311.86 103.938C1324.53 97.2749 1338.71 86.2595 1362.22 86.0449C1366.51 85.862 1370.71 85.8861 1375.38 86.0881C1406.99 86.8003 1445.46 95.4837 1478.68 100.168C1497.95 101.507 1493.62 102.39 1474.05 100.898C1445.64 97.4049 1422.76 92.3855 1408.07 91.6462C1394.96 90.7361 1385.27 90.4796 1375.18 90.2004C1363 90.3016 1349.67 88.9174 1331.7 97.0445C1305 113.676 1285.69 117.421 1267.74 118.489C1264.52 118.669 1261.51 118.676 1258.24 118.434C1247.57 117.159 1240.98 116.463 1228.11 106.85C1221.76 101.911 1215.39 93.467 1206.9 82.1436C1198.62 70.9984 1184.51 57.3949 1159.72 57.0492C1156.36 56.9226 1153.05 56.9161 1149.66 57.0844C1127.71 57.079 1113.71 69.914 1100.04 82.5968C1085.55 95.1505 1067.36 98.6963 1052.29 99.3905C1029.36 100.954 1007.94 97.8272 992.743 90.0878C977.682 83.4846 963.9 81.8449 951.54 80.9364C949.116 80.7697 946.912 80.6462 944.197 80.528C927.638 78.578 908.234 88.8909 896.947 111.598C886.029 132.421 867.615 162.511 836.989 163.13C819.029 165.566 804.794 150.74 798.535 138.032C788.845 120.116 783.065 95.1671 775.531 69.0476C767.981 44.5662 758.324 9.61665 731.432 8.32054C711.128 6.33668 698.616 23.7523 692.025 39.5491C685.04 55.5881 680.147 70.7534 674.192 81.6435C662.65 104.789 644.101 111.136 632.162 111.062C617.714 110.785 601.51 111.891 583.664 91.6934Z" fill="#FFFDF3"/>
</svg>
