<svg width="693" height="80" viewBox="0 0 693 80" fill="none" xmlns="http://www.w3.org/2000/svg">
<path d="M179.891 64.9836C137.372 68.962 109.392 67.7319 66.8063 64.9836C41.5681 63.3548 11.6707 83.3706 2.63756 54.7962C-1.03311 43.1848 -0.721818 34.7092 2.63756 22.9606C11.129 -6.73642 41.0677 6.04483 66.8063 1.94904C105.185 -4.1581 127.168 5.62505 165.689 10.2263C198.853 14.1876 198.546 19.8398 230.91 10.2263C247.073 5.42512 271.321 12.5265 287.855 10.2263C303.388 8.06544 334.224 8.32342 349.78 10.2263C387.273 14.8127 386.266 9.69282 423.948 10.2263C456.304 10.6844 475.231 8.91051 507.572 10.2263C529.743 11.1284 542.193 10.2263 564.377 10.2263C599.091 10.2263 619.107 2.75198 653.267 10.2263C668.956 13.6592 689.81 3.98286 692.715 22.9606C694.977 37.7438 683.309 43.8089 674.831 54.7962C636.769 104.126 588.048 66.017 532.293 64.9836C488.014 64.1629 463.754 59.3967 419.471 59.759C378.874 60.0912 356.181 63.9535 315.592 64.9836C260.867 66.3725 222.409 61.0052 179.891 64.9836Z" fill="#F15C56"/>
</svg>
