<svg width="843" height="483" viewBox="0 0 843 483" fill="none" xmlns="http://www.w3.org/2000/svg">
<path d="M814.592 340.436C818.584 340.021 822.552 338.886 825.871 339.891C830.562 341.313 834.926 344.07 839.144 346.713C843.266 349.297 844.028 353.184 841.339 358.643C835.966 369.547 830.269 380.291 824.684 391.089C822.771 394.788 821.14 398.707 818.706 402.033C817.314 403.936 814.389 406.134 812.478 405.868C810.271 405.561 807.751 403.064 806.524 400.87C798.19 385.969 790.162 370.898 782.035 355.881C781.566 355.962 781.097 356.042 780.627 356.122C780.282 357.414 779.834 358.688 779.608 360C777.374 372.97 775.063 385.928 773.028 398.93C772.251 403.9 769.764 406.541 764.863 407.605C700.578 421.559 636.317 435.627 572.033 449.589C554.619 453.371 537.126 456.794 519.734 460.674C517.756 461.116 515.596 463.127 514.575 464.989C512.344 469.059 511.206 473.756 508.799 477.693C507.439 479.918 504.51 482.33 502.17 482.455C500.215 482.559 497.357 479.87 496.155 477.716C488.053 463.199 492.703 465.396 477.024 468.275C469.817 469.599 462.665 471.314 455.412 472.268C450.858 472.867 446.077 472.957 441.54 472.298C388.636 464.617 335.813 456.35 282.854 449.071C247.551 444.218 212.094 440.414 176.65 436.676C146.343 433.48 115.956 431.047 85.6046 428.275C77.852 427.567 75.7184 425.456 75.3957 417.683C74.7123 401.217 74.1376 384.746 73.5183 368.278C73.0138 367.829 72.5094 367.379 72.0049 366.93C71.7532 367.854 71.6868 368.884 71.2226 369.684C59.7691 389.422 48.2421 409.116 36.8054 428.863C33.5806 434.43 27.94 435.192 24.5267 429.841C16.6451 417.488 9.02836 404.958 1.60451 392.323C-1.37316 387.255 -0.105096 382.022 4.56849 378.549C8.55907 375.584 12.6941 372.657 17.1496 370.51C23.4527 367.474 28.294 370.191 29.863 377.018C31.9782 386.221 34.0366 395.437 36.402 405.897C37.896 403.722 38.824 402.503 39.6145 401.2C68.8377 353.053 97.6663 304.652 122.784 254.216C148.102 203.376 172.883 152.255 197.028 100.849C211.747 69.5133 224.832 37.4101 238.619 5.63841C240.694 0.857011 243.618 -0.748428 248.933 0.312882C301.091 10.729 353.546 19.125 406.616 23.2384C462.758 27.5897 518.816 26.8254 574.748 20.0434C586.322 18.64 597.866 16.9952 609.427 15.4849C615.705 14.6648 618.096 16.0203 620.911 21.7648C650.595 82.3343 679.701 143.197 710.189 203.358C729.459 241.383 750.696 278.414 771.245 315.784C781.436 334.317 792.067 352.608 802.5 371.007C803.463 372.704 804.443 374.392 806.194 377.442C807.802 367.926 808.978 359.821 810.609 351.81C811.384 348.005 813.027 344.378 814.592 340.436ZM316.252 143.339C334.826 179.12 353.182 215.017 372.031 250.653C395.492 295.006 421.437 337.906 448.715 380.014C451.313 384.025 453.998 384.976 458.512 384.312C551.495 370.652 644.497 357.122 737.495 343.569C748.159 342.015 758.825 340.479 770.167 338.837C764.665 329.169 759.55 320.236 754.486 311.274C702.98 220.123 655.954 126.694 612.356 31.5266C611.039 28.6514 609.63 27.7554 606.313 28.2282C563.714 34.3026 520.914 38.7827 477.861 37.8446C443.912 37.1049 409.942 35.1883 376.099 32.3843C337.244 29.1651 298.748 22.8841 260.556 14.9236C258.994 14.5981 257.386 14.4949 254.12 14.0692C275.114 57.7699 295.51 100.224 316.252 143.339ZM139.902 351.54C144.104 346.158 148.522 340.928 152.476 335.37C193.641 277.504 220.934 213.288 239.073 144.965C242.57 131.794 245.32 118.452 244.175 104.53C242.823 88.1019 242.235 71.6111 241.316 55.1477C240.99 49.3105 240.663 43.4733 240.337 37.6362C238.839 38.7319 238.238 39.8777 237.714 41.0576C228.993 60.6889 220.537 80.4429 211.523 99.9387C172.859 183.566 133.281 266.736 86.7677 346.398C85.4385 348.674 84.7849 351.72 84.8585 354.378C85.2271 367.696 86.0481 381.002 86.4952 394.319C86.7337 401.427 86.5375 408.549 86.5375 415.653C117.597 418.581 147.389 421.39 177.871 424.263C176.93 422.251 176.262 420.606 175.421 419.055C165.553 400.848 154.642 383.361 140.525 368.049C135.024 362.082 134.903 358.848 139.902 351.54ZM284.159 193.482C310.236 253.869 343.996 309.124 391.856 354.997C397.047 359.972 397.153 363.349 393.099 369.55C384.26 383.073 374.982 396.333 366.683 410.18C360.046 421.255 354.589 433.038 348.232 445.228C379.85 450.208 410.146 454.979 440.491 459.758C440.729 458.603 440.921 458.128 440.911 457.658C440.436 435.339 439.989 413.02 439.369 390.706C439.318 388.867 438.382 386.863 437.344 385.271C404.742 335.269 374.313 283.943 347.061 230.875C317.917 174.124 290.351 116.563 262.131 59.3378C258.865 52.7146 255.822 45.9816 252.675 39.2995C251.813 41.2484 251.707 42.9926 251.829 44.7208C253.264 65.1594 254.6 85.6065 256.271 106.026C256.797 112.455 257.357 119.114 259.429 125.142C267.224 147.81 275.649 170.261 284.159 193.482ZM566.586 438.207C570.987 437.292 575.396 436.414 579.788 435.457C638.849 422.589 697.9 409.675 756.986 396.923C760.392 396.188 761.524 394.779 762.01 391.466C763.654 380.261 765.678 369.113 767.551 357.942C767.919 355.748 768.263 353.551 768.647 351.178C665.553 366.063 563.143 380.849 459.609 395.796C471.187 414.727 482.227 432.777 494.078 452.154C494.302 449.541 494.374 448.453 494.492 447.37C495.594 437.279 496.595 427.175 497.854 417.104C498.562 411.441 501.549 408.442 506.698 409.034C511.57 409.595 516.686 410.586 521.024 412.74C531.533 417.958 532.471 421.385 528.038 432.282C526.121 436.994 524.203 441.705 521.904 447.353C537.19 444.226 551.472 441.305 566.586 438.207ZM358.099 399.653C366.036 387.391 373.972 375.129 381.968 362.775C329.659 312.873 294.134 251.973 266.865 185.679C273.717 243.415 325.467 417.208 340.276 434.027C343.042 428.284 345.657 422.526 348.559 416.918C351.468 411.296 354.662 405.823 358.099 399.653ZM198.667 392.162C224.78 321.288 239.225 248.06 243.406 172.754C222.149 240.438 193.498 304.267 149.854 359.475C162.719 378.703 175.569 397.91 188.639 417.445C191.901 409.267 195.164 401.085 198.667 392.162ZM452.887 448.801C453.134 452.575 453.382 456.35 453.654 460.508C463.699 458.558 473.237 456.706 483.451 454.723C472.994 437.698 462.994 421.418 452.86 404.921C452.86 419.682 452.86 433.768 452.887 448.801ZM504.747 450.095C504.747 452.475 504.747 454.854 504.747 457.233C505.071 457.291 505.396 457.349 505.721 457.407C510.195 446.611 514.668 435.815 519.356 424.502C515.148 422.815 511.561 421.378 507.276 419.661C506.398 430.033 505.587 439.612 504.747 450.095ZM819.087 366.522C818.274 371.291 817.461 376.06 816.648 380.829C816.96 380.92 817.271 381.011 817.583 381.102C821.964 372.454 826.344 363.806 830.922 354.767C827.832 353.187 825.278 351.881 822.209 350.312C821.128 355.938 820.192 360.81 819.087 366.522ZM24.0469 408.532C24.3337 408.689 24.6148 408.859 24.9144 408.985C24.9525 409.001 25.1816 408.768 25.1641 408.683C23.3536 399.889 21.5278 391.099 19.5137 381.396C16.2252 383.733 13.8787 385.401 11.3863 387.172C15.6769 394.441 19.6957 401.25 24.0469 408.532Z" fill="#FEF8DD"/>
<path d="M598.839 175.406C591.74 162.742 584.708 150.454 578.006 137.989C576.464 135.122 574.947 134.909 572.113 135.551C543.671 141.987 514.896 144.609 485.754 142.717C484.923 142.663 483.85 142.924 483.306 142.502C481.657 141.221 480.214 139.677 478.691 138.236C480.378 137.016 482.015 134.824 483.76 134.734C494.568 134.177 505.408 134.292 516.221 133.807C535.098 132.959 553.642 129.91 571.846 124.785C580.631 122.312 582.484 123.265 586.34 131.334C601.179 162.393 620.035 191.066 638.898 219.735C640.82 222.657 642.71 225.601 644.682 228.49C646.546 231.221 647.684 234.125 644.35 236.306C641.217 238.356 639.058 236.108 637.355 233.625C628.781 221.125 620.135 208.673 611.713 196.07C607.274 189.427 603.241 182.511 598.839 175.406Z" fill="#FEF8DD"/>
<path d="M466.574 227.606C443.723 201.188 426.072 171.903 411.611 140.605C411.123 139.551 410.226 138.344 410.417 137.386C410.849 135.211 411.238 132.315 412.74 131.228C415.194 129.454 417.303 131.313 418.602 133.882C422.282 141.158 425.935 148.451 429.78 155.641C448.291 190.253 470.878 221.793 500.006 248.367C502.311 250.471 504.301 253.078 501.46 255.42C500.099 256.541 495.954 256.341 494.606 255.088C485.114 246.258 476.022 236.999 466.574 227.606Z" fill="#FEF8DD"/>
<path d="M554.856 289.221C548.091 286.294 541.667 283.57 535.322 280.674C532.581 279.423 530.164 277.486 532.074 274.098C533.756 271.115 536.375 271.846 539.034 273.13C554.487 280.599 570.982 284.378 587.869 286.722C589.023 286.882 590.182 287.005 591.342 287.119C594.247 287.406 596.791 288.329 596.562 291.817C596.341 295.18 593.574 295.716 591.022 295.358C580.349 293.861 569.705 292.159 559.058 290.478C557.755 290.272 556.505 289.737 554.856 289.221Z" fill="#FEF8DD"/>
<path d="M671.283 399.299C652.932 402.022 635.005 404.694 617.063 407.266C614.275 407.666 611.355 408.039 608.623 407.612C606.905 407.343 605.424 405.557 603.836 404.453C605.212 403.064 606.383 400.831 608.002 400.437C614.135 398.943 620.402 397.983 626.638 396.935C646.004 393.683 665.378 390.482 684.749 387.26C685.242 387.178 685.826 386.869 686.209 387.033C688.412 387.981 691.725 388.509 692.487 390.174C693.883 393.225 691.065 394.914 688.273 395.576C682.771 396.88 677.228 398.012 671.283 399.299Z" fill="#FEF8DD"/>
</svg>
